<svg xmlns="http://www.w3.org/2000/svg" width="16.667" height="20" viewBox="0 0 16.667 20"><defs><style>.a{fill:#07134a;}</style></defs><g transform="translate(0)"><path class="a" d="M5.213,18.974H5.185c-1.375-.012-2.413-1.322-3.247-2.6A11.926,11.926,0,0,1,.046,11.125,6.779,6.779,0,0,1,.852,6.838,4.912,4.912,0,0,1,4.813,4.443,5.614,5.614,0,0,1,6.8,4.878a4.767,4.767,0,0,0,1.634.378A3.985,3.985,0,0,0,9.89,4.9a5.559,5.559,0,0,1,2.143-.463,4.8,4.8,0,0,1,3.625,1.925,4.053,4.053,0,0,0-2.133,3.9,4.294,4.294,0,0,0,.768,2.172,4.12,4.12,0,0,0,1.913,1.481,13.623,13.623,0,0,1-1.225,2.3c-.883,1.353-1.966,2.738-3.307,2.749h-.03a2.9,2.9,0,0,1-1.319-.352l-.1-.047a3.788,3.788,0,0,0-1.747-.4h-.03a4.182,4.182,0,0,0-1.886.45A3.038,3.038,0,0,1,5.213,18.974Zm2.7-14.408H7.834a3.817,3.817,0,0,1,.944-3A4.456,4.456,0,0,1,11.661,0a4.142,4.142,0,0,1-.918,3.08A3.755,3.755,0,0,1,7.917,4.566Z"/></g></svg>