<svg xmlns="http://www.w3.org/2000/svg" width="19.486" height="21.026" viewBox="0 0 19.486 21.026"><defs><style>.a{fill:#07134a;stroke:#fff;}</style></defs><g transform="translate(0.5 0.526)"><path class="a" d="M.855,20a.852.852,0,0,1-.109-.007C.279,19.947,0,19.5,0,18.8V1.185C0,.552.269.129.738.023l9.823,9.952L.746,19.992l10.259-9.62,2.628,2.715L1.624,19.746l-.084.047A1.447,1.447,0,0,1,.855,20ZM14.42,12.652h0L11.457,9.958l2.978-2.672.525.29.011.006,1.622.9,1.326.733c.377.209.569.452.569.723a1.006,1.006,0,0,1-.569.779l-2.5,1.387-.891.494-.1.058ZM11.006,9.5h0L.739.023A.983.983,0,0,1,.949,0a1.23,1.23,0,0,1,.592.162L6.734,3.031,8.917,4.237l4.531,2.5.183.1L11.006,9.5Z"/></g></svg>