<svg xmlns="http://www.w3.org/2000/svg" width="40" height="40" viewBox="0 0 40 40"><defs><style>.a,.b{fill:none;}.a{stroke:#535353;stroke-linecap:round;stroke-linejoin:round;stroke-width:2px;}</style></defs><g transform="translate(-480 -925)"><g transform="translate(484.5 934)"><g transform="translate(1.5 1)"><path class="a" d="M26.2,3.667H21.23l-.28-1.333A1.368,1.368,0,0,0,19.55,1h-9.1a1.368,1.368,0,0,0-1.4,1.333L8.77,3.667H3.8A2.736,2.736,0,0,0,1,6.333v12A2.736,2.736,0,0,0,3.8,21H26.2A2.736,2.736,0,0,0,29,18.333v-12A2.736,2.736,0,0,0,26.2,3.667Z" transform="translate(-1 -1)"/><circle class="a" cx="4.363" cy="4.363" r="4.363" transform="translate(10.248 7.723)"/><rect class="a" width="3.74" height="3.74" transform="translate(3.116 5.444)"/></g></g><rect class="b" width="40" height="40" transform="translate(480 925)"/></g></svg>