<svg xmlns="http://www.w3.org/2000/svg" width="40" height="40" viewBox="0 0 40 40"><defs><style>.a,.b{fill:none;}.a{stroke:#535353;stroke-linecap:round;stroke-linejoin:round;stroke-width:2px;}</style></defs><g transform="translate(-530 -925)"><g transform="translate(539 934.186)"><g transform="translate(1 0.814)"><rect class="a" width="20" height="20" rx="4" transform="translate(0 0)"/><path class="a" d="M4,27l2.225-7.08a1.285,1.285,0,0,1,1.12-.994,1.259,1.259,0,0,1,1.142.95L9.6,23.166a1.225,1.225,0,0,0,1.246.952,1.407,1.407,0,0,0,1.078-1.256l1.025-6.068A1.375,1.375,0,0,1,14.1,15.54a1.3,1.3,0,0,1,1.222,1.13L17.756,27" transform="translate(-0.81 -7.734)"/><circle class="a" cx="2.19" cy="2.19" r="2.19" transform="translate(3.594 4.287)"/></g></g><rect class="b" width="40" height="40" transform="translate(530 925)"/></g></svg>