<svg xmlns="http://www.w3.org/2000/svg" width="28" height="28" viewBox="0 0 28 28"><defs><style>.a{fill:#fff;opacity:0.65;}</style></defs><path class="a" d="M14,28c-3.774,0-4.272-.016-5.771-.084a10.345,10.345,0,0,1-3.4-.651A6.862,6.862,0,0,1,2.35,25.65,6.851,6.851,0,0,1,.735,23.17a10.339,10.339,0,0,1-.651-3.4C.016,18.273,0,17.775,0,14S.016,9.727.085,8.228a10.34,10.34,0,0,1,.651-3.4A6.854,6.854,0,0,1,2.35,2.35,6.865,6.865,0,0,1,4.83.735,10.328,10.328,0,0,1,8.23.084C9.721.016,10.217,0,14,0s4.28.016,5.772.084a10.332,10.332,0,0,1,3.4.651A6.861,6.861,0,0,1,25.65,2.35a6.854,6.854,0,0,1,1.615,2.48,10.322,10.322,0,0,1,.651,3.4C27.984,9.713,28,10.208,28,14s-.016,4.287-.084,5.772a10.32,10.32,0,0,1-.651,3.4,7.158,7.158,0,0,1-4.094,4.095,10.349,10.349,0,0,1-3.4.651C18.272,27.984,17.774,28,14,28ZM14,2.523c-3.743,0-4.185.014-5.657.081a7.747,7.747,0,0,0-2.6.482,4.331,4.331,0,0,0-1.61,1.047,4.331,4.331,0,0,0-1.047,1.61,7.747,7.747,0,0,0-.482,2.6C2.537,9.815,2.523,10.257,2.523,14s.014,4.185.081,5.657a7.747,7.747,0,0,0,.482,2.6,4.334,4.334,0,0,0,1.047,1.61,4.331,4.331,0,0,0,1.61,1.047,7.753,7.753,0,0,0,2.6.482c1.472.067,1.914.081,5.657.081s4.185-.014,5.658-.081a7.74,7.74,0,0,0,2.6-.482,4.633,4.633,0,0,0,2.657-2.657,7.719,7.719,0,0,0,.482-2.6c.067-1.471.082-1.912.082-5.657s-.014-4.186-.082-5.657a7.719,7.719,0,0,0-.482-2.6,4.326,4.326,0,0,0-1.047-1.61,4.33,4.33,0,0,0-1.61-1.047,7.733,7.733,0,0,0-2.6-.482C18.185,2.537,17.743,2.523,14,2.523Zm0,18.666a7.167,7.167,0,1,1,2.8-.565,7.167,7.167,0,0,1-2.8.565ZM14,9.333A4.667,4.667,0,1,0,17.3,10.7,4.667,4.667,0,0,0,14,9.333Zm7.473-1.127a1.68,1.68,0,1,1,1.68-1.68,1.68,1.68,0,0,1-1.68,1.68Z"/></svg>