<svg xmlns="http://www.w3.org/2000/svg" xmlns:xlink="http://www.w3.org/1999/xlink" width="327" height="188" viewBox="0 0 327 188"><defs><style>.a,.l{fill:#fff;}.a{stroke:#707070;}.b{clip-path:url(#a);}.c{fill:#82c8b7;}.d,.m,.o,.y{fill:none;}.d{stroke:#2d5f78;}.d,.m,.o{stroke-linecap:round;}.d,.o{stroke-linejoin:round;}.d,.y{stroke-width:0.97px;}.e{fill:#f7ac64;}.f{fill:#46345a;}.g{fill:#f5a88d;}.h{fill:#fafafa;}.i{fill:url(#b);}.j{fill:#753927;}.k{fill:#503a14;}.m,.o{stroke:#130a0b;stroke-width:0.42px;}.m,.y{stroke-miterlimit:10;}.n{fill:#040506;}.p{fill:#140a0a;}.q{fill:url(#c);}.r{fill:#5f4f9c;}.s{fill:#2a2961;}.t{fill:url(#d);}.u{fill:#280c07;}.v{fill:#f5a78d;}.w{fill:#2b2042;}.x{fill:#aac4e7;}.y{stroke:#a6aad1;}.z{fill:#3c1713;}.aa{fill:#010101;}.ab{fill:#a6aad1;}</style><clipPath id="a"><rect class="a" width="327" height="188" transform="translate(1273 94)"/></clipPath><linearGradient id="b" x1="0.632" y1="0.633" x2="7.475" y2="6.118" gradientUnits="objectBoundingBox"><stop offset="0" stop-color="#5ebb9d"/><stop offset="1" stop-color="#9cd2c2"/></linearGradient><linearGradient id="c" x1="0.502" y1="0.564" x2="1.082" y2="-1.472" gradientUnits="objectBoundingBox"><stop offset="0" stop-color="#fff"/><stop offset="1" stop-color="#a6aad1"/></linearGradient><linearGradient id="d" x1="2.356" y1="2.252" x2="-2.251" y2="-2.421" xlink:href="#c"/></defs><g class="b" transform="translate(-1273 -94)"><g transform="translate(1272.934 94.494)"><path class="c" d="M267.031,365.251l-18.8,5.263-.206,41.357H186.859l1.125-51.7-4.506,9.736L164.85,355.39l12.522-27.007a27.315,27.315,0,0,1,17.763-14.923l9.2-2.439,9.952-2.65h3.245v.914l12.305,1.893c.654.1,1.314.222,1.963.357a36.938,36.938,0,0,1,27.256,23.929Z" transform="translate(-119.125 -256.358)"/><path class="d" d="M316.172,395.511s-1.082-24.833-3.332-32.681" transform="translate(-187.067 -281.361)"/><line class="d" y1="19.824" x2="1.12" transform="translate(68.865 83.984)"/><path class="e" d="M240.205,421.624H209.888a2.953,2.953,0,0,1-2.867-2.6l-3.949-37.587a2.288,2.288,0,0,1,2.32-2.591h30.317a2.948,2.948,0,0,1,2.867,2.591l3.949,37.587a2.293,2.293,0,0,1-2.32,2.6Z" transform="translate(-136.664 -288.715)"/><path class="f" d="M237.16,375.381l.081.746a1.152,1.152,0,0,1-1.168,1.309H223.432a1.493,1.493,0,0,1-1.45-1.309l-.081-.746a1.152,1.152,0,0,1,1.168-1.309h3.245a1.147,1.147,0,0,0,1.168-1.3h0a1.152,1.152,0,0,1,1.168-1.309h.871a1.487,1.487,0,0,1,1.45,1.309h0a1.5,1.5,0,0,0,1.45,1.3h3.272A1.493,1.493,0,0,1,237.16,375.381Z" transform="translate(-145.312 -285.323)"/><path class="g" d="M108.9,343.985a5.7,5.7,0,0,1-1.623-5.279,14.8,14.8,0,0,0,.222-5.631,59.228,59.228,0,0,0-1.92-11.332,2.84,2.84,0,0,0-.335-.887c-.817-1.26-1.974,0-2.51.817a7.221,7.221,0,0,0-.947,4.327c.06,1.325.541,2.65.573,3.943-1.185-2.012-1.823-4.587-2.807-6.74-1.623-3.6-3.121-7.724-7.032-9.39a1.352,1.352,0,0,0-1.185-.087,1,1,0,0,0-.395.449c-.779,1.585,1.2,3.57,1.991,4.83a41.033,41.033,0,0,1,1.985,3.84s2.023,4.024,1.758,4.944c.162-.541-1.807-3.007-2.164-3.559a38.059,38.059,0,0,0-2.661-3.575c-1.244-1.477-4.522-5.8-6.81-4.214-1.78,1.239,2.082,4.549,2.807,5.463a84.38,84.38,0,0,1,5.236,7.362c-.087-.573-1.931-1.85-2.38-2.277l-2.515-2.418q-1.455-1.4-2.91-2.786c-.865-.828-2.234-1.85-3.327-.736-1.222,1.249,1.239,3.283,2.018,4.046a63.823,63.823,0,0,1,4.744,5.009,3.884,3.884,0,0,1,.968,1.736c-2.326-2.137-4.376-5.874-7.659-6.415a1.363,1.363,0,0,0-1.547,1.082c-.222.844.525,1.385,1.1,1.926,1.385,1.271,2.753,3.359,4.176,4.592a30.1,30.1,0,0,1,4.068,4.749,26.182,26.182,0,0,1,3.245,4.69A17.44,17.44,0,0,0,97.1,346.6s2.7,1.45,2.8,2.7a15.314,15.314,0,0,1,.173,2.293s.3,1,.871,1.082c0,0,9.2-4.868,9.449-6.566A3.711,3.711,0,0,0,108.9,343.985Z" transform="translate(-80.37 -258.773)"/><path class="h" d="M139.043,379.61l-1.249,3.375L123.411,361.1,108.65,371.377l18.785,35.272a13.787,13.787,0,0,0,11.656,7.3h0a13.793,13.793,0,0,0,12.982-7.886l5.625-11.9Z" transform="translate(-93.323 -280.567)"/><path class="g" d="M258.642,414.594c-3.44-1.569-5.625-9.32-8.113-10.071s-2.813,2-1.812,4.376,1.688,3,1,3.629-9.006-.817-12.132-2.439-5.252-3.435-6.631-2.028S232.7,412.5,232.7,412.5s-2.872-.4-3.619.752-.357,3.1,3.245,3.462a3.13,3.13,0,0,0-3.029,1.623c-.887,2.553,8.113,2.915,8.492,3.505.454.741-5.788-.8-5.82,1.011-.049,3.013,13.111,3.175,16.167,3.013a5.779,5.779,0,0,1,4.565,1.563Z" transform="translate(-148.469 -300.444)"/><path class="h" d="M296.045,418.792,296,427.555l-19.207-10.52L269,431.1l28.586,18.769a13.522,13.522,0,0,0,16.595-1.39h0a13.522,13.522,0,0,0,4.159-11.9l-3.5-23.037Z" transform="translate(-166.94 -304.642)"/><path class="i" d="M271.295,531.262H205.256s-.752-12.711,0-31.5h61.159Z" transform="translate(-137.522 -344.226)"/><path class="g" d="M262.919,299.127a22.744,22.744,0,0,1-.038,4.657c-.541,2.342-3.786,5.723-9.244,5.723s-8.7-3.381-9.249-5.723c-.444-1.931.389-4.489-.319-10.18-.151-1.228-.379-2.607-.709-4.154l10.277,3.17,10.277-3.17A40.409,40.409,0,0,0,262.919,299.127Z" transform="translate(-155.169 -247.672)"/><path class="j" d="M263.065,299.829c-8.865.882-16.368-4.327-18.672-5.95-.151-1.233-.379-2.613-.7-4.159l10.277,3.175,10.277-3.175a46.243,46.243,0,0,0-1.179,10.109Z" transform="translate(-155.32 -247.796)"/><path class="k" d="M226.629,233.842a4.912,4.912,0,0,0,.027,1.379c.833,5.55,2.229,12.327,5.052,16.411,2.937,4.251,11.31,1.65,17.309,1.082s7.156,2.5,10.391-2.358c2.466-3.7,2.748-9.417,4.116-14.8.319-1.255-.4-3.9,0-6.869.822-5.82-1.823-10.126-7.524-11.359-.26-.054-.773-6.886-1.752-4.776-1.439,3.083-7.156,1.45-10.537,1.747-2.78.249-3.408.773-6.058,1.623-.1.032-4.327,1.807-4.452,1.839-4.554,1.423-5.625,7.362-6.09,12.111Z" transform="translate(-147.471 -212.18)"/><path class="g" d="M263.262,260.3c-1.547,2.066-4.592.984-4.592.984s-.941,13.928-14.355,13.928-14.35-13.928-14.35-13.928-3.051,1.082-4.6-.984-1.125-6,1.693-6.053,3.824,4.992,3.824,4.992-.281-8.443-.5-11.132c0-.395,2.012-1.4,3.2-.038,1.661-2.375,4.419-2.84,5.95-3.045,2.618-.352.952,2.293.952,2.293s4.652-2.878,8.708-1.98c1.082.238-2.64,2.223-.8,1.9,4.116-.714,9.082.362,9.855.865-.216,2.7-.5,11.132-.5,11.132s1.011-5.041,3.83-4.992S264.788,258.237,263.262,260.3Z" transform="translate(-146.501 -227.261)"/><path class="l" d="M267.3,264.742s3.3-4.105,7.416-.725C274.71,264.017,272.211,267.868,267.3,264.742Z" transform="translate(-166.16 -235.383)"/><path class="m" d="M267.34,264.712s3.3-4.105,7.41-.725" transform="translate(-166.178 -235.369)"/><path class="n" d="M272.8,262.76a4.642,4.642,0,0,0-1.406.27,1.709,1.709,0,0,0,.276,2.937,4.949,4.949,0,0,0,1.374.038,1.709,1.709,0,0,0-.243-3.245Z" transform="translate(-167.714 -235.419)"/><path class="l" d="M241.78,264.047s4.273-3.175,7.378.633C249.158,264.68,245.685,267.952,241.78,264.047Z" transform="translate(-154.443 -235.44)"/><path class="o" d="M249.142,264.641s-2.569-3.656-7.362-.584" transform="translate(-154.443 -235.45)"/><path class="n" d="M249.337,264.46a1.715,1.715,0,0,0-.925-1.514,4.869,4.869,0,0,0-1.293-.119,1.7,1.7,0,0,0-.508,3.013,4.625,4.625,0,0,0,1.931.065,1.709,1.709,0,0,0,.8-1.444Z" transform="translate(-156.337 -235.447)"/><path class="k" d="M275.688,258.807c-.568-.233-1.26-1.174-1.839-1.563a6.978,6.978,0,0,0-2.494-1.082,4.372,4.372,0,0,0-4.376,1.715A15.648,15.648,0,0,1,275.688,258.807Z" transform="translate(-166.013 -232.348)"/><path class="k" d="M239.52,258.478c.584-.195,1.331-1.082,1.926-1.45a7.1,7.1,0,0,1,2.553-.957,4.337,4.337,0,0,1,4.268,1.974A15.686,15.686,0,0,0,239.52,258.478Z" transform="translate(-153.406 -232.327)"/><path class="p" d="M260.24,271.407c.341.86.644,1.731.9,2.618.211.741.606,1.785,0,2.434-.087.087.07.1.124.1a.6.6,0,0,0,.352-.13c.633-.649.33-1.6.119-2.364a28.922,28.922,0,0,0-.947-2.8c-.06-.135-.541.027-.541.141Z" transform="translate(-162.918 -239.3)"/><path class="p" d="M255.078,283.784c-.07.936,1.363,1.471,2.061,1.715a7.243,7.243,0,0,0,2.861.389,7.486,7.486,0,0,0,2.732-.692c.73-.346,1.547-.941,1.509-1.839,0-.07-.541,0-.541.141.032.849-.736,1.406-1.433,1.715a5.95,5.95,0,0,1-2.564.492,6.664,6.664,0,0,1-2.445-.541c-.622-.26-1.742-.725-1.677-1.547,0-.049-.514,0-.541.141Z" transform="translate(-160.531 -244.862)"/><path class="p" d="M228.953,267.758a10.58,10.58,0,0,1,1.352.8c.146.108.627-.108.411-.26a9.926,9.926,0,0,0-1.347-.8.416.416,0,0,0-.373.043c-.07.049-.157.162-.043.216Z" transform="translate(-148.529 -237.582)"/><path class="p" d="M292.5,268.251a4.176,4.176,0,0,1-1.8,1.623c-.081.038-.206.146-.13.243s.26.065.352,0a4.733,4.733,0,0,0,2.072-1.85c.065-.108-.06-.184-.151-.189a.373.373,0,0,0-.341.151Z" transform="translate(-176.832 -237.859)"/><path class="q" d="M440.01,441.3l-2.8,18.888-22.177-12.23a13.409,13.409,0,0,1-6.491-15.145L413.419,414l19.764,11.635-2.115,6.172-1.3,3.786Z" transform="translate(-230.804 -304.853)"/><path class="r" d="M495.705,378.848l2.769-19.234s-.871,41.4-.254,53.04a15.475,15.475,0,0,0,.541,2.38,122.377,122.377,0,0,1,2.32,21.328H433.026a121.779,121.779,0,0,1,2.32-21.328c.168-.8.357-1.6.541-2.38.119-.465.238-.974.346-1.514,1.017-4.814.66-17.66,1.2-24.692.773-10.185-.947-29.208-.947-29.208l4.051,23.616-23.394-13.36,7.5-31.707a24.8,24.8,0,0,1,11.754-15.015,41.613,41.613,0,0,1,5.409-2,148.434,148.434,0,0,1,15.291-4.538l.687-.384.233-.13,9.076-1.374,9.13,2.164.741-.178c1.233-.3,4.257,1.028,5.582,1.368,2.023.514,4.035,1.082,6,1.785,3.094,1.082,6.069,2.586,9.082,3.894A24.773,24.773,0,0,1,509.385,336.4l6.907,28.538.709,2.569-4.771,2.813Z" transform="translate(-234.952 -258.185)"/><path class="d" d="M465.6,357.08" transform="translate(-257.2 -278.721)"/><path class="d" d="M460.74,422.75" transform="translate(-254.969 -308.87)"/><path class="s" d="M513.587,543.878l-76.467-.362s3.586-13.117,5.917-24.806l66.53.481C511.9,530.88,513.587,543.878,513.587,543.878Z" transform="translate(-244.125 -352.926)"/><path class="t" d="M486.34,211.836l7.324,14.918,13.393-15.448-2-10.255Z" transform="translate(-223.25 -92.32)"/><path class="h" d="M583.164,399.951l23.291-30.831,11.516,11.9-19.548,37.192a11.386,11.386,0,0,1-15.583,4.668h0a11.359,11.359,0,0,1-4.057-16.146Z" transform="translate(-308.32 -284.249)"/><path class="g" d="M510.616,300.33c.233,1.8.487,3.024.487,3.024s-6.193,4.327-10.277,4.127-8.871-4.625-8.871-4.625a81.335,81.335,0,0,0,0-8.979,17.573,17.573,0,0,0-.395-2.813l19.516-2.634C509.81,291.821,510.189,297.047,510.616,300.33Z" transform="translate(-269.118 -247.204)"/><path class="u" d="M480.254,254.337c-3.435,0-8.438-11.9-9.439-18.931s4.441-6.383,4.441-6.383-4.381-8.113,3.813-12.63,13.36-3.245,20.127-.687,7.167,3.932,9.763,3.565c.909-.13-3.061,2.5-3.061,2.5s6.3.687,4.992,8.817a154.763,154.763,0,0,1-4.809,21.138c-1.747,5.566-7.978,4.868-7.978,4.868Z" transform="translate(-259.538 -212.753)"/><path class="j" d="M510.211,299.59c-8.871.882-16.048-4.23-18.353-5.847-.157-1.233-.384-2.607-.709-4.16l10.277,3.175,9.2-3.218A36,36,0,0,0,510.211,299.59Z" transform="translate(-268.93 -247.713)"/><path class="g" d="M478.629,249.36c.941,2.51.26,13.247.26,13.247s-1.6-5.836-4.008-5.7-3.1,4.408-1.926,6.491,4.365,1.358,4.949.817c0,0,2.039,14.025,14.469,14.025s14.6-13.647,14.6-13.647a3.076,3.076,0,0,0,4.17-1.623c1.547-2.943-.541-5.771-2.293-5.349s-2.818,4.17-2.818,4.17l.1-10.131a16.278,16.278,0,0,0-6.664-1.125C495.245,250.582,482.756,252.243,478.629,249.36Z" transform="translate(-260.32 -229.267)"/><path class="u" d="M496.272,255.829l-8.562,1.85s2.207-2.8,4.408-3.2C492.118,254.476,494.071,253.676,496.272,255.829Z" transform="translate(-267.351 -231.549)"/><path class="u" d="M516.6,255.862l8.059,2.4s-1.5-3.153-4.327-3.705A4.312,4.312,0,0,0,516.6,255.862Z" transform="translate(-280.614 -231.636)"/><path class="l" d="M491.14,265.949s4.273-3.17,7.378.633C498.518,266.6,495.045,269.87,491.14,265.949Z" transform="translate(-268.925 -236.314)"/><path class="l" d="M515.67,266.562s3.3-4.105,7.41-.725C523.08,265.853,520.576,269.693,515.67,266.562Z" transform="translate(-280.187 -236.218)"/><path class="m" d="M515.7,266.54s3.3-4.105,7.41-.73" transform="translate(-280.201 -236.207)"/><path class="o" d="M498.5,266.566s-2.569-3.656-7.362-.6" transform="translate(-268.925 -236.331)"/><path class="n" d="M521.2,264.58a4.479,4.479,0,0,0-1.4.276,1.693,1.693,0,0,0-.714,1.385,1.715,1.715,0,0,0,.984,1.547,4.785,4.785,0,0,0,1.379.038,1.709,1.709,0,0,0-.249-3.245Z" transform="translate(-281.757 -236.254)"/><path class="n" d="M498.7,266.39a1.715,1.715,0,0,0-.925-1.514,4.867,4.867,0,0,0-1.3-.119,1.709,1.709,0,0,0-.5,3.013,4.62,4.62,0,0,0,1.931.065,1.72,1.72,0,0,0,.8-1.444Z" transform="translate(-270.823 -236.333)"/><path class="v" d="M631.083,351.545a5.69,5.69,0,0,0,1.623-5.279,14.8,14.8,0,0,1-.222-5.631A59.231,59.231,0,0,1,634.4,329.3a3.068,3.068,0,0,1,.335-.892c.822-1.255,1.974,0,2.515.822a7.254,7.254,0,0,1,.941,4.327c-.06,1.32-.541,2.65-.568,3.943,1.179-2.012,1.823-4.587,2.8-6.74,1.623-3.6,3.126-7.724,7.032-9.39a1.352,1.352,0,0,1,1.185-.087.99.99,0,0,1,.389.449c.779,1.585-1.19,3.57-1.991,4.83a42.422,42.422,0,0,0-1.985,3.84s-2.023,4.024-1.758,4.944c-.162-.541,1.812-3.007,2.164-3.559a38.116,38.116,0,0,1,2.661-3.581c1.244-1.471,4.527-5.8,6.81-4.208,1.78,1.239-2.077,4.549-2.8,5.463a82.461,82.461,0,0,0-5.236,7.362c.081-.573,1.926-1.85,2.375-2.283l2.515-2.412,2.915-2.791c.86-.822,2.234-1.85,3.321-.73,1.222,1.25-1.239,3.283-2.018,4.041a64.826,64.826,0,0,0-4.738,5.014,3.894,3.894,0,0,0-.974,1.736c2.326-2.137,4.376-5.88,7.659-6.415a1.352,1.352,0,0,1,1.547,1.082c.173.865-.579,1.4-1.152,1.926-1.39,1.277-2.759,3.364-4.181,4.6a30.308,30.308,0,0,0-4.068,4.744,26.706,26.706,0,0,0-3.245,4.7,17.509,17.509,0,0,1-4.041,4.132s-2.7,1.45-2.791,2.7a15.32,15.32,0,0,0-.173,2.293s-.308,1-.876,1.082c0,0-9.2-4.868-9.444-6.566a3.721,3.721,0,0,1,1.552-2.131Z" transform="translate(-332.461 -262.244)"/><path class="p" d="M510.266,269.9l.227,3.5a7.61,7.61,0,0,1,.032,1.682c-.07.465-.352,1.179-.919,1.185-.162,0-.568.243-.222.238a1.65,1.65,0,0,0,1.271-.59,2.434,2.434,0,0,0,.422-1.688c-.054-1.487-.189-2.98-.287-4.468,0-.119-.541-.027-.541.141Z" transform="translate(-277.239 -238.609)"/><path class="p" d="M502.638,286.462a4.728,4.728,0,0,0,4.273,2.667,3.786,3.786,0,0,0,2.748-.838,4.868,4.868,0,0,0,1.39-2.315c.065-.233-.465-.168-.541.043a4.446,4.446,0,0,1-1.174,2.023,3.148,3.148,0,0,1-2.591.7,4.268,4.268,0,0,1-3.6-2.423c-.086-.222-.606-.07-.541.141Z" transform="translate(-274.186 -246.009)"/><path class="p" d="M477.33,270.761a4.2,4.2,0,0,0,1.082,1.136.287.287,0,0,0,.178.032.422.422,0,0,0,.195-.07c.087-.065.141-.168.038-.243l-.151-.114-.119-.1c-.092-.081-.184-.173-.27-.265a3.753,3.753,0,0,1-.46-.59.216.216,0,0,0-.146-.065.449.449,0,0,0-.206.038c-.092.043-.2.135-.13.243Z" transform="translate(-262.58 -238.962)"/><path class="p" d="M538.163,272.632l1.222-1.536c.076-.1-.065-.146-.141-.146a.487.487,0,0,0-.346.141l-1.217,1.542c-.076.1.065.141.135.141A.438.438,0,0,0,538.163,272.632Z" transform="translate(-290.283 -239.179)"/><path class="s" d="M457.567,388.8a102.77,102.77,0,0,0-1.807,18.78q0,2.7.124,5.409c0,.081.541,0,.541-.135a102.634,102.634,0,0,1,.8-18.764c.243-1.807.541-3.6.876-5.409,0-.1-.492-.027-.514.1Z" transform="translate(-252.682 -293.206)"/><path class="s" d="M562.16,385.244q.541,10.023,1.823,20.013.368,2.818.79,5.62c0,.114.541,0,.541-.141q-1.493-9.931-2.245-19.954c-.141-1.888-.26-3.786-.362-5.658,0-.1-.541,0-.541.141Z" transform="translate(-301.531 -291.577)"/><rect class="f" width="41.438" height="39.902" transform="translate(145.954 150.899)"/><rect class="w" width="46.339" height="6.94" transform="translate(142.535 150.899)"/><path class="x" d="M270.858,219.378h34.19l-6.7-100.888H273.357l-9.947,24.73" transform="translate(-120.902 -54.416)"/><path class="l" d="M330.95,330.68V457.423H304.938l5.5-62-16.259-8.735,8.449-28.386c2.077-8.606,8.287-18.039,16.389-21.636l5.322-3.089Z" transform="translate(-178.5 -266.601)"/><path class="l" d="M353.722,330.68V378.1c-3.121-7.491-9.942-25.5-9.942-25.5l6.274-10.694-2.942-8.308Z" transform="translate(-201.272 -266.601)"/><path class="l" d="M406.78,331.65V458.409h26.012l-5.5-62.025,16.259-8.73-8.487-27.726c-2.072-8.606-6.145-18.515-14.247-22.085l-7.427-3.3Z" transform="translate(-230.195 -267.046)"/><path class="l" d="M408.38,330.68V378.1c3.121-7.491,9.942-25.5,9.942-25.5L412.047,341.9l2.943-8.308Z" transform="translate(-230.93 -266.601)"/><line class="y" x1="4.69" y1="35.521" transform="translate(193.022 91.189)"/><path class="g" d="M355.329,395.22c-11.775.7-18.158,5.95-18.72,12.89s16.135-2.061,16.135-2.061l6.523-1.212" transform="translate(-197.973 -296.231)"/><path class="l" d="M416.125,410.6,366.081,392.83l-7.751,12.982,48.34,26.055a11.683,11.683,0,0,0,16.633-6.22h0a11.683,11.683,0,0,0-7.178-15.042Z" transform="translate(-207.952 -295.134)"/><line class="y" y1="35.521" x2="4.69" transform="translate(132.193 91.189)"/><path class="g" d="M393.68,396.764c7.973-3.846,20.284-.276,20.322,8.422-6.907-1.574-14.7,2.542-14.7,2.542" transform="translate(-224.181 -296.234)"/><path class="l" d="M298.67,410.6l50.044-17.774,7.751,12.982-48.34,26.055a11.683,11.683,0,0,1-16.633-6.22h0A11.683,11.683,0,0,1,298.67,410.6Z" transform="translate(-176.943 -295.134)"/><path class="z" d="M384.673,270.771a20.209,20.209,0,0,1,0,5.268c-.216,2.045-1.45,4.251-3.619,4.754-1.6.368-3.786-.114-5.377-.433a33.307,33.307,0,0,1-5.268-1.574c-2.629-.99-5.36-2.51-8.2-2.764-4.679-.406-12.581,8.292-17.363,5.95-.178-.087-.357-.178-.541-.27s-.335-.178-.492-.276a14.313,14.313,0,0,1-1.753-1.185,11.819,11.819,0,0,1-3.516-4.219l-.709-2.066a4.614,4.614,0,0,1-.065-2.834l.844-2.845s-2.369-6.35-1.9-11.321,6.107-12.635,8.389-19.077c2.7-7.573,14.063-10.12,17.812-6.091,11.4-4.987,17.363,9.1,18.336,13.885s7.573,10.569,7.47,15S384.068,266.963,384.673,270.771Z" transform="translate(-198.001 -220.328)"/><path class="v" d="M387.16,319.2l-12.711,12.89L362.16,319.2l3.846-1.623a2.288,2.288,0,0,0,1.623-1.8,26.336,26.336,0,0,0,.119-7.151c-.054-.541-.114-1.082-.184-1.623-.043-.433-.1-.882-.168-1.331l1.52.07,12.57.124c-.465,1.125.395,7.919.73,10,.151.957,2.093,1.893,2.093,1.893Z" transform="translate(-209.71 -255.123)"/><path class="j" d="M386.433,316.125c-8.871.876-11.824-1.515-14.134-3.132-.151-1.228-.265-3.451-.59-5l7.778,2.342,6.983-2.548C385.514,312.231,386.379,313.913,386.433,316.125Z" transform="translate(-214.095 -256.092)"/><path class="g" d="M387.063,278.983a2.661,2.661,0,0,1-3.424,0s-2.531,12.852-13.647,12.852-13.647-12.852-13.647-12.852a2.667,2.667,0,0,1-3.429,0c-1.736-1.455-2.061-6.145.238-6.491s3.889,3.7,3.889,3.7-.168-2.164-.541-4.787a.855.855,0,0,0-.043-.325c7.648.114,19.342-9.46,19.342-9.46s4.5,2.753,7.129,3.067c.07.514.13,1.082.168,1.725a89.1,89.1,0,0,1-.184,9.779s1.6-4.03,3.894-3.7S388.8,277.512,387.063,278.983Z" transform="translate(-204.826 -234.895)"/><path class="u" d="M376.457,273.79a2.574,2.574,0,0,1,1.12,1.255,18.81,18.81,0,0,0-3.126-.319" transform="translate(-215.353 -240.482)"/><path class="aa" d="M374.384,280.672a1.082,1.082,0,1,1-1.082-1.082A1.082,1.082,0,0,1,374.384,280.672Z" transform="translate(-214.329 -243.145)"/><path class="aa" d="M399.354,280.672a1.082,1.082,0,1,1-1.082-1.082A1.082,1.082,0,0,1,399.354,280.672Z" transform="translate(-225.793 -243.145)"/><path class="l" d="M392.82,280.542s3.3-4.105,7.41-.725C400.23,279.844,397.731,283.673,392.82,280.542Z" transform="translate(-223.786 -242.636)"/><path class="m" d="M392.85,280.52s3.3-4.105,7.416-.73" transform="translate(-223.8 -242.626)"/><path class="n" d="M398.32,278.56a4.483,4.483,0,0,0-1.406.276,1.7,1.7,0,0,0,.27,2.932,4.793,4.793,0,0,0,1.379.038,1.709,1.709,0,0,0-.243-3.245Z" transform="translate(-225.338 -242.672)"/><path class="l" d="M367.3,279.849s4.273-3.17,7.378.633C374.678,280.482,371.205,283.754,367.3,279.849Z" transform="translate(-212.07 -242.695)"/><path class="o" d="M374.662,280.461s-2.569-3.656-7.362-.584" transform="translate(-212.07 -242.713)"/><path class="n" d="M374.862,280.263a1.715,1.715,0,0,0-.925-1.514,4.619,4.619,0,0,0-1.293-.114,1.7,1.7,0,0,0-.508,3.007,4.625,4.625,0,0,0,1.931.065,1.72,1.72,0,0,0,.8-1.444Z" transform="translate(-213.968 -242.704)"/><path class="ab" d="M351.509,338.359q-2.077,3.521-4.116,7.075-1.011,1.758-2.012,3.527c-.325.579-.654,1.158-.979,1.742a13.559,13.559,0,0,0-.892,1.715,2.942,2.942,0,0,0-.216,1.693,3.435,3.435,0,0,0,.73,1.379,21.151,21.151,0,0,0,2.656,2.645c.465.4.947.784,1.439,1.152.173.135.26.146.108.33a2.52,2.52,0,0,1-.346.325l-.784.736-2.986,2.8c-.373.352-1.033.8-1.049,1.368a1.445,1.445,0,0,0,.384.844c.216.308.438.611.66.919l2.7,3.786c.092.135.568-.076.541-.141l-2.1-2.937-1.082-1.509c-.292-.406-.757-.892-.481-1.423a5.615,5.615,0,0,1,1.2-1.228l1.325-1.239,2.7-2.531s.038-.054,0-.076a27.712,27.712,0,0,1-3.608-3.148,6.188,6.188,0,0,1-1.347-1.785,2.807,2.807,0,0,1,.151-2.207,24.447,24.447,0,0,1,1.185-2.191q.633-1.125,1.276-2.256,1.249-2.2,2.515-4.392,1.466-2.531,2.953-5.057c.043-.07-.438-.043-.514.092Z" transform="translate(-200.941 -270.072)"/><path class="ab" d="M354.525,455.718a32.769,32.769,0,0,0,1.423,5.155l1.655,5.29c.065.2.584.054.541-.141l-1.655-5.29a33.387,33.387,0,0,1-1.428-5.155c-.027-.195-.541-.07-.541.141Z" transform="translate(-206.203 -323.897)"/><path class="ab" d="M413.172,335.172l5.041,7.2c.822,1.174,1.677,2.331,2.466,3.527a1.99,1.99,0,0,1,.389,1.871,5.235,5.235,0,0,1-1.136,1.466q-1.444,1.542-2.823,3.143-.7.811-1.379,1.623a2.586,2.586,0,0,0-.763,1.444,2.958,2.958,0,0,0,.606,1.623,9.378,9.378,0,0,0,1.082,1.4,9.638,9.638,0,0,0,2.7,1.98,3.245,3.245,0,0,1,1.358.963c.422.654,0,1.352-.368,1.926l-2.58,4.23c-.157.254.379.281.5.076l2.337-3.83a4.447,4.447,0,0,0,.811-1.7,1.471,1.471,0,0,0-.487-1.239,4.744,4.744,0,0,0-1.239-.779,9.851,9.851,0,0,1-1.558-.968,8.693,8.693,0,0,1-2.337-2.7,2.023,2.023,0,0,1-.3-1.006,1.753,1.753,0,0,1,.454-.968c.427-.541.892-1.082,1.347-1.623.93-1.082,1.877-2.164,2.851-3.2.768-.828,1.85-1.758,1.493-3.013a5.825,5.825,0,0,0-.952-1.623l-1.271-1.812-5.771-8.243c-.146-.206-.638,0-.476.238Z" transform="translate(-233.115 -268.513)"/><path class="ab" d="M413.083,451.374l-3.294,9.666c-.027.076.471.027.514-.1l3.294-9.671C413.624,451.2,413.126,451.245,413.083,451.374Z" transform="translate(-231.576 -321.949)"/><path class="ab" d="M377.422,427.349c4.295-2.239,8.654-4.414,12.819-6.842,1.19-.692,2.358-1.4,3.51-2.164.3-.195-.141-.352-.341-.216-4.008,2.6-8.265,4.771-12.495,6.983l-3.716,1.942c-.319.162-.032.416.222.281Z" transform="translate(-216.55 -306.725)"/><path class="u" d="M393.16,275.112c.222-.541,3.4-.979,3.884-.974.741,0,4.181.341,4.527.7,0,0-2.84-1.758-5.009-1.623A3.8,3.8,0,0,0,393.16,275.112Z" transform="translate(-223.942 -240.214)"/><path class="p" d="M386.042,284.805a6.3,6.3,0,0,0,1.325,2.7,5.888,5.888,0,0,0,.5.541,2.916,2.916,0,0,1,.3.27c.108.119,0,.162-.124.249l-1.471,1.287c-.087.076-.049.157.054.189a.422.422,0,0,0,.368-.1l1.5-1.314c.146-.124.368-.27.206-.471s-.427-.373-.611-.573a6.139,6.139,0,0,1-1.536-2.921c-.038-.184-.541-.054-.541.141Z" transform="translate(-220.664 -245.434)"/><path class="p" d="M413.511,288.968l.9-.936a.162.162,0,0,0-.07-.265.362.362,0,0,0-.368.1l-.9.936a.162.162,0,0,0,.07.265.362.362,0,0,0,.368-.1Z" transform="translate(-233.065 -246.892)"/><path class="p" d="M355.528,287.519a3.084,3.084,0,0,0,.952.99.417.417,0,0,0,.341,0,.352.352,0,0,0,.141-.092s.038-.07,0-.092a2.964,2.964,0,0,1-.865-.855v.027l-.07-.108c-.049-.087-.206-.059-.287-.038a.669.669,0,0,0-.178.081s-.076.065-.054.1Z" transform="translate(-206.654 -246.699)"/><path class="p" d="M382.694,303.818a5.09,5.09,0,0,0,4.132-.081c.07-.032.216-.108.146-.2s-.276-.038-.346,0a4.327,4.327,0,0,1-3.516.038.438.438,0,0,0-.368.049C382.677,303.667,382.575,303.77,382.694,303.818Z" transform="translate(-219.112 -254.116)"/><path class="p" d="M383.455,308.026l2.256.157a.438.438,0,0,0,.346-.141c.065-.108-.06-.146-.141-.151l-2.256-.151a.438.438,0,0,0-.346.141C383.25,307.988,383.374,308.021,383.455,308.026Z" transform="translate(-219.414 -256.068)"/></g></g></svg>