<svg xmlns="http://www.w3.org/2000/svg" xmlns:xlink="http://www.w3.org/1999/xlink" width="425" height="347" viewBox="0 0 425 347"><defs><style>.a,.e{fill:#fff;}.a{stroke:#707070;}.b{clip-path:url(#a);}.c{fill:#e17b5e;}.d{fill:#150a0a;}.f{fill:#49a7b7;}.g,.h,.n,.x,.y{fill:none;stroke-miterlimit:10;}.g,.h,.x,.y{stroke:#130a0b;stroke-linecap:round;}.g,.h{stroke-width:0.468px;}.h,.y{stroke-linejoin:round;}.i,.v{fill:#040506;}.j{fill:#7bc4d6;}.k{fill:#5a89c6;}.l{fill:#51b9c0;}.m{fill:#257f89;}.n{stroke:#150a0a;}.o{fill:#5183c3;}.p{fill:#f5a88d;}.q{fill:#759dd3;}.r{fill:#f5a78d;}.s{fill:#140a0a;}.t{fill:#2b6fb7;}.u{fill:#164475;}.v{opacity:0;}.w{fill:#33699a;}.x,.y{stroke-width:0.5px;}.z{fill:#e5ecef;}.aa{fill:#132226;}</style><clipPath id="a"><rect class="a" width="425" height="347" transform="translate(320 585.761)"/></clipPath></defs><g class="b" transform="translate(-320 -585.761)"><g transform="translate(320 585.881)"><g transform="translate(280.508 34.068)"><path class="c" d="M538.671,218.45l-2.276,30.8s-16.872,1.326-18.757,2.8l-1.868,21.9,55.161-1.046,3.33-20.857s-11.427-1.765-17-1.924l-1.932-30.591Z" transform="translate(-478.718 -154.631)"/><path class="c" d="M549.589,152.717s-20.761-6.668-24.81,19.34c0,0-1.206,9.183-.543,15.842a4.3,4.3,0,0,0-1.373-2.132c-2.18-1.988-4.775-.4-5.917,1.781-2.284,4.36,2.3,9.87,5.909,11.938a6.8,6.8,0,0,0,2.483.9,16.736,16.736,0,0,1,2.18.08s3.713,11.363,11.147,12.9c0,0,10.381,4.591,20.546-.767,0,0,6.667-6.34,8.3-11.8,0,0,4.152,4.368,8.959-3.282,1.565-2.483,4.24-7.594,1.669-10.181a4.8,4.8,0,0,0-3.122-1.326c-.99-.008-2.97.615-3.346,1.669,0,0,4.591-12.68,2.4-20.434C574.071,167.258,570.9,150.1,549.589,152.717Z" transform="translate(-478.831 -141.232)"/><g transform="translate(64.567 45.02)"><path class="d" d="M552.657,195.165c-.455,2.116-.99,4.208-1.621,6.276-.152.5-.3.99-.471,1.477a2.861,2.861,0,0,0-.319,1.341c.072.351.383.527.679.671a14.155,14.155,0,0,0,1.589.607.652.652,0,0,0,.543-.08c.08-.056.256-.224.072-.287a15.05,15.05,0,0,1-1.414-.527c-.511-.224-.79-.423-.647-1.022.224-.958.623-1.892.9-2.835.559-1.884,1.046-3.8,1.453-5.725.064-.271-.711-.152-.767.1Z" transform="translate(-550.228 -194.907)"/></g><path class="e" d="M527.44,197.18l4.911,6.492q5.522-1.174,11.051-2.34c.751-.16,1.5-.319,2.26-.479a6.573,6.573,0,0,1,2.835-.176c.791.144,1.581.3,2.372.439,2.26.415,4.52.838,6.779,1.254q2.923.539,5.853,1.086c.343.064,2.252.687,2.547.471l6.54-6.827-.263,2.012-4.8,5.709c.08,1.413.359,2.795.327,4.208a15.668,15.668,0,0,1-1.629,6.787c-.934,1.98-2.156,4.16-4.032,5.4,0,0-5.9,4.424-13.112,4.671,0,0-7.706-.655-11.554-3.689a19.355,19.355,0,0,1-2.611-2.244c-1.861-2.06-2.483-4.591-3.1-7.211a23.744,23.744,0,0,1-.359-7.514l-3.45-5.047Z" transform="translate(-481.069 -150.329)"/><path class="f" d="M579.685,438.99h-84.57s-9.726,104.924-10.125,120.447h42.089L538.33,487.02l5.494,72.417h41.035C584.508,545.575,581.777,442.591,579.685,438.99Z" transform="translate(-472.516 -199.068)"/><path class="e" d="M532.46,191.548s6.995-5.19,12.074,1.038C544.534,192.586,538.848,197.936,532.46,191.548Z" transform="translate(-482.081 -148.802)"/><path class="e" d="M559.66,192.628s5.406-6.723,12.129-1.19C571.789,191.439,567.693,197.747,559.66,192.628Z" transform="translate(-487.562 -148.748)"/><path class="g" d="M559.69,192.6s5.406-6.723,12.129-1.19" transform="translate(-487.568 -148.742)"/><path class="h" d="M544.509,192.5s-4.208-5.981-12.049-.958" transform="translate(-482.081 -148.805)"/><path class="i" d="M566.875,189.34a7.544,7.544,0,0,0-2.3.447,2.791,2.791,0,0,0,.447,4.8,8.015,8.015,0,0,0,2.252.064,2.794,2.794,0,0,0-.4-5.31Z" transform="translate(-488.317 -148.765)"/><path class="i" d="M542.654,192.215a2.78,2.78,0,0,0-1.517-2.475,7.742,7.742,0,0,0-2.116-.192,2.79,2.79,0,0,0-.831,4.927,7.51,7.51,0,0,0,3.162.1A2.828,2.828,0,0,0,542.654,192.215Z" transform="translate(-483.004 -148.805)"/><path class="d" d="M529.42,180.839s13.056-2.539,13.407-2.891-2.124-1.669-2.316-1.757C536.263,174.244,531.863,177.493,529.42,180.839Z" transform="translate(-481.468 -145.998)"/><path class="d" d="M559.82,177.856s12.688,3.673,12.7,3.681a21.571,21.571,0,0,1-1.158-2.1C568.572,175.812,563.381,174.726,559.82,177.856Z" transform="translate(-487.594 -146.081)"/><path class="d" d="M563.879,160.927s-27.341,3.857-35.142,1.054c0,0-3.505,5.693-3.33,8.855,0,0-1.142,10.6.439,18.406a25.823,25.823,0,0,1-5.518-16.561,40.215,40.215,0,0,1,1.581-12.449c.016-.04-3.1-2.651-3.306-2.883a10.1,10.1,0,0,1-2.97-7.418,17.722,17.722,0,0,1,1.134-4.216,9.231,9.231,0,0,1,1.182-2.236,11.926,11.926,0,0,1,6.5-4.368s7.45-2.8,14.724,3.857a19.584,19.584,0,0,0,2.587-1,30.1,30.1,0,0,1,3-.886,17.776,17.776,0,0,1,6.156-.5c2.515.287,7.33,1.876,5.214,5.278-.1.152-.2.3-.3.431,0,0,10.956.7,16.042,7.187,0,0,6.747,6.923,4.12,18.669,0,0-2.891,11.834-7.362,17.264,0,0,1.493-13.758.615-15.779a13.492,13.492,0,0,1-4.647-5.606C564.582,168.026,563.615,166.8,563.879,160.927Z" transform="translate(-478.685 -138.527)"/><path class="j" d="M558.3,259.2l-13.559,16.825-32.06-16.968-21.248,5.3s-13.942,3-19.2,16.21c0,0-4.791,5.957-1.988,39.031l29.824-5.063-1.5,22.837-9.582,49.484s-4.432,15.563-4.432,23.859c0,0,85.9,1.908,97.809-2.068,0,0,1.517-17.671,0-30.064,0,0-1.972-53.851-1.4-66.923l24.315-.383s-3.154-23.835-10.987-35.526c0,0-9.694-10.8-16.353-12.9A151.14,151.14,0,0,0,558.3,259.2" transform="translate(-469.368 -162.813)"/><path class="c" d="M614.638,324.68l5.781,37.977s1.757,13.495-11.922,14.2c0,0-18.23-1.054-31.9-3.33,0,0-38.911-6.835-40.317-7.538l58.5-8.241-.064-6.149s-.782-10.5-.263-26.718Z" transform="translate(-482.851 -176.035)"/><path class="c" d="M556.088,352.078,559.418,364l-57.492,22.734a11.7,11.7,0,0,1-11.395-1.581,21.759,21.759,0,0,1-6.484-8.065s-11.395-36.987-9.462-44.173l26.494-4.384,4.176,32.076C505.255,360.614,533.65,354.705,556.088,352.078Z" transform="translate(-470.375 -176.811)"/><path class="e" d="M516.015,349.139s-2.1-6.308-5.606-8.592l-7.011-4.735a1.869,1.869,0,0,0-2.276,0c-1.23.878-.351,2.451-.351,2.451l2.1,1.405-5.262-1.581s-2.627-1.23-3.154.7a2.433,2.433,0,0,0,1.23,2.8s-.878,2.8.176,3.857c0,0,7.187,2.979,8.768,4.032l-6.308-1.405a1.423,1.423,0,0,0-2.1.527c-.7,1.405,1.757,2.627,1.757,2.627l9.878,4.032L509.2,362.1l10.868-2.22Z" transform="translate(-474.403 -178.2)"/><path class="e" d="M575.09,357.321l2.451,10.173s25.057-3.33,25.065-3.33c.056-.008-.767-2.124-.823-2.236a14.269,14.269,0,0,0-3.585-4.623,13.515,13.515,0,0,0-8.424-3.505,32.735,32.735,0,0,0-7.027,1.022C582,355.006,574.994,356.922,575.09,357.321Z" transform="translate(-490.67 -181.903)"/><g transform="translate(30.232 135.493)"><g transform="translate(0 0)"><path class="k" d="M507.23,308.465a31.292,31.292,0,0,0,2.491,8.44c.567,1.341,1.166,2.667,1.717,4.008a1.235,1.235,0,0,1,.144.439c-.016.263-.359.383-.551.479-.343.176-.679.359-1.022.535-.735.391-1.477.775-2.212,1.166-.16.08-.064.12.04.152a.942.942,0,0,0,.543-.144c.735-.391,1.477-.775,2.212-1.166.4-.208.8-.415,1.19-.623.192-.1.463-.216.543-.439.1-.279-.16-.687-.264-.934-.136-.327-.279-.655-.415-.982-.32-.735-.639-1.469-.95-2.212a32.849,32.849,0,0,1-2.7-8.927c-.008-.128-.79.016-.767.208Z" transform="translate(-507.229 -308.209)"/></g></g><g transform="translate(100.018 132.508)"><g transform="translate(0 0)"><path class="l" d="M595.308,304.75c-.311,4.04-.591,8.1-.679,12.145a3.6,3.6,0,0,0,.319,1.876,2.15,2.15,0,0,0,1.773.926c2.044.271,4.088.527,6.133.783a.629.629,0,0,0,.543-.144c.088-.112.112-.263-.08-.287-1.916-.248-3.825-.487-5.741-.735-.846-.112-1.7-.176-2.02-1.1a6.012,6.012,0,0,1-.136-2.14q.216-5.713.655-11.419c.032-.319-.743-.176-.767.1Z" transform="translate(-594.625 -304.472)"/></g></g><g transform="translate(65.032 265.103)"><path class="m" d="M551.641,492.5q-.024-5.522-.04-11.051a4,4,0,0,1,.391-2.539,8.464,8.464,0,0,1,1.956-1.477c1.541-1.038,3.074-2.084,4.615-3.122l5.27-3.569c.144-.1.064-.16-.056-.2a.823.823,0,0,0-.543.144L553.6,477.2a16.827,16.827,0,0,0-2,1.421,2.286,2.286,0,0,0-.767,1.789c-.04,1.924.008,3.849.016,5.773q.012,3.258.024,6.516c.008.152.775.032.775-.208Z" transform="translate(-550.81 -470.526)"/></g><g transform="translate(43.145 50.731)"><path class="d" d="M523.416,202.459a5.89,5.89,0,0,0,2.715,2.515.482.482,0,0,0,.551-.04c.12-.1.208-.327.032-.423a5.475,5.475,0,0,1-2.531-2.252.382.382,0,0,0-.463-.184c-.128.032-.383.192-.3.383Z" transform="translate(-523.401 -202.059)"/></g><g transform="translate(91.289 50.95)"><path class="d" d="M586.365,202.554a6,6,0,0,1-2.6,3.649c-.128.08-.088.168.048.176a.942.942,0,0,0,.543-.144,6.284,6.284,0,0,0,2.763-3.809c.04-.184-.711-.072-.759.128Z" transform="translate(-583.693 -202.333)"/></g><line class="n" y1="0.064" x2="5.749" transform="translate(64.273 43.194)"/></g><g transform="translate(0 41.499)"><path class="o" d="M230.17,462.894s-.7-15.427-8.065-27.692l-77.822-2.451s-3.857,41.019-4.559,53.284l-.663,72.145h38.775l3.961-74.6,11.778,74.6h42.265Z" transform="translate(-122.306 -205.241)"/><path class="d" d="M163.776,181.032s8.648,49.779-14.956,77.359l59.361,3.034s11.451-51.208,7.482-82.765" transform="translate(-124.272 -154.044)"/><path class="p" d="M181.969,220.55l-.934,32.252s-16.114,3.082-18,4.56l-3.977,18.693,55.392-3.274,3.034-17.064s-10.436-2.755-16.01-2.923l-2.867-31.166Z" transform="translate(-126.336 -162.484)"/><path class="q" d="M159.108,264.423l13.559,16.825,34.7-17.527,16.944,6.2s10.636,1.405,15.89,14.6c0,0,4.791,5.957,1.988,39.031l-31.437-2.923,2.451,20.8-.12,9.111s13.559,47.791,13.559,56.087c0,0-78.062,3.274-89.976-.7,0,0,4.208-45.81,5.725-58.2,0,0-7.242-14.373-5.957-30.846l-17.759.351s3.154-23.835,10.987-35.526c0,0,5.142-8.879,11.8-10.987a95.433,95.433,0,0,1,17.639-6.3" transform="translate(-118.199 -171.183)"/><path class="r" d="M192.893,154.827s-20.761-6.668-24.81,19.34c0,0-1.206,9.183-.543,15.842a4.3,4.3,0,0,0-1.373-2.132c-2.18-1.988-4.775-.4-5.917,1.781-1.733,3.314.655,6.843,2.8,9.319a12.336,12.336,0,0,0,3.1,2.619,7.933,7.933,0,0,0,2.164.87,15.676,15.676,0,0,0,2.5.112s3.713,11.363,11.147,12.9c0,0,10.381,4.591,20.546-.767,0,0,6.668-6.34,8.3-11.8,0,0,4.152,4.368,8.959-3.282,1.565-2.483,4.24-7.594,1.669-10.181a4.8,4.8,0,0,0-3.122-1.326c-.99-.008-2.97.615-3.346,1.669,0,0,4.591-12.68,2.4-20.434C217.375,169.36,214.2,152.2,192.893,154.827Z" transform="translate(-126.455 -149.087)"/><g transform="translate(62.559 40.44)"><path class="s" d="M196.444,198.759c-.024,1.908-.04,3.817.016,5.733a9.156,9.156,0,0,0,.064,1.326,1.213,1.213,0,0,0,.583.783,7.937,7.937,0,0,0,2.388,1.07c.264.072.91-.319.463-.439a7.3,7.3,0,0,1-2.188-.982,1.183,1.183,0,0,1-.511-1.11c-.016-.4-.032-.8-.04-1.206-.048-1.757-.024-3.513-.008-5.27.016-.327-.759-.176-.767.1Z" transform="translate(-196.422 -198.477)"/></g><path class="e" d="M171.29,199.7l4.472,6.18q5.522-1.174,11.051-2.34c.751-.16,1.5-.319,2.26-.479a6.573,6.573,0,0,1,2.835-.176c.791.144,1.581.3,2.372.439,2.26.415,4.52.838,6.779,1.254q2.923.539,5.845,1.086c.343.064,2.252.687,2.547.471.008-.008,7.913-5.821,7.913-5.821l-1.389,2.619-5.039,4.1c.08,1.413.359,2.795.327,4.208a15.667,15.667,0,0,1-1.629,6.787c-.934,1.98-2.156,4.16-4.032,5.4,0,0-5.9,4.424-13.111,4.671,0,0-7.706-.655-11.554-3.689a19.37,19.37,0,0,1-2.611-2.244c-1.861-2.06-2.483-4.591-3.1-7.211a23.744,23.744,0,0,1-.359-7.514l-3.45-5.047Z" transform="translate(-128.8 -158.283)"/><path class="d" d="M182.533,157.987s-2.8,12.385-12.616,16.13c0,0-1.405,10.987.934,18.933a27.957,27.957,0,0,1-4.44-24.075s.7-18,23.372-20.8c0,0,19.164-4.44,28.515,18.693h0s3.7,16.385-3.529,25.608h0s1.421-9.478.487-13.455c-.639-1.693-3.737-6.308-17.3-10.748C197.96,168.272,183.938,163.6,182.533,157.987Z" transform="translate(-127.602 -147.832)"/><path class="e" d="M175.76,193.648s6.995-5.19,12.073,1.038C187.833,194.686,182.148,200.044,175.76,193.648Z" transform="translate(-129.701 -156.655)"/><path class="e" d="M202.96,194.728s5.406-6.723,12.129-1.19C215.089,193.539,210.993,199.855,202.96,194.728Z" transform="translate(-135.181 -156.602)"/><path class="g" d="M202.99,194.708s5.406-6.723,12.129-1.19" transform="translate(-135.187 -156.597)"/><path class="h" d="M187.809,194.611s-4.208-5.981-12.049-.958" transform="translate(-129.701 -156.66)"/><path class="i" d="M210.165,191.44a7.542,7.542,0,0,0-2.3.447,2.791,2.791,0,0,0,.447,4.8,8.015,8.015,0,0,0,2.252.064,2.794,2.794,0,0,0-.4-5.31Z" transform="translate(-135.935 -156.619)"/><path class="i" d="M185.944,194.315a2.78,2.78,0,0,0-1.517-2.475,7.741,7.741,0,0,0-2.116-.192,2.79,2.79,0,0,0-.83,4.927,7.51,7.51,0,0,0,3.162.1A2.788,2.788,0,0,0,185.944,194.315Z" transform="translate(-130.621 -156.659)"/><path class="d" d="M173.99,182s13.048-1.733,13.2-1.749c-.335.048-.87-.631-1.11-.8C182.478,176.886,176.673,178.97,173.99,182Z" transform="translate(-129.344 -153.971)"/><path class="d" d="M204.87,180.1c1.9.4,3.793.791,5.693,1.19a57.665,57.665,0,0,0,6.987,1.429,9.507,9.507,0,0,0-5.917-3.857,9.672,9.672,0,0,0-3.489-.04,9.133,9.133,0,0,0-1.773.5C206.1,179.432,205.094,180.142,204.87,180.1Z" transform="translate(-135.566 -154.049)"/><path class="p" d="M123.933,330.661l-5.781,37.977s-1.757,13.495,11.922,14.2c0,0,18.23-1.054,31.9-3.33,0,0,38.911-6.835,40.317-7.538l-61-8.592.99-2.22s-8.121-15.715-5.957-30.846Z" transform="translate(-118.078 -184.6)"/><path class="p" d="M165.18,354.338l-3.33,11.922,55.736,22.614a11.7,11.7,0,0,0,11.395-1.581,21.759,21.759,0,0,0,6.484-8.065s11.395-36.987,9.462-44.173l-24.538-4.384-6.133,32.076C214.256,362.754,187.618,356.965,165.18,354.338Z" transform="translate(-126.898 -184.673)"/><path class="e" d="M217.9,351.139s2.1-6.308,5.606-8.592l7.011-4.735a1.869,1.869,0,0,1,2.276,0c1.222.878.351,2.451.351,2.451l-2.1,1.405,5.262-1.581s2.627-1.23,3.154.7a2.434,2.434,0,0,1-1.23,2.8s.878,2.8-.176,3.857c0,0-7.187,2.978-8.768,4.032l6.308-1.405a1.423,1.423,0,0,1,2.1.527c.7,1.405-1.757,2.627-1.757,2.627l-9.878,4.032-1.341,6.835-10.868-2.22Z" transform="translate(-137.375 -186.033)"/><path class="e" d="M159.077,359.558l-2.451,10.868L131.56,367.1s1.581-7.889,11.395-10.341C142.947,356.755,149.263,355.526,159.077,359.558Z" transform="translate(-120.795 -189.893)"/><g transform="translate(38.03 44.659)"><path class="s" d="M165.709,204.024a9.4,9.4,0,0,0,4.887,3.769.812.812,0,0,0,.543-.1c.08-.04.256-.152.1-.2a9.2,9.2,0,0,1-4.751-3.673c-.128-.192-.838.1-.775.2Z" transform="translate(-165.705 -203.761)"/></g><g transform="translate(87.283 44.954)"><path class="s" d="M231.773,204.322c-1.046,1.413-2.26,3.082-4.04,3.577-.088.024-.383.112-.343.248s.351.064.423.048c2.076-.567,3.442-2.244,4.671-3.9.1-.136-.088-.168-.192-.168a.711.711,0,0,0-.519.192Z" transform="translate(-227.385 -204.13)"/></g><g transform="translate(17.652 121.554)"><path class="k" d="M142.72,300.4q.97,2.36,1.94,4.711c.327.783.647,1.573.974,2.356a2.8,2.8,0,0,1,.359,2.268,19.924,19.924,0,0,1-1.11,1.853c-.351.6-.687,1.214-1,1.837a33.824,33.824,0,0,0-1.613,3.753,35.509,35.509,0,0,0-1.837,16.234,33.9,33.9,0,0,0,2.4,9.071c.12.287.886.056.775-.208a34.336,34.336,0,0,1-2.5-16.409,35.06,35.06,0,0,1,1.7-8.1,36.032,36.032,0,0,1,3.649-7.53,2.248,2.248,0,0,0,.311-2.108c-.311-.878-.711-1.733-1.062-2.6-.735-1.781-1.469-3.569-2.2-5.35-.136-.279-.894-.056-.783.216Z" transform="translate(-140.184 -300.059)"/></g><g transform="translate(87.829 123.026)"><path class="k" d="M230.441,302.124c-.711,4.009-1.286,8.041-1.693,12.089q-.311,3.078-.511,6.164c-.064,1.03-.152,2.068-.168,3.106-.016.894.815.958,1.525,1.118a29.933,29.933,0,0,0,6.691.727.845.845,0,0,0,.543-.144c.072-.08.144-.168-.048-.168a29.03,29.03,0,0,1-5.813-.551c-.439-.088-.87-.184-1.3-.3-.5-.12-.822-.272-.838-.83-.024-.95.088-1.932.152-2.883q.359-5.881,1.15-11.722c.3-2.26.663-4.512,1.062-6.755.048-.168-.711-.04-.751.144Z" transform="translate(-228.07 -301.902)"/></g><g transform="translate(45.491 253.996)"><path class="t" d="M175.145,466.367c3.569,1.821,7.091,3.753,10.532,5.805.846.5,1.693,1.014,2.531,1.533.407.248.814.5,1.214.759a2.878,2.878,0,0,1,.607.407.82.82,0,0,1,.1.767c-.4,1.988-.791,3.961-1.038,5.973a60.713,60.713,0,0,0-.447,6.811c0,.367.775.224.775-.08a60.618,60.618,0,0,1,1.4-12.409,1.831,1.831,0,0,0,.064-1.166c-.176-.367-.623-.567-.95-.775-.862-.543-1.733-1.078-2.6-1.6q-2.659-1.605-5.366-3.114-3.09-1.725-6.236-3.33c-.24-.12-.934.248-.583.423Z" transform="translate(-175.048 -465.921)"/></g></g><g transform="translate(70.972 0)"><path class="r" d="M375.761,113.423s-22.2-7.131-26.526,20.681c0,0-1.286,9.814-.583,16.944a4.613,4.613,0,0,0-1.469-2.284c-2.324-2.124-5.1-.423-6.324,1.908-1.861,3.545.7,7.314,3,9.965a13.073,13.073,0,0,0,3.314,2.795,8.7,8.7,0,0,0,2.316.934,16.107,16.107,0,0,0,2.675.12s3.977,12.153,11.922,13.79c0,0,11.1,4.911,21.967-.814,0,0,7.131-6.779,8.879-12.616,0,0,4.44,4.671,9.582-3.505,1.669-2.659,4.528-8.113,1.781-10.892a5.1,5.1,0,0,0-3.338-1.413c-1.062-.016-3.17.663-3.577,1.789,0,0,4.911-13.559,2.571-21.855C401.936,128.97,398.551,110.621,375.761,113.423Z" transform="translate(-233.81 -99.235)"/><g transform="translate(135.829 50.444)"><path class="s" d="M379.336,159.342q-.767,2.9-1.669,5.765a6.639,6.639,0,0,0-.591,2.579,1.471,1.471,0,0,0,1.278,1.341c.4.04.775-.535.256-.591-1.022-.1-.767-1.461-.567-2.108.24-.783.5-1.557.743-2.332.479-1.557.918-3.13,1.333-4.7.1-.391-.687-.311-.783.048Z" transform="translate(-377.063 -159.035)"/></g><path class="e" d="M357.44,154.943s7.482-5.55,12.912,1.11C370.352,156.053,364.275,161.778,357.44,154.943Z" transform="translate(-237.28 -107.33)"/><path class="u" d="M413.013,413.93l-92.555.934L311.65,554.387h44.5l9.183-89.042,7.011-.471L384.4,554.387h44.94Z" transform="translate(-228.053 -159.95)"/><path class="e" d="M386.52,156.1s5.781-7.187,12.968-1.27C399.5,154.822,395.112,161.578,386.52,156.1Z" transform="translate(-243.139 -107.273)"/><circle class="v" cx="3.002" cy="3.002" r="3.002" transform="translate(146.583 45.13)"/><circle class="v" cx="3.002" cy="3.002" r="3.002" transform="translate(124.057 45.306)"/><path class="d" d="M368.368,139.5l-14.988,3.242s3.857-4.911,7.714-5.606C361.094,137.135,364.511,135.73,368.368,139.5Z" transform="translate(-236.462 -104.127)"/><path class="d" d="M387.62,139.458l14.11,4.208s-2.627-5.518-7.538-6.484C394.192,137.182,390.159,136.479,387.62,139.458Z" transform="translate(-243.361 -104.173)"/><path class="p" d="M362.43,182.85l-.878,33.745S346.915,218,344.9,219.573l-4.032,11.219,59.417,5.35,2.451-16.3s-11.307-2.627-17.264-2.8l-3.33-32.34Z" transform="translate(-233.941 -113.39)"/><path class="e" d="M351.57,162.16l5.653,6q5.9-1.258,11.818-2.507c.807-.168,1.613-.343,2.411-.511a6.967,6.967,0,0,1,3.026-.192c.846.16,1.685.311,2.531.471l7.25,1.342c2.084.383,4.168.775,6.252,1.158.367.064,2.411.735,2.723.5.008-.008,8.456-6.22,8.456-6.22l-1.493,2.8-5.39,4.384c.088,1.509.383,2.986.351,4.5a16.744,16.744,0,0,1-1.741,7.258c-1,2.116-2.3,4.456-4.312,5.773,0,0-6.308,4.735-14.022,5,0,0-8.241-.7-12.361-3.945a21.434,21.434,0,0,1-2.787-2.4c-1.988-2.2-2.651-4.9-3.314-7.714a25.365,25.365,0,0,1-.383-8.033l-4.152-4.647Z" transform="translate(-236.097 -109.221)"/><path class="w" d="M340.049,231.15s25.241,22.438,57.844,2.1l19.979,16.825,13.319,132.161s-75.722,7.714-113.931.7l10.524-142.326Z" transform="translate(-229.184 -123.122)"/><path class="e" d="M329.746,225.15s-21.033,29.217-12.385,147.005l3.625,46.569s.878,14.373-6.308,19.46a24.19,24.19,0,0,1-16.3,7.187s-20.33.527-22.438.527c0,0,8.592-97.578,16.473-164.413L262.44,312.8l29.449,2.34-4.671,28.978-64.04,1.405s-8.065.814-14.2-10.053c0,0-5.086-6.484.878-18.23,0,0,46.976-58.547,74.493-78,0,0,8.592-8.592,25.065-8.943A105.006,105.006,0,0,1,329.746,225.15Z" transform="translate(-206.959 -121.913)"/><path class="e" d="M402.88,225.44s20.33,78.174,14.022,117.788c0,0-1.054,69.063-2.451,79.579,0,0-1.757,15.076,16.473,22.087,0,0,7.714,3.154,26.295,1.405L440.394,282.238l29.449,29.8-34.352,2.8,6.66,30.5,66.955,1.054s9.814-.7,13.67-12.968-3.505-19.284-3.505-19.284-52.933-63.449-63.449-68.712c0,0-12.616-10.516-21.735-12.616C434.078,232.8,411.288,225.791,402.88,225.44Z" transform="translate(-246.435 -121.971)"/><path class="r" d="M314.915,342.809l6.548-9.582s.471-1.405,3.737-2.8l15.427-.934s3.154.583,3.154,3.625-1.405,3.977-1.405,3.977,1.405.12,1.405,2.571-1.286,2.691-1.286,2.691a3.1,3.1,0,0,1,1.517,2.923,2.868,2.868,0,0,1-1.868,2.8s.934,0,.934,1.988-2.34,3.034-2.34,3.034.583-.583.471,1.286a3.405,3.405,0,0,1-1.757,2.691s-6.428,2.571-7.594,2.8c0,0-13.9,1.405-18,1.286l-7.131-.232,3.386-18.11h4.8Z" transform="translate(-227.062 -142.936)"/><path class="r" d="M437.028,342.739l-6.548-9.582s-.471-1.405-3.737-2.8l-15.427-.934s-3.154.583-3.154,3.625,1.405,3.977,1.405,3.977-1.405.12-1.405,2.571,1.286,2.691,1.286,2.691a3.1,3.1,0,0,0-1.517,2.923,2.868,2.868,0,0,0,1.869,2.8s-.934,0-.934,1.988,2.34,3.034,2.34,3.034-.583-.583-.471,1.286a3.405,3.405,0,0,0,1.757,2.691s6.428,2.571,7.594,2.8c0,0,13.9,1.405,18,1.286l7.131-.232-3.386-18.11h-4.8Z" transform="translate(-247.453 -142.922)"/><path class="x" d="M386.56,156.07s5.781-7.187,12.968-1.27" transform="translate(-243.147 -107.267)"/><path class="s" d="M390.892,118.818s-23.484,4.44-26.175,2.923c0,0,5.845-3.154,6.308-4.911l-14.956.7s-8.065,7.362-7.482,17.407c0,0-.232,13.439.934,17.3,0,0-7.825-9.7-6.779-21.855s0-.471,0-.471.815-10.868,2.451-13.207c0,0-6.548-.232-7.594-5.142,0,0,5.725.934,14.6-7.945,0,0-3.625-.7-4.088-2.34,0,0,5.845-1.988,8.416-4.32a11.208,11.208,0,0,1,7.362-.814s22.087-.12,34.7,13.9a6.113,6.113,0,0,1,1.405,2.34s5.725,1.405,6.077,6.66c0,0,1.341,8.241-1.637,15.6,0,0-3.913,14.253-7.538,17.583,0,0,1.924-15.012.878-18.286C397.792,133.949,390.014,128.7,390.892,118.818Z" transform="translate(-233.282 -95.862)"/><path class="y" d="M370.32,155.97s-4.5-6.4-12.88-1.022" transform="translate(-237.28 -107.334)"/><path class="i" d="M394.235,152.58a8.3,8.3,0,0,0-2.459.479,2.987,2.987,0,0,0,.479,5.134,8.556,8.556,0,0,0,2.411.072,2.993,2.993,0,0,0-.431-5.685Z" transform="translate(-243.947 -107.29)"/><path class="i" d="M368.335,155.657a2.994,2.994,0,0,0-1.621-2.651,8.226,8.226,0,0,0-2.268-.208,2.979,2.979,0,0,0-.886,5.262,8.009,8.009,0,0,0,3.378.112A2.966,2.966,0,0,0,368.335,155.657Z" transform="translate(-238.265 -107.333)"/><g transform="translate(43.428 190.764)"><path class="z" d="M261.772,336.1a51.071,51.071,0,0,1,10.285-.8c.16,0,.439-.048.5-.232.064-.16-.056-.287-.224-.3a53.327,53.327,0,0,0-10.692.838c-.479.088-.343.575.128.487Z" transform="translate(-261.345 -334.763)"/></g><g transform="translate(73.221 193.96)"><path class="z" d="M302.955,339.041a87.932,87.932,0,0,0-1.964,9.758c-.511,3.306-.99,6.612-1.477,9.917q-.431,2.887-.854,5.773c-.056.359.735.24.775-.072q.755-5.031,1.493-10.069c.487-3.274.934-6.556,1.541-9.814.351-1.868.759-3.721,1.254-5.558.1-.335-.687-.24-.767.064Z" transform="translate(-298.656 -338.765)"/></g><g transform="translate(199.344 193.977)"><path class="z" d="M456.609,339.109q3.138,10.265,6.268,20.538l1.8,5.893c.08.256.846.048.775-.208q-3.138-10.265-6.268-20.538l-1.8-5.893c-.08-.256-.846-.04-.775.208Z" transform="translate(-456.604 -338.786)"/></g><g transform="translate(93.051 105.298)"><path class="z" d="M350.655,227.738c-2.755.4-4.52,2.978-6.2,4.943q-3.222,3.761-6.332,7.618-3.078,3.821-6.037,7.738c-1,1.318-1.98,2.643-2.962,3.977-.487.663-.974,1.334-1.453,2a12.959,12.959,0,0,0-1.326,1.956,2.354,2.354,0,0,0,.08,1.94c.3.759.607,1.517.918,2.268q.946,2.264,1.98,4.5t2.148,4.424c.727,1.421,1.549,2.8,2.228,4.248a4.146,4.146,0,0,1,.479,2.22,6.084,6.084,0,0,1-.79,2.172q-1.114,2.072-2.388,4.048a66.166,66.166,0,0,1-5.566,7.49c-.846.982-1.956,2.068-1.94,3.466a4.8,4.8,0,0,0,.687,2.012c.367.751.743,1.493,1.118,2.236q2.24,4.4,4.7,8.68c.415.727.83,1.445,1.254,2.164.136.224.886-.024.719-.3q-2.5-4.252-4.791-8.608-1.114-2.132-2.18-4.288a4.719,4.719,0,0,1-.727-2.14,3.421,3.421,0,0,1,.767-1.845c.878-1.2,1.924-2.276,2.851-3.442q1.4-1.785,2.683-3.649t2.427-3.825a13.537,13.537,0,0,0,1.892-3.913c.287-1.437-.415-2.683-1.078-3.9-.751-1.381-1.477-2.787-2.172-4.192q-2.12-4.276-3.921-8.7a8.821,8.821,0,0,1-.775-2.14,3.188,3.188,0,0,1,.942-2.14c.942-1.318,1.9-2.627,2.859-3.929q2.839-3.833,5.781-7.57c1.98-2.523,4.009-5.015,6.061-7.474,1.022-1.222,2.044-2.427,3.082-3.633a19.009,19.009,0,0,1,3.05-3.154,4.11,4.11,0,0,1,1.837-.79c.383-.072.639-.535.1-.463Z" transform="translate(-323.49 -227.731)"/></g><g transform="translate(103.935 218.924)"><path class="z" d="M337.12,370.349a90.319,90.319,0,0,0,4.3,23.787c.088.264.854.048.775-.208a90.971,90.971,0,0,1-4.3-23.788c-.016-.232-.79-.08-.775.208Z" transform="translate(-337.12 -370.028)"/></g><g transform="translate(157.82 103.5)"><path class="z" d="M404.608,225.759c2.755,4.919,6.436,9.215,10.061,13.495,1.837,2.164,3.665,4.344,5.366,6.612.87,1.166,1.725,2.356,2.5,3.593a1.851,1.851,0,0,1,.279,1.948c-.335.719-.79,1.4-1.174,2.092q-2.3,4.144-4.24,8.488c-.311.695-.615,1.389-.9,2.092a7.7,7.7,0,0,0-.727,2.244c-.136,1.421.886,2.651,1.637,3.761q2.575,3.833,5.462,7.442,1.461,1.833,3,3.6a7.554,7.554,0,0,1,1.262,1.717,4.435,4.435,0,0,1,.272,2.212,81.163,81.163,0,0,1-4.4,20.913c-.064.184.687.1.767-.12a85.474,85.474,0,0,0,4.184-18.613c.08-.735.152-1.469.208-2.2a5.04,5.04,0,0,0-.168-2.156,5.327,5.327,0,0,0-1.062-1.621c-.5-.583-1.006-1.158-1.5-1.749q-3.018-3.593-5.733-7.418a46.168,46.168,0,0,1-2.635-3.929,3.412,3.412,0,0,1-.511-2.132,9.071,9.071,0,0,1,.743-2.156q1.868-4.42,4.112-8.656c.367-.695.751-1.389,1.134-2.084a18.1,18.1,0,0,0,1.11-2,1.87,1.87,0,0,0-.3-1.8c-.375-.6-.775-1.19-1.174-1.765-1.589-2.3-3.338-4.48-5.134-6.62-3.673-4.4-7.554-8.672-10.588-13.559-.375-.6-.735-1.214-1.078-1.829-.12-.216-.854.056-.775.2Z" transform="translate(-404.602 -225.48)"/></g><g transform="translate(170.657 218.336)"><path class="z" d="M425.575,369.6q-2.539,15.343-4.1,30.838c-.3,2.915-.559,5.837-.8,8.752-.032.407.751.3.783-.056q1.282-15.5,3.537-30.9.635-4.348,1.357-8.688c.064-.391-.727-.3-.783.056Z" transform="translate(-420.679 -369.293)"/></g><g transform="translate(135.65 304.672)"><path class="aa" d="M377.167,478.521a80.614,80.614,0,0,0,9.1-.559c.423-.048.6-.607.072-.543a82.66,82.66,0,0,1-9.1.559c-.431,0-.6.543-.072.543Z" transform="translate(-376.838 -477.414)"/></g><g transform="translate(110.594 54.958)"><path class="s" d="M345.46,164.945a4.036,4.036,0,0,0,1.565,2.763,8.342,8.342,0,0,0,3.154,1.693.838.838,0,0,0,.535-.1c.072-.032.263-.152.1-.2a8.147,8.147,0,0,1-3.058-1.653,3.952,3.952,0,0,1-1.517-2.707c-.008-.136-.783-.016-.775.2Z" transform="translate(-345.46 -164.688)"/></g><g transform="translate(163.965 56.754)"><path class="s" d="M416.332,167.163a10.993,10.993,0,0,1-3.9,3.386c-.136.08-.2.256-.056.351a.548.548,0,0,0,.551-.056,11.66,11.66,0,0,0,4.128-3.625c.1-.16-.088-.272-.224-.279a.56.56,0,0,0-.5.224Z" transform="translate(-412.298 -166.937)"/></g><circle class="n" cx="7.873" cy="7.873" r="7.873" transform="translate(258.063 69.452)"/><circle class="n" cx="7.873" cy="7.873" r="7.873" transform="translate(279.558 69.389)"/></g></g></g></svg>