<svg xmlns="http://www.w3.org/2000/svg" width="17" height="17" viewBox="0 0 17 17"><defs><style>.a,.b{fill:none;}.b{stroke:#fff;stroke-linecap:round;stroke-linejoin:round;stroke-miterlimit:10;}</style></defs><g transform="translate(-0.267 -0.488)"><rect class="a" width="17" height="17" transform="translate(0.267 0.488)"/><g transform="translate(1.754 1.515)"><g transform="translate(0 0)"><path class="b" d="M2.266,6.231V1.7A.535.535,0,0,0,1.7,1.133H1.133A1.136,1.136,0,0,1,0,0H0" transform="translate(5.665 0)"/><path class="b" d="M0,0A3.941,3.941,0,0,0,3.965,3.965h0A3.941,3.941,0,0,0,7.93,0" transform="translate(0 6.231)"/><path class="b" d="M2.266,0h0A1.136,1.136,0,0,1,1.133,1.133H.566A.535.535,0,0,0,0,1.7V6.231" transform="translate(0 0)"/><ellipse class="b" cx="2.266" cy="2.266" rx="2.266" ry="2.266" transform="translate(10.196 1.699)"/><path class="b" d="M.75.75h0" transform="translate(11.712 3.215)"/><path class="b" d="M0,3.965v.85A4.279,4.279,0,0,0,4.248,9.063h0A4.279,4.279,0,0,0,8.5,4.815V0" transform="translate(3.965 6.231)"/></g></g></g></svg>