<svg xmlns="http://www.w3.org/2000/svg" width="18" height="17" viewBox="0 0 18 17"><defs><style>.a,.b{fill:none;}.b{stroke:#fff;stroke-linecap:round;stroke-linejoin:round;stroke-miterlimit:10;}</style></defs><g transform="translate(0.275 -0.488)"><rect class="a" width="18" height="17" transform="translate(-0.275 0.488)"/><g transform="translate(1.111 1.515)"><ellipse class="b" cx="1.191" cy="1.191" rx="1.191" ry="1.191" transform="translate(6.551)"/><path class="b" d="M.75,0V3.573" transform="translate(6.992 10.124)"/><path class="b" d="M.75,0V5.36" transform="translate(6.992 4.764)"/><path class="b" d="M11.315,0V.3A3.573,3.573,0,0,1,4.169.3V0L0,3.871,7.742,6.253l7.742-2.382Z" transform="translate(0 0.893)"/><path class="b" d="M.417,2.2A.921.921,0,0,1,0,1.489C0,.655,1.608,0,3.573,0S7.146.655,7.146,1.489,5.538,2.978,3.573,2.978" transform="translate(4.169 7.146)"/><path class="b" d="M.774,2.084C.3,1.846,0,1.548,0,1.191,0,.536,1.072,0,2.382,0" transform="translate(5.36 10.124)"/><path class="b" d="M1.787,0C2.8,0,3.573.536,3.573,1.191S2.8,2.382,1.787,2.382,0,1.846,0,1.191" transform="translate(5.955 12.506)"/></g></g></svg>