<svg xmlns="http://www.w3.org/2000/svg" width="21" height="17.25" viewBox="0 0 21 17.25"><defs><style>.a{fill:#fff;opacity:0.65;}</style></defs><path class="a" d="M6.6,17.25A12.245,12.245,0,0,0,18.862,4.86c0-.188,0-.375-.012-.563A8.811,8.811,0,0,0,21,2.042a8.531,8.531,0,0,1-2.475.686A4.364,4.364,0,0,0,20.42.319a8.589,8.589,0,0,1-2.736,1.057A4.282,4.282,0,0,0,14.54,0a4.333,4.333,0,0,0-4.309,4.355,4.384,4.384,0,0,0,.112.993A12.192,12.192,0,0,1,1.461.8,4.39,4.39,0,0,0,2.8,6.611a4.238,4.238,0,0,1-1.95-.544v.055A4.344,4.344,0,0,0,4.3,10.391a4.26,4.26,0,0,1-1.946.075A4.319,4.319,0,0,0,6.38,13.49a8.585,8.585,0,0,1-5.353,1.864A8.718,8.718,0,0,1,0,15.294,12.106,12.106,0,0,0,6.6,17.25"/></svg>