<svg xmlns="http://www.w3.org/2000/svg" width="15" height="18" viewBox="0 0 15 18"><defs><style>.a{fill:#07134a;}</style></defs><g transform="translate(0)"><g transform="translate(0)"><path class="a" d="M4.663,16.974H4.639c-1.23-.011-2.158-1.183-2.9-2.328A10.669,10.669,0,0,1,.041,9.952,6.064,6.064,0,0,1,.762,6.117,4.394,4.394,0,0,1,4.305,3.975a5.022,5.022,0,0,1,1.774.389A4.265,4.265,0,0,0,7.541,4.7a3.565,3.565,0,0,0,1.307-.315,4.973,4.973,0,0,1,1.917-.414,4.29,4.29,0,0,1,3.243,1.722A3.626,3.626,0,0,0,12.1,9.185a3.841,3.841,0,0,0,.687,1.943A3.686,3.686,0,0,0,14.5,12.454a12.187,12.187,0,0,1-1.1,2.058c-.79,1.211-1.759,2.45-2.958,2.459h-.026a2.6,2.6,0,0,1-1.18-.315l-.092-.042a3.389,3.389,0,0,0-1.563-.357H7.557a3.741,3.741,0,0,0-1.687.4A2.718,2.718,0,0,1,4.663,16.974ZM7.083,4.085H7.008A3.415,3.415,0,0,1,7.852,1.4,3.986,3.986,0,0,1,10.432,0,3.705,3.705,0,0,1,9.61,2.755,3.359,3.359,0,0,1,7.083,4.085Z" transform="translate(0)"/></g></g></svg>