<svg xmlns="http://www.w3.org/2000/svg" width="17" height="18" viewBox="0 0 17 18"><defs><style>.a,.b{fill:none;}.b{stroke:#fff;stroke-linecap:round;stroke-linejoin:round;stroke-miterlimit:10;}</style></defs><g transform="translate(0.168 -0.488)"><rect class="a" width="17" height="18" transform="translate(-0.168 0.488)"/><g transform="translate(3.791 1.515)"><path class="b" d="M4.169,10.124h0A4.143,4.143,0,0,1,0,5.955V1.191A1.2,1.2,0,0,1,1.191,0H7.146A1.2,1.2,0,0,1,8.337,1.191V5.955A4.143,4.143,0,0,1,4.169,10.124Z" transform="translate(0 1.787)"/><path class="b" d="M0,1.787v-.6A1.2,1.2,0,0,1,1.191,0h0A1.2,1.2,0,0,1,2.382,1.191v.6" transform="translate(2.978)"/><path class="b" d="M4.169,0h0A3.584,3.584,0,0,1,.6,3.573H0" transform="translate(0 11.91)"/><path class="b" d="M0,1.191H1.667a5.169,5.169,0,0,0,2.5-.6h0A5.333,5.333,0,0,1,6.67,0H8.337" transform="translate(0 7.146)"/></g></g></svg>