<svg xmlns="http://www.w3.org/2000/svg" width="327.029" height="434.01" viewBox="0 0 327.029 434.01"><defs><style>.a{fill:#1d1d1b;}.b{fill:#e8e8e8;opacity:0.5;}.c{fill:#727272;}.ac,.d,.g,.l,.n,.t,.y,.z{fill:none;}.d{stroke:#b7b7b7;stroke-width:3.25px;}.d,.g,.l,.n,.y,.z{stroke-linecap:round;}.d,.g,.n,.z{stroke-linejoin:round;}.e{fill:#4a494a;}.f{fill:#b9b9ba;}.g{stroke:#868687;stroke-width:1.24px;}.h{fill:#474747;}.i,.r{fill:#fff;}.j{fill:#f8b99f;}.k{fill:#599ac1;}.l,.n,.y,.z{stroke:#130a0b;}.ac,.l,.r,.t,.y{stroke-miterlimit:10;}.l{stroke-width:0.34px;}.m{fill:#040506;}.n{stroke-width:0.36px;}.o{fill:#e2dde2;}.p{fill:#e2e2e1;}.q{fill:#5282c2;}.r,.t{stroke:#3f3f3f;stroke-width:0.75px;}.s{fill:#3f3f3f;}.u{fill:#589997;}.v{fill:#adabce;}.w{fill:#1d1e1b;}.x{fill:#2b4359;}.y,.z{stroke-width:0.46px;}.aa{fill:#7c7cb6;}.ab{fill:#2b2b2b;}.ac{stroke:#1d1d1b;stroke-width:0.8px;}</style></defs><g transform="translate(-1693 -628.469)"><g transform="translate(1399.893 949.674)"><g transform="translate(293.107 -100.641)"><g transform="translate(9.99 -0.001)"><rect class="a" width="41.52" height="53.617"/><path class="b" d="M209.768,23.374c0-.963.043-1.956.072-2.934l1.59.381V4.986c-3.546-.843-11.61-2.616-14.881-2.052,0,0-1.57.231-1.585-2.934h-9.071a2.968,2.968,0,0,1-1.532,3.117s-10.82,1.8-14.452,4.234V23.277l1.527-.785c.482,7.409.9,14.837,1,22.256a35.157,35.157,0,0,1-.072,4.87c-.154,1.262-.612,2.457-.838,3.709a1.805,1.805,0,0,1-.043.275h38.938c-.029-.381-.063-.766-.1-1.147-.279-2.943-.829-5.7-.843-8.671,0-2.327,0-4.649.043-6.975Q209.609,30.1,209.768,23.374Z" transform="translate(-169.91)"/><path class="c" d="M191.544,17.965a2.943,2.943,0,0,0-1.387-.313c-4.885-.217-12.241,1.551-12.337,8.671-.092,6.922-.381,14.389.891,21.2a17.472,17.472,0,0,1-.906,7.953c-.482,1.378,9.774-9.071,15.488-6.6a109.815,109.815,0,0,0,.482-22.083,47.213,47.213,0,0,0-1.195-7.077A2.89,2.89,0,0,0,191.7,18.1a1.255,1.255,0,0,0-.154-.14Z" transform="translate(-173.961 -9.139)"/><path class="c" d="M216.806,17.4a2.953,2.953,0,0,1,1.392-.318c4.88-.212,12.236,1.556,12.332,8.671.092,6.927.381,14.394-.891,21.2a17.546,17.546,0,0,0,.906,7.953c.482,1.373-9.774-9.071-15.488-6.6a110.23,110.23,0,0,1-.482-22.083,47.805,47.805,0,0,1,1.19-7.077,2.939,2.939,0,0,1,.867-1.628A1.811,1.811,0,0,1,216.806,17.4Z" transform="translate(-192.874 -8.845)"/><path class="d" d="M182.78,29.87s8.435,7.226,10.266,1.228" transform="translate(-176.58 -15.481)"/><path class="d" d="M182,37.33s8.43,7.226,10.266,1.228" transform="translate(-176.176 -19.347)"/><path class="d" d="M182,46.13s8.43,7.226,10.266,1.228" transform="translate(-176.176 -23.908)"/><path class="d" d="M182,54.93s8.43,7.226,10.266,1.224" transform="translate(-176.176 -28.469)"/><path class="d" d="M182,62.39s8.43,7.226,10.266,1.228" transform="translate(-176.176 -32.335)"/><path class="d" d="M185.64,70.51s7,6.017,8.522,1.021" transform="translate(-178.062 -36.543)"/><path class="d" d="M230.476,29.34s-8.435,7.226-10.266,1.228" transform="translate(-195.979 -15.206)"/><path class="d" d="M231.236,36.8s-8.43,7.226-10.266,1.228" transform="translate(-196.373 -19.072)"/><path class="d" d="M231.236,45.6s-8.43,7.226-10.266,1.228" transform="translate(-196.373 -23.633)"/><path class="d" d="M231.251,54.4s-8.43,7.221-10.251,1.252" transform="translate(-196.388 -28.194)"/><path class="d" d="M231.236,61.86s-8.43,7.226-10.266,1.228" transform="translate(-196.373 -32.06)"/><path class="d" d="M229.507,70s-7,5.988-8.507,1.012" transform="translate(-196.388 -36.279)"/></g><g transform="translate(105.918 66.038)"><rect class="e" width="28.176" height="39.319" rx="5"/><rect class="f" width="17.925" height="11.036" transform="translate(5.126 6.715)"/><ellipse class="g" cx="2.664" cy="2.664" rx="2.664" ry="2.664" transform="translate(7.433 28.827)"/><ellipse class="g" cx="1.469" cy="1.469" rx="1.469" ry="1.469" transform="translate(17.805 30.624)"/><path class="h" d="M414.4,206.271q.814,1.31,1.513,2.688a8.362,8.362,0,0,0,.723,1.339.723.723,0,0,0,.756.275,2.26,2.26,0,0,0,.573-.2,4.307,4.307,0,0,1,1.7-.414,10.117,10.117,0,0,1,3.43.515,3.7,3.7,0,0,1,2.433,1.869,4.465,4.465,0,0,1,0,3.093,13.726,13.726,0,0,1-.6,1.551c-.188.419-.482,1.286-1.026,1.31a1.339,1.339,0,0,1-1.113-.78,1.488,1.488,0,0,1,.092-1.363,2.683,2.683,0,0,1,2.76-1.2,3.811,3.811,0,0,1,3.155,4.5c-.154.867-.858,2.568-2.009,2.192s-.65-1.782.2-2.2a2.105,2.105,0,0,1,2.452.593,3.5,3.5,0,0,1,.732,2.823,6.711,6.711,0,0,1-1.566,3.073,14.037,14.037,0,0,1-1.243,1.325,8.368,8.368,0,0,1-.694.612c-.154.12-.25.2-.424.077a.811.811,0,0,1-.236-.328c-.347-.848.434-1.7,1.219-1.884a2.182,2.182,0,0,1,2.332,1.214c1.161,2.071-.135,4.495-1.354,6.219-.559.795-1.407,1.758-2.481,1.633-.843-.1-1.768-.8-1.566-1.744a1.58,1.58,0,0,1,1.074-1.137,3.257,3.257,0,0,1,1.98.2,4.336,4.336,0,0,1,1.5.819,3.083,3.083,0,0,1,.886,1.493c.482,1.787-.048,4.446-2.018,5.13a2.89,2.89,0,0,1-2.519-.366c-.246-.173-.886-.7-.727-1.041a1.676,1.676,0,0,1,1.127-.737,2.466,2.466,0,0,1,2.515,1.19,3.974,3.974,0,0,1,.443,3.049,7.733,7.733,0,0,1-1.638,3.083,5.386,5.386,0,0,1-2.736,1.888,3.372,3.372,0,0,1-3.016-.708,1.556,1.556,0,0,1-.588-1.359,1.315,1.315,0,0,1,.727-.906,1.725,1.725,0,0,1,2.269.963,4.364,4.364,0,0,1,.284,2.953,4.037,4.037,0,0,1-1.782,2.674,2.539,2.539,0,0,1-2.977-.26,2.274,2.274,0,0,1-.612-2.529l-.381.149a3.049,3.049,0,0,1,2.192,1.513,1.821,1.821,0,0,1-.328,2.264c-1.5,1.411-3.584.14-4.981-.761-.125-.077-.53.111-.438.173,1.368.882,2.963,1.826,4.639,1.277a2.847,2.847,0,0,0,1.556-1.132,1.951,1.951,0,0,0-.1-2.134,3.261,3.261,0,0,0-2.25-1.421c-.106,0-.328.029-.376.145a2.409,2.409,0,0,0,.93,2.89,3.286,3.286,0,0,0,3.257,0,4.639,4.639,0,0,0,1.595-6.262,2.1,2.1,0,0,0-2.625-.694,1.883,1.883,0,0,0-.964.857,1.363,1.363,0,0,0,.217,1.445,3.462,3.462,0,0,0,3.151,1.151,5.491,5.491,0,0,0,3.266-1.667c1.725-1.715,3.257-4.779,1.556-7.009a2.755,2.755,0,0,0-2.847-1.016,2.577,2.577,0,0,0-1.277.655c-.14.135-.366.342-.313.54a1.7,1.7,0,0,0,.414.617,3.179,3.179,0,0,0,2.688.853,3.56,3.56,0,0,0,2.587-1.638,4.952,4.952,0,0,0,.66-3.372,3.679,3.679,0,0,0-.737-1.811,3.854,3.854,0,0,0-1.585-1.065,3.491,3.491,0,0,0-3.627.226,1.537,1.537,0,0,0-.554,1.392,1.619,1.619,0,0,0,.824,1.074,2.688,2.688,0,0,0,2.939-.294,8.643,8.643,0,0,0,2.293-3.112,5.265,5.265,0,0,0,.564-3.825,2.7,2.7,0,0,0-2.24-2.014,2.577,2.577,0,0,0-2.409,1.137,1.253,1.253,0,0,0,0,1.354.878.878,0,0,0,1.286,0,11.667,11.667,0,0,0,2.852-3.122,4.75,4.75,0,0,0,.766-3.627,2.751,2.751,0,0,0-2.086-2.144,2.635,2.635,0,0,0-2.587.963,1.185,1.185,0,0,0,0,1.445,1.488,1.488,0,0,0,1.334.381,2.951,2.951,0,0,0,2.067-2.606,3.854,3.854,0,0,0-4.027-4.591,3.307,3.307,0,0,0-2.847,1.566,1.517,1.517,0,0,0,0,1.527,1.556,1.556,0,0,0,1.156.742c1.3.111,1.778-1.4,2.153-2.365a5.521,5.521,0,0,0,.4-3.685,3.793,3.793,0,0,0-2.707-2.221,10.146,10.146,0,0,0-3.941-.482,5.6,5.6,0,0,0-1.754.511,1.057,1.057,0,0,1-.231.087.135.135,0,0,1-.116,0,.81.81,0,0,1-.357-.361,9.157,9.157,0,0,1-.438-.833c-.516-1.031-1.065-2.038-1.681-3.016-.082-.135-.52.039-.482.125Z" transform="translate(-388.546 -170.613)"/></g><g transform="translate(0 29.746)"><path class="i" d="M294,184.41s22.357,37.628,24.973,39.194a10.185,10.185,0,0,0,5.3,1.315,10.273,10.273,0,0,1,1.994.178l21.341,1.045,2.254,17.342s-28.759,1.551-33.837-1.267-18.19-12.125-18.19-12.125Z" transform="translate(-220.228 -123.096)"/><path class="j" d="M256.452,73.633s-15.931-3.666-16.928,11.282c0,0-3.1-3.247-5.077-1.127,0,0-3.984,1.652.246,7.433,0,0-9.268,22.034-9.553,30.913,0,0,15.16,14.755,22.068,4.885l-.072-14.452s3.242,2.259,7.332-2.539C254.458,110.008,276.189,79.838,256.452,73.633Z" transform="translate(-184.54 -65.478)"/><path class="a" d="M248.206,68.389l12.968,7.467a9.891,9.891,0,0,0,2.043.752,13.97,13.97,0,0,0,4.475.694,6.422,6.422,0,0,0,3.228-.872,4.75,4.75,0,0,0,1.305-1.195c.506-.679.848-1.493,1.31-2.211A10.184,10.184,0,0,0,274.5,71.1a6.913,6.913,0,0,0,.458-3.059c-.072-.723-.434-2.322-1.325-2.476a9.35,9.35,0,0,0-1.532.145,17.227,17.227,0,0,1-2.283-.072,9.47,9.47,0,0,1-4.991-1.773,6.056,6.056,0,0,1-.964-.963,12.8,12.8,0,0,0-2.3-2.177,17.227,17.227,0,0,0-6.638-3.194,18.108,18.108,0,0,0-10.482.9,26.05,26.05,0,0,0-4.152,2.023,11.261,11.261,0,0,0-4.172,3.555,22.131,22.131,0,0,0-1.643,3.208,23.153,23.153,0,0,0-1.7,10.921,24.238,24.238,0,0,0,.853,4.5,21.463,21.463,0,0,0,.814,2.409c.332.8.79,1.585,1.079,2.409,0,0,.708,1.975.284,2.539s2.963-7.332,2.963-7.332-3.95-3.945-.424-7.332c0,0,1.551-2.254,5.073,1.127C243.408,76.424,249.752,72.484,248.206,68.389Z" transform="translate(-188.452 -57.132)"/><path class="k" d="M228.73,172.575l-10.256-9.635-.106,9.635s-9.943,9.307-24.958-6.98l-17.342,8.04s-6.147,111.453-6.147,112.3c0,.318,5.106,3.2,13.166,6.108a125.338,125.338,0,0,0,30.937,3.126A118.907,118.907,0,0,0,237.6,292.2Z" transform="translate(-155.921 -111.969)"/><path class="i" d="M198.14,167.972l-4.23-15.439-8.883-3.372L177.84,155.5l1.479,2.746-20.093,10.68,4.654,15.545-7.79,94.578c15.806,6.176,32.9,9.882,49.96,9.439.371,0,1.482-.45,1.853-.464Z" transform="translate(-147.973 -104.827)"/><path class="i" d="M295.65,290.939c0-.188-.034-.376-.053-.568l-.231-2.519-.246-2.616c-.082-.9-.169-1.8-.25-2.707s-.173-1.859-.265-2.789-.178-1.927-.27-2.866l-.275-2.934c-.1-1-.193-2-.284-3s-.2-2.038-.294-3.054-.2-2.071-.3-3.107l-.3-3.151c-.1-1.065-.207-2.129-.308-3.189s-.212-2.149-.313-3.223-.212-2.163-.323-3.242l-.318-3.261c-.111-1.094-.217-2.182-.328-3.276s-.217-2.187-.328-3.281l-.332-3.276-.332-3.271-.332-3.252-.337-3.237-.332-3.208c-.111-1.055-.226-2.115-.337-3.17l-.332-3.136-.332-3.083-.332-3.035c-.111-.992-.222-1.98-.328-2.972s-.217-1.927-.328-2.89-.217-1.893-.323-2.837-.212-1.835-.323-2.751-.207-1.782-.313-2.669-.207-1.72-.313-2.577l-.3-2.476-.3-2.375c-.1-.752-.193-1.508-.294-2.259s-.188-1.445-.284-2.144-.188-1.344-.279-2.014l-.275-1.888c-.087-.583-.173-1.166-.265-1.749s-.169-1.069-.255-1.6-.159-.963-.246-1.445-.154-.867-.236-1.3-.149-.756-.226-1.132-.14-.646-.217-.963-.13-.525-.207-.785-.12-.4-.193-.6a3.15,3.15,0,0,0-.178-.414c-.154-.265-.458-.376-.684-.564s-.554-.506-.829-.756l-2.072-1.927-2.519-2.327-2.457-2.269-1.893-1.744L271,163.3l7.987,49.859-.9,81.725a121.592,121.592,0,0,0,17.561-3.945Z" transform="translate(-208.308 -112.156)"/><path class="j" d="M263,313.751s8.671-.843,13.113-5.5c0,0,5.713-7.828,12.27-4.865a3.281,3.281,0,0,1,.419,1.691c0,1.06-5.3,2.751-6.344,2.963,0,0,10.786-3.175,12.043-3.175,0,0,1.691-.212,1.9.636a2.346,2.346,0,0,1-.848,2.327c-.631.424.424-.212,1.272,1.06s.419,2.958-.848,2.958c0,0,.848.424.212,1.9,0,0,0,1.272-1.691,1.7,0,0,1.267.631-.212,1.691l-26.861,8.247Z" transform="translate(-204.161 -184.413)"/><path class="i" d="M160.78,181.07l2.539,66.252,41.877,1.055,1.479,15.651s-42.932,5.3-54.989,7.4-10.786-8.459-10.786-8.459l6.344-63.661c-.222-4.3.058-10.116,3.68-13.117,1.57-1.306,3.921-2.12,5.742-3.04Z" transform="translate(-140.86 -121.365)"/><path class="h" d="M410.82,270.249s-2.89-.1-2.89,2.553l1.031,11.152s2.317,1.065,4.124,0l.66-11.152A2.623,2.623,0,0,0,410.82,270.249Z" transform="translate(-279.274 -167.584)"/><ellipse class="h" cx="1.416" cy="0.925" rx="1.416" ry="0.925" transform="translate(130.13 101.394)"/><rect class="h" width="2.837" height="1.811" transform="translate(130.125 102.319)"/><path class="j" d="M413,268.21s-2.11-1.113-1.484-2.177c.381-.655,1.021-1.257,1.778-.766a8.455,8.455,0,0,0,1,.342,4.82,4.82,0,0,1,1,.631,8.939,8.939,0,0,1,1.927,2.25,15.361,15.361,0,0,1,1.012,1.888,12.505,12.505,0,0,1,.482,1.175,5.171,5.171,0,0,1,.222,1.18,3.478,3.478,0,0,1-.568,1.985,6.667,6.667,0,0,1-1.744,1.831,9.681,9.681,0,0,1-2.5,1.281,10.461,10.461,0,0,1-1.3.381,30.712,30.712,0,0,0-2.861,1.219c-.9.289-2.187.323-2.592-.761-.366-1,.833-1.474,1.474-1.619a2.345,2.345,0,0,0-.3.169,2.509,2.509,0,0,1-.776.246,1.195,1.195,0,0,1-1.392-1.493,1.443,1.443,0,0,1,1.744-1.156,1.924,1.924,0,0,0-.366.145,2.652,2.652,0,0,1-.829.154c-.79,0-1.262-.882-1.04-1.782s1.185-1.021,1.778-1.084a4.333,4.333,0,0,0-.617.246,2.8,2.8,0,0,1-.819.149c-.723,0-.838-.6-.713-1.214a1.831,1.831,0,0,1,2.043-1.5,4.572,4.572,0,0,0,1.787-.631A10.748,10.748,0,0,1,413,268.21Z" transform="translate(-278.004 -164.908)"/><path class="i" d="M287.78,118.779s3.112-2.091,5.188,1.065C292.968,119.844,290.458,121.935,287.78,118.779Z" transform="translate(-217.004 -88.73)"/><path class="l" d="M287.81,118.767s3.107-2.1,5.188,1.065" transform="translate(-217.02 -88.723)"/><path class="m" d="M293.341,118.487a3.2,3.2,0,0,0-1.007-.111,1.214,1.214,0,0,0-.434,2.052,3.5,3.5,0,0,0,.925.313,1.214,1.214,0,0,0,.515-2.254Z" transform="translate(-218.933 -88.871)"/><path class="i" d="M269.45,110.478s3.81-1.214,5.087,2.25C274.532,112.728,271.276,114.207,269.45,110.478Z" transform="translate(-207.504 -84.673)"/><path class="n" d="M274.527,112.7s-.935-3.228-5.087-2.211" transform="translate(-207.499 -84.682)"/><path class="m" d="M275.672,112.88a1.291,1.291,0,0,0-.289-1.3,3.651,3.651,0,0,0-.891-.4A1.281,1.281,0,0,0,273.4,113.2a3.473,3.473,0,0,0,1.354.515,1.291,1.291,0,0,0,.92-.833Z" transform="translate(-209.43 -85.142)"/><path class="a" d="M270.24,101.937l7.4,1a3.979,3.979,0,0,0-4.124-2.327C270.288,100.771,270.24,101.937,270.24,101.937Z" transform="translate(-207.914 -79.663)"/><path class="a" d="M294.82,108.743l1.6,1.06,1.195.795a4.127,4.127,0,0,0,.776.482,2.309,2.309,0,0,0-1.161-2.307,2.442,2.442,0,0,0-1.214-.332,2.675,2.675,0,0,0-.65.082A5.254,5.254,0,0,1,294.82,108.743Z" transform="translate(-220.653 -83.723)"/><path class="o" d="M211.507,178.527q-.732,8.093-.843,16.22-.029,2.023,0,4.047c0,.684,0,1.368.024,2.052a2.948,2.948,0,0,0,.226,1.339,1.566,1.566,0,0,0,1.108.752c.593.14,1.214.2,1.811.284l4.056.6a9.362,9.362,0,0,1,1.792.308,1.016,1.016,0,0,1,.578,1.411,5.575,5.575,0,0,1-.891,1.445c-.366.482-.756.963-1.161,1.411a23.351,23.351,0,0,1-2.635,2.486,3.94,3.94,0,0,0-.992,1.065,2.033,2.033,0,0,0-.169,1.474,10.693,10.693,0,0,0,.674,1.8l.79,1.927,1.551,3.753,3.1,7.515,6.234,15.088.766,1.85c.087.207.549.072.482-.125l-6.243-15.03-6.21-15.025c-.448-1.084-1.233-2.409-.323-3.478a10.92,10.92,0,0,1,1.277-1.122c.434-.371.848-.761,1.253-1.166a21.544,21.544,0,0,0,2.327-2.751c.482-.674,1.137-1.8.376-2.519a2.245,2.245,0,0,0-1.262-.482l-2.023-.3-3.989-.593a2.861,2.861,0,0,1-1.686-.515,2.193,2.193,0,0,1-.371-1.57q-.029-2.023,0-4.047c0-5.391.255-10.786.689-16.157.058-.665.111-1.325.173-1.985,0-.241-.453-.178-.482.034Z" transform="translate(-177.03 -119.95)"/><path class="o" d="M276.927,172.6l4.817,13.643a16.959,16.959,0,0,1,1.416,6.532,7.134,7.134,0,0,1-.275,1.595c-.154.511-.4.963-.573,1.484a2.645,2.645,0,0,0,.173,2.11c.67,1.281,1.927,2.129,2.784,3.281a4.22,4.22,0,0,1,.814,2.592c0,1.195-.077,2.409-.12,3.6l-.53,14.486-.535,14.49-.063,1.835c0,.193.482.1.482-.058l.535-14.553.53-14.553.135-3.671a8.573,8.573,0,0,0-.178-3.232c-.506-1.4-1.787-2.327-2.722-3.42a3.651,3.651,0,0,1-.964-1.826c-.135-1,.482-1.864.747-2.789a11.263,11.263,0,0,0-.612-6.354c-.732-2.264-1.575-4.49-2.37-6.744l-2.409-6.85-.612-1.729c-.063-.164-.525-.029-.482.125Z" transform="translate(-211.373 -116.869)"/><path class="o" d="M290.26,350.336v12.472c0,.222.482.14.482-.048V350.292C290.742,350.066,290.26,350.148,290.26,350.336Z" transform="translate(-218.289 -208.997)"/><path class="o" d="M196.2,247.661c-.352,4.451-.342,8.917-.289,13.378s.159,8.926,0,13.387c-.092,2.519-.279,5.039-.6,7.539,0,.207.443.135.482-.048a102.815,102.815,0,0,0,.7-13.339c0-4.466-.149-8.931-.106-13.4,0-2.524.111-5.049.308-7.568,0-.212-.458-.135-.482.048Z" transform="translate(-169.08 -155.786)"/><path class="o" d="M183.672,319.356a11.35,11.35,0,0,1,5.81.482c.183.067.544-.2.275-.294a11.8,11.8,0,0,0-6.031-.5c-.087,0-.251.063-.255.178s.116.149.207.135Z" transform="translate(-162.943 -192.778)"/><path class="o" d="M181.359,324.818a48.685,48.685,0,0,1,6.06-2.1c.039,0,.231-.063.212-.13s-.217,0-.25,0a50.281,50.281,0,0,0-6.287,2.182c-.072.029-.125.063-.058.116s.265-.039.323-.063Z" transform="translate(-161.666 -194.694)"/><path class="o" d="M197.865,321.219a14.97,14.97,0,0,1,5.251-.617h23.431c.265,0,.356-.342.039-.342H203.4a16.282,16.282,0,0,0-5.737.684.173.173,0,0,0-.106.241C197.614,321.286,197.778,321.252,197.865,321.219Z" transform="translate(-170.233 -193.503)"/><path class="o" d="M180.374,360.74q6.889-1.166,13.8-2.168t13.845-1.845q3.945-.482,7.891-.906c.077,0,.275-.029.313-.111s-.029-.1-.116-.092q-6.971.761-13.927,1.667T188.3,359.28q-3.926.607-7.838,1.272c-.193.034-.409.246-.082.188Z" transform="translate(-161.254 -211.828)"/><path class="a" d="M248,100.49a7.817,7.817,0,0,0,.2,2.756c.039.154.39.063.347-.1a7.433,7.433,0,0,1-.193-2.688C248.361,100.288,248.024,100.336,248,100.49Z" transform="translate(-196.368 -79.531)"/><path class="a" d="M247.828,129.481c-.135,2.148,1.026,4.128,2.206,5.829a15.791,15.791,0,0,0,4.1,4.283,8.016,8.016,0,0,0,3.035,1.257c.116,0,.409-.159.212-.193a9.56,9.56,0,0,1-4.957-2.89,21.363,21.363,0,0,1-3.464-4.894,7.019,7.019,0,0,1-.79-3.411c0-.145-.342-.077-.347.043Z" transform="translate(-196.293 -94.576)"/><path class="p" d="M224.984,175.127a42.51,42.51,0,0,1,7.645,5.6c.1.092.52-.087.434-.164a42.477,42.477,0,0,0-7.645-5.578c-.12-.072-.515.12-.438.164Z" transform="translate(-184.451 -118.202)"/><path class="a" d="M281.114,122.913a5.708,5.708,0,0,0,.169,2.211,4.034,4.034,0,0,1,.144.525c0,.116,0,.342-.106.419a1.445,1.445,0,0,1-.482.067,5.185,5.185,0,0,1-.612,0,.332.332,0,0,0-.3.135c-.053.1.043.149.13.154.636.029,1.961.087,1.84-.877a4.578,4.578,0,0,0-.173-.646c-.053-.212-.1-.434-.13-.655a5.569,5.569,0,0,1,0-1.387c.024-.2-.448-.125-.482.048Z" transform="translate(-212.925 -91.134)"/><path class="a" d="M269.263,133.9c-.173,1.5,1.084,2.755,2.274,3.478a2.943,2.943,0,0,0,1.927.438,5.567,5.567,0,0,0,2.086-.814c.27-.154-.149-.159-.275-.087a4.259,4.259,0,0,1-1.884.708,2.89,2.89,0,0,1-1.821-.7c-.963-.727-1.985-1.782-1.831-3.1,0-.14-.448-.048-.482.077Z" transform="translate(-207.399 -96.843)"/><path class="p" d="M203.194,161.891a2.61,2.61,0,0,0,.737,1.484l1.219,1.619,2.442,3.247,1.224,1.623c.265.352.568,1.012,1.084,1.012s.93-.429,1.3-.737c.482-.39.935-.79,1.392-1.2q1.6-1.445,3.073-3.035c.106-.116-.342-.067-.424,0q-1.166,1.257-2.409,2.409c-.409.385-.824.761-1.253,1.127l-.646.607-.357.294a1.556,1.556,0,0,1-.385.3c-.265.082-.458-.289-.583-.453l-.573-.766-1.079-1.445-2.192-2.89-1.238-1.643c-.371-.482-.906-1.021-.886-1.681,0-.092-.482-.024-.482.125Z" transform="translate(-173.148 -111.339)"/><path class="o" d="M345.607,266.825a7.785,7.785,0,0,1-1.729,3.984c-.072.087.063.13.13.135a.385.385,0,0,0,.3-.13,7.886,7.886,0,0,0,1.758-4.047c.024-.183-.443-.1-.482.058Z" transform="translate(-246.067 -165.726)"/><path class="o" d="M350.45,267.8v2.539c0,.12.482.043.482-.125v-2.539C350.932,267.558,350.45,267.64,350.45,267.8Z" transform="translate(-249.484 -166.222)"/></g></g><g transform="translate(498.776 -317.24)"><g transform="matrix(0.998, 0.07, -0.07, 0.998, 93.629, -3.965)"><path class="c" d="M1.56.323l5.763,8.9-.953.617L0,0Z" transform="translate(0 0)"/><rect class="q" width="10.112" height="3.937" transform="matrix(-0.543, -0.839, 0.839, -0.543, 22.608, 37.502)"/><rect class="q" width="4.885" height="2.272" transform="matrix(-0.543, -0.839, 0.839, -0.543, 5.894, 10.152)"/><path class="r" d="M.194,4.4,12.237,23a1.247,1.247,0,0,0,1.726.37L17.757,20.9a1.247,1.247,0,0,0,.37-1.726L6.109.571A1.247,1.247,0,0,0,4.382.2h0L.588,2.672A1.252,1.252,0,0,0,.194,4.4Z" transform="translate(3.88 7.331)"/><rect class="s" width="2.234" height="12.156" transform="matrix(-0.543, -0.839, 0.839, -0.543, 15.258, 33.712)"/><rect class="s" width="3.638" height="8.201" transform="matrix(-0.543, -0.839, 0.839, -0.543, 21.889, 40.313)"/><line class="t" x1="2.002" y2="1.295" transform="translate(16.496 21.154)"/><line class="t" x1="2.002" y2="1.3" transform="translate(15.325 19.237)"/><line class="t" x1="2.002" y2="1.295" transform="translate(19.019 25)"/><line class="t" x1="2.002" y2="1.3" transform="translate(17.848 23.084)"/><line class="t" x1="3.126" y2="2.02" transform="translate(12.887 17.416)"/><line class="t" x1="2.002" y2="1.3" transform="translate(12.901 15.595)"/><line class="t" x1="2.049" y2="1.328" transform="translate(11.682 13.683)"/><line class="t" x1="1.911" y2="1.233" transform="translate(10.506 11.862)"/><line class="t" x1="1.907" y2="1.233" transform="translate(9.306 10.003)"/></g><path class="u" d="M51.14,316.344a75.512,75.512,0,0,0-10,5.355c-.109.066-.474-.09-.313-.19a74.943,74.943,0,0,1,10.022-5.35c.114-.052.474.114.313.185Z" transform="translate(50.814 -205.729)"/><path class="v" d="M111.351,330.981c-13.366,4.714-33.562,8.577-52.818,5.693-.564-.085-8.746-2.178-9.306-2.277.691-5.3,3.754-17.375,4.979-25.092.228-1.435-.106-9.78,0-10.107,0,0-2.28-25.94-4.979-33.386,0,0-2.7-4.093-2.7-4.933L44.2,267.021,32.29,259.2l18.8-31.569s1.859-3.908,7.442-5.4l8.191-1.3,8.746-.949s10.235-1.025,14.8.095c0,0,10.7,2.139,13.958,11.07l20.1,36.312-19.356,10.515-8.376-14.7,2.419,34.434S109.672,322.424,111.351,330.981Z" transform="translate(-18.284 -154.95)"/><path class="j" d="M124.406,172.254l3.32-.64.043-4.269s-4.928,2.329-8.746-3.534a25.137,25.137,0,0,1-5.061-12.559c-.313-2.884-.56-5.772-.7-8.665-.119-2.371-.175-4.781-.062-7.167.081-1.57,0-4.1.892-5.483,0,0,4.435-6.873,13.9-4.923,0,0,17.169-.636,14.309,19.394,0,0,2.642-3.908,5.435-1.674,0,0,3.164,2.371-1.072,8.7,0,0-2.974,5.355-4.558,3.956l.716,14.7,4.24.071-11.407,19.166Z" transform="translate(-81.169 -105.065)"/><path class="w" d="M102.182,135.874a2.707,2.707,0,0,0-1.115-2.979s-1.864-1.394-1.3-5.217a2.846,2.846,0,0,0-2.794-2.6s-13.28,5.165-23.715-.887c-.36-.209.417-3.4.474-3.723a14.812,14.812,0,0,1,3.382-6.877,10.1,10.1,0,0,1,3.32-2.371,27.528,27.528,0,0,1,6.246-1.423,29.906,29.906,0,0,1,4.691-.436c4.069-.062,8.314.749,11.634,3.23-.583-.436.949-2.718,1.176-2.988a6.432,6.432,0,0,1,3.254-1.755c1.779-.436,4.458-.749,6.166-.028.138.057.275.128.408.2,3.458,1.935,5.421,5.454,6.4,9.187a30.571,30.571,0,0,1,.949,12.085c-.033.2-.071.408-.123.607,0,0-3.443,14.229-.65,17.5,0,0,5.4,7.442,7.167,7.721,0,0-4.743-2.234-6.422-5.3,0,0,4,7.352,4.838,7.167,0,0-15.818,3.718-20.565-8.471a9.126,9.126,0,0,1-2.419,1.954s.949,1.769,1.859,1.864a3.476,3.476,0,0,1-2.234-1.3s.095,2.234,1.024,2.7a4.191,4.191,0,0,1-1.674-2.609l-.474,1.4-.095-7.352s-.09,1.209.949,1.209,6.977-6.982,6.166-10.05a3.121,3.121,0,0,0-3.538-3.073C105.161,133.289,103.766,133.08,102.182,135.874Z" transform="translate(-41.088 -95.981)"/><path class="x" d="M140.353,260.135s.474-2-2.419-1.115l-8.2,21.96-.185,3.538,2.419-1.859Z" transform="translate(-80.469 -175.578)"/><path class="j" d="M86.043,301.827l-26.8-17.587-3.794-6.052a4.9,4.9,0,0,0-1.3-1.3l-5.307-2.329a4.409,4.409,0,0,0-2.979-.474,1.507,1.507,0,0,0-2.6.474l-.745,4.188c.28,1.3.745.65.745.65l-.474,3.163c.65,1.3,1.769.28,1.769.28L44,284.264c.095,1.579,1.3,1.394,1.3,1.394.275.65.555.65.555.65.56.655,2.329-.65,2.329-.65a10.061,10.061,0,0,0,2.044,4.188c1.214,1.394,5.492,3.164,5.492,3.164l20.736,20.637c4.653,5.118,11.914.37,11.914.37,6.422-3.908,3.164-11.54,3.164-11.54l-1.119-2.6Z" transform="translate(8.83 -183.301)"/><path class="x" d="M167.837,271.44l-38.527.417,24.848,36.431,35.178-.138Z" transform="translate(-129.31 -182.225)"/><path class="j" d="M189.405,288.887s8.1,2.7,9.676,3.168,1.119,2.509,1.119,2.509l3.538,1.489c2.419,3.073-1.959,2.884-1.959,2.884a1.978,1.978,0,0,1-.185,2.424,3.939,3.939,0,0,1,.28.835c-.745,1.394-2.7,1.024-2.7,1.024l8.49,12.4h5.957c.4.73.877,1.423,1.224,2.186.047.1.095.213.133.318a8.707,8.707,0,0,1,.474,1.921,6.925,6.925,0,0,1-.318,3.448,4.909,4.909,0,0,1-1.366,1.926,11.057,11.057,0,0,1-2.158,1.3,6.7,6.7,0,0,1-1.9.631,5.535,5.535,0,0,1-3.178-.384,8.011,8.011,0,0,1-3.382-3,2.46,2.46,0,0,1-.161-.266l-.9-1.608-2.262-4.084-3.017-5.431-3.145-5.677-2.651-4.786-.778-1.4a14.007,14.007,0,0,1-1.015-2.054,3.007,3.007,0,0,0-.849-1.119c-.835-.745-1.489-3.794-1.489-3.794.095-2.888.095-3.443.095-3.443a44.71,44.71,0,0,1,.114-4.895Z" transform="translate(-182.827 -189.569)"/><path class="w" d="M150.38,161.935a12.094,12.094,0,0,0-5.91-.982,5.333,5.333,0,0,1,4-.825S150.323,160.659,150.38,161.935Z" transform="translate(-97.543 -123.63)"/><path class="w" d="M178.669,160.777s-3.386.242-4.269,1.143v-.285a1.366,1.366,0,0,1,.574-.74,3.083,3.083,0,0,1,2.039-.64C177.488,160.261,178.432,160.223,178.669,160.777Z" transform="translate(-140.028 -123.773)"/><path class="i" d="M178.11,171.488s-2.779-2.846-5.62,0C172.49,171.469,174.648,174.187,178.11,171.488Z" transform="translate(-138.564 -129.015)"/><path class="y" d="M178.136,171.468s-2.775-2.846-5.616,0" transform="translate(-138.603 -129.004)"/><path class="i" d="M152.533,170.083s-3.443-2.556-5.943.512C146.59,170.6,149.388,173.233,152.533,170.083Z" transform="translate(-100.702 -128.417)"/><path class="z" d="M146.59,170.56s2.068-2.945,5.929-.474" transform="translate(-100.688 -128.423)"/><path class="m" d="M152.1,171.377a1.342,1.342,0,0,1-.242-1.745,3.524,3.524,0,0,1,1.6-.531,1.352,1.352,0,0,1,.882,1.266,1.337,1.337,0,0,1-.892,1.262A3.923,3.923,0,0,1,152.1,171.377Z" transform="translate(-104.908 -128.424)"/><path class="m" d="M179.372,171.487a1.266,1.266,0,0,1-.92,1.214,3.353,3.353,0,0,1-1.062-.166,1.266,1.266,0,0,1,0-2.1,3.381,3.381,0,0,1,.949-.194,1.271,1.271,0,0,1,1.034,1.247Z" transform="translate(-141.884 -129.024)"/><path class="w" d="M168.391,176.352a4.316,4.316,0,0,1-1.423,2.471,6.062,6.062,0,0,1-.607.427c-.157.109-.1.228,0,.37s.166.232.251.341a6.165,6.165,0,0,0,1.262,1.2c.161.119-.228.076-.3,0a6.451,6.451,0,0,1-1.262-1.176c-.085-.1-.166-.209-.242-.318s-.2-.232-.209-.351c0-.213.308-.318.451-.422a4.269,4.269,0,0,0,1.707-2.666c0-.09.413,0,.389.1Z" transform="translate(-125.714 -132.153)"/><path class="w" d="M164.882,194.82c-.289,1.731-2.21,2.224-3.69,2.371-1.7.185-3.548.3-5.061-.636a3.472,3.472,0,0,1-1.518-1.859c-.066-.223.323-.223.379-.052.621,1.978,2.846,2.452,4.681,2.371,1.67-.076,4.458-.2,4.819-2.315.028-.185.422-.085.389.1Z" transform="translate(-116.855 -141.789)"/><path class="w" d="M164.03,202.879a1.153,1.153,0,0,1-.735.071.261.261,0,0,1-.128-.081.152.152,0,0,1-.033-.119c.033-.095.152-.109.237-.09h.313a.644.644,0,0,0,.133-.052.275.275,0,0,1,.152,0,.28.28,0,0,1,.128.081.133.133,0,0,1,.028.119.137.137,0,0,1-.085.085Z" transform="translate(-120.143 -146.034)"/><path class="w" d="M124.485,172.255a4.61,4.61,0,0,1-2.846,3.249.332.332,0,0,1-.275-.038c-.047-.028-.128-.119-.033-.152a4.468,4.468,0,0,0,2.76-3.164C124.12,172.018,124.514,172.117,124.485,172.255Z" transform="translate(-60.655 -129.995)"/><path class="aa" d="M102.39,234.169c-4.221,1-6.251,5.644-7.034,9.486a27.735,27.735,0,0,0,1.276,14.556,44.512,44.512,0,0,0,3.477,7.536c.095.166-.3.142-.365,0a38,38,0,0,1-5.037-14.011,25.507,25.507,0,0,1,.128-7.48,17.487,17.487,0,0,1,2.224-6.28,8.469,8.469,0,0,1,5.1-4.031c.138-.033.474.171.232.228Z" transform="translate(-25.933 -162.512)"/><path class="aa" d="M186.638,259.6q-1.565,2.547-2.931,5.217c-.081.161-.474,0-.36-.176q1.366-2.661,2.931-5.217C186.372,259.272,186.751,259.429,186.638,259.6Z" transform="translate(-152.251 -175.877)"/><path class="aa" d="M127.337,225.056q-4.743,7.7-9.552,15.381l-2.718,4.354c-.057.09-.417-.062-.389-.109q4.8-7.679,9.567-15.372l2.7-4.344c.057-.095.417.057.389.1Z" transform="translate(-60.372 -157.777)"/><path class="aa" d="M140.884,233.086l7.589,12.332,2.177,3.534c.114.19-.285.2-.379.052l-7.589-12.332-2.172-3.534c-.119-.19.285-.2.375-.052Z" transform="translate(-95.944 -162.008)"/><path class="w" d="M146.584,201.489c-1.9,2.846-5.023,4.473-8.148,5.606-.1.038-.474-.119-.318-.166,3.088-1.119,6.2-2.741,8.063-5.549.071-.1.436.043.389.109Z" transform="translate(-90.717 -145.375)"/><path class="x" d="M108.572,117.446s6.64,7.309,6.061,9.486c0,0,4.349-3.292.83-7.707a6.076,6.076,0,0,0-6.892-1.779Z" transform="translate(-46.975 -101.05)"/><g transform="translate(72.759 138.06)"><rect class="ab" width="48.601" height="37.972" rx="13.65" transform="translate(0 0)"/><rect class="i" width="40.239" height="30.891" transform="translate(4.183 3.543)"/><path class="ac" d="M53.3,406.318h-4.43l-.626-1.134-1.214,2.125-.692-1.062-.692,1.063-.849-8.5L43.908,410l-.8-3.828L42.3,407.2l-.958-2.86-.512,2.21" transform="translate(-8.877 -385.302)"/><path class="ac" d="M78.047,406.6H74.219l-.626-1.134-1.214,2.125-.692-1.062L71,407.589l-.849-8.5-.892,11.193-.8-3.828-.811,1.02-.958-2.86-.512,2.21" transform="translate(-45.648 -385.449)"/><path class="ac" d="M107.532,406.833H103.7l-.626-1.133-1.214,2.125-.692-1.062-.688,1.062-.854-8.5-.892,11.193-.792-3.823-.811,1.015-.958-2.86-.512,2.215-4.786.014" transform="translate(-86.849 -385.57)"/><path class="q" d="M108.44,382.164a1.821,1.821,0,0,1,3.292-1.081,1.821,1.821,0,0,1,3.292,1.081c0,2.974-3.292,4.373-3.292,4.373S108.44,385.071,108.44,382.164Z" transform="translate(-102.668 -375.59)"/></g></g></g></g></svg>