<svg xmlns="http://www.w3.org/2000/svg" width="17.638" height="19.029" viewBox="0 0 17.638 19.029"><defs><style>.a{fill:#07134a;stroke:#fff;}</style></defs><g transform="translate(0.5 0.529)"><path class="a" d="M.769,18a.767.767,0,0,1-.1-.006C.251,17.952,0,17.551,0,16.919V1.066C0,.5.242.116.664.02L9.505,8.977.671,17.993,9.9,9.335l2.365,2.444L1.462,17.771l-.076.042A1.3,1.3,0,0,1,.769,18Zm12.208-6.613h0L10.311,8.962l2.68-2.4.472.261.01.005,1.459.806,1.193.659c.34.188.512.407.512.651a.905.905,0,0,1-.512.7L13.874,10.89l-.8.445-.094.052ZM9.9,8.551h0L.665.02A.884.884,0,0,1,.854,0a1.107,1.107,0,0,1,.533.145L6.06,2.728,8.025,3.814,12.1,6.067l.165.091L9.906,8.55Z"/></g></svg>