<svg xmlns="http://www.w3.org/2000/svg" width="17" height="17" viewBox="0 0 17 17"><defs><style>.a,.b{fill:none;}.b{stroke:#fff;stroke-linecap:round;stroke-linejoin:round;stroke-miterlimit:10;}</style></defs><g transform="translate(-0.374 -0.488)"><rect class="a" width="17" height="17" transform="translate(0.374 0.488)"/><g transform="translate(1.147 1.985)"><path class="b" d="M1.191,10.124h0A1.2,1.2,0,0,1,0,8.933V0H2.382V8.933A1.2,1.2,0,0,1,1.191,10.124Z" transform="translate(6.551)"/><path class="b" d="M1.191,10.124h0A1.2,1.2,0,0,1,0,8.933V0H2.382V8.933A1.2,1.2,0,0,1,1.191,10.124Z" transform="translate(2.382)"/><path class="b" d="M1.191,10.124h0A1.2,1.2,0,0,1,0,8.933V0H2.382V8.933A1.2,1.2,0,0,1,1.191,10.124Z" transform="translate(10.719)"/><path class="b" d="M13.1,0h2.382V11.315H0V0H2.382" transform="translate(0 2.382)"/><path class="b" d="M0,.75H2.382" transform="translate(2.382 4.014)"/><path class="b" d="M0,.75H2.382" transform="translate(10.719 4.014)"/><path class="b" d="M0,.75H2.382" transform="translate(6.551 2.823)"/></g></g></svg>