<svg xmlns="http://www.w3.org/2000/svg" width="21" height="21" viewBox="0 0 21 21"><defs><style>.a{fill:#fff;opacity:0.65;}</style></defs><path class="a" d="M10.5,21c-2.831,0-3.2-.012-4.328-.063a7.759,7.759,0,0,1-2.55-.488,5.146,5.146,0,0,1-1.859-1.211,5.138,5.138,0,0,1-1.211-1.86,7.754,7.754,0,0,1-.488-2.55C.012,13.7,0,13.331,0,10.5S.012,7.3.064,6.171a7.755,7.755,0,0,1,.488-2.55,5.14,5.14,0,0,1,1.21-1.858A5.149,5.149,0,0,1,3.623.551,7.746,7.746,0,0,1,6.173.063C7.291.012,7.663,0,10.5,0s3.21.012,4.329.063a7.749,7.749,0,0,1,2.55.488,5.146,5.146,0,0,1,1.858,1.211,5.141,5.141,0,0,1,1.211,1.86,7.742,7.742,0,0,1,.488,2.55C20.988,7.285,21,7.656,21,10.5s-.012,3.215-.063,4.329a7.74,7.74,0,0,1-.488,2.55,5.368,5.368,0,0,1-3.07,3.071,7.762,7.762,0,0,1-2.55.488C13.7,20.988,13.33,21,10.5,21Zm0-19.108c-2.807,0-3.139.01-4.243.061a5.81,5.81,0,0,0-1.95.361A3.248,3.248,0,0,0,3.1,3.1a3.248,3.248,0,0,0-.785,1.207,5.81,5.81,0,0,0-.362,1.95c-.05,1.1-.061,1.436-.061,4.243s.01,3.139.061,4.243a5.81,5.81,0,0,0,.362,1.95A3.25,3.25,0,0,0,3.1,17.9a3.248,3.248,0,0,0,1.207.785,5.815,5.815,0,0,0,1.95.362c1.1.05,1.435.061,4.243.061s3.139-.01,4.244-.061a5.8,5.8,0,0,0,1.95-.361,3.475,3.475,0,0,0,1.993-1.993,5.789,5.789,0,0,0,.361-1.95c.05-1.1.062-1.434.062-4.243s-.01-3.14-.062-4.243a5.789,5.789,0,0,0-.361-1.95A3.244,3.244,0,0,0,17.9,3.1a3.247,3.247,0,0,0-1.208-.785,5.8,5.8,0,0,0-1.95-.361C13.639,1.9,13.307,1.892,10.5,1.892Zm0,14a5.375,5.375,0,1,1,2.1-.424,5.375,5.375,0,0,1-2.1.424ZM10.5,7a3.5,3.5,0,1,0,2.475,1.025A3.5,3.5,0,0,0,10.5,7Zm5.6-.845a1.26,1.26,0,1,1,1.26-1.26,1.26,1.26,0,0,1-1.26,1.26Z"/></svg>