<svg xmlns="http://www.w3.org/2000/svg" width="17" height="17" viewBox="0 0 17 17"><defs><style>.a,.b{fill:none;}.b{stroke:#fff;stroke-linecap:round;stroke-linejoin:round;stroke-miterlimit:10;}</style></defs><g transform="translate(-0.412 -0.473)"><rect class="a" width="17" height="17" transform="translate(0.412 0.473)"/><g transform="translate(2.893 1.719)"><g transform="translate(0 0.178)"><path class="b" d="M11.535,2.5c0-4.051-4.614-1.968-5.767-1.968S0-1.49,0,2.5A8.908,8.908,0,0,0,1.038,6.67,4.735,4.735,0,0,1,1.5,9.853c-.231,1.1-.98,5.208.231,5.208,1.73,0,1.73-5.208,4.037-5.208S8.651,15.061,9.8,15.061c1.269,0,.461-4.109.231-5.208A4.687,4.687,0,0,1,10.5,6.67,8.733,8.733,0,0,0,11.535,2.5Z" transform="translate(0 0)"/></g></g></g></svg>