<svg xmlns="http://www.w3.org/2000/svg" width="16.498" height="16.185" viewBox="0 0 16.498 16.185"><defs><style>.a{fill:none;stroke:#fff;}</style></defs><g transform="translate(0.5 0.69)"><g transform="translate(15.498 14.995) rotate(180)"><path class="a" d="M5.122,0H0A7.611,7.611,0,0,0,3.707,6.567L6.269,2.028A2.352,2.352,0,0,1,5.122,0Z" transform="translate(0 8.428)"/><path class="a" d="M4.441,5.239a3.1,3.1,0,0,1,1.372.316L8.883,1.017A10.025,10.025,0,0,0,4.441,0,10.023,10.023,0,0,0,0,1.017L3.069,5.555A3.1,3.1,0,0,1,4.441,5.239Z" transform="translate(3.308)"/><path class="a" d="M0,2.028,2.562,6.567A7.61,7.61,0,0,0,6.269,0H1.147A2.352,2.352,0,0,1,0,2.028Z" transform="translate(9.229 8.428)"/><circle class="a" cx="1.294" cy="1.294" r="1.294" transform="translate(6.427 6.713)"/></g></g></svg>