<svg xmlns="http://www.w3.org/2000/svg" width="121.36" height="186.681" viewBox="0 0 121.36 186.681"><defs><style>.a{fill:#727272;}.b{fill:#5282c2;}.c,.k{fill:#fff;}.c,.e{stroke:#3f3f3f;stroke-width:0.75px;}.c,.e,.l,.q{stroke-miterlimit:10;}.d{fill:#3f3f3f;}.e,.l,.m,.q{fill:none;}.f{fill:#589997;}.g{fill:#adabce;}.h{fill:#f8b99f;}.i{fill:#1d1e1b;}.j{fill:#2b4359;}.l,.m{stroke:#130a0b;stroke-linecap:round;stroke-width:0.46px;}.m{stroke-linejoin:round;}.n{fill:#040506;}.o{fill:#7c7cb6;}.p{fill:#2b2b2b;}.q{stroke:#1d1d1b;stroke-width:0.8px;}</style></defs><g transform="translate(0 3.965)"><g transform="matrix(0.998, 0.07, -0.07, 0.998, 93.629, -3.965)"><path class="a" d="M1.56.323l5.763,8.9-.953.617L0,0Z" transform="translate(0 0)"/><rect class="b" width="10.112" height="3.937" transform="matrix(-0.543, -0.839, 0.839, -0.543, 22.608, 37.502)"/><rect class="b" width="4.885" height="2.272" transform="matrix(-0.543, -0.839, 0.839, -0.543, 5.894, 10.152)"/><path class="c" d="M.194,4.4,12.237,23a1.247,1.247,0,0,0,1.726.37L17.757,20.9a1.247,1.247,0,0,0,.37-1.726L6.109.571A1.247,1.247,0,0,0,4.382.2h0L.588,2.672A1.252,1.252,0,0,0,.194,4.4Z" transform="translate(3.88 7.331)"/><rect class="d" width="2.234" height="12.156" transform="matrix(-0.543, -0.839, 0.839, -0.543, 15.258, 33.712)"/><rect class="d" width="3.638" height="8.201" transform="matrix(-0.543, -0.839, 0.839, -0.543, 21.889, 40.313)"/><line class="e" x1="2.002" y2="1.295" transform="translate(16.496 21.154)"/><line class="e" x1="2.002" y2="1.3" transform="translate(15.325 19.237)"/><line class="e" x1="2.002" y2="1.295" transform="translate(19.019 25)"/><line class="e" x1="2.002" y2="1.3" transform="translate(17.848 23.084)"/><line class="e" x1="3.126" y2="2.02" transform="translate(12.887 17.416)"/><line class="e" x1="2.002" y2="1.3" transform="translate(12.901 15.595)"/><line class="e" x1="2.049" y2="1.328" transform="translate(11.682 13.683)"/><line class="e" x1="1.911" y2="1.233" transform="translate(10.506 11.862)"/><line class="e" x1="1.907" y2="1.233" transform="translate(9.306 10.003)"/></g><path class="f" d="M51.14,316.344a75.512,75.512,0,0,0-10,5.355c-.109.066-.474-.09-.313-.19a74.943,74.943,0,0,1,10.022-5.35c.114-.052.474.114.313.185Z" transform="translate(50.814 -205.729)"/><path class="g" d="M111.351,330.981c-13.366,4.714-33.562,8.577-52.818,5.693-.564-.085-8.746-2.178-9.306-2.277.691-5.3,3.754-17.375,4.979-25.092.228-1.435-.106-9.78,0-10.107,0,0-2.28-25.94-4.979-33.386,0,0-2.7-4.093-2.7-4.933L44.2,267.021,32.29,259.2l18.8-31.569s1.859-3.908,7.442-5.4l8.191-1.3,8.746-.949s10.235-1.025,14.8.095c0,0,10.7,2.139,13.958,11.07l20.1,36.312-19.356,10.515-8.376-14.7,2.419,34.434S109.672,322.424,111.351,330.981Z" transform="translate(-18.284 -154.95)"/><path class="h" d="M124.406,172.254l3.32-.64.043-4.269s-4.928,2.329-8.746-3.534a25.137,25.137,0,0,1-5.061-12.559c-.313-2.884-.56-5.772-.7-8.665-.119-2.371-.175-4.781-.062-7.167.081-1.57,0-4.1.892-5.483,0,0,4.435-6.873,13.9-4.923,0,0,17.169-.636,14.309,19.394,0,0,2.642-3.908,5.435-1.674,0,0,3.164,2.371-1.072,8.7,0,0-2.974,5.355-4.558,3.956l.716,14.7,4.24.071-11.407,19.166Z" transform="translate(-81.169 -105.065)"/><path class="i" d="M102.182,135.874a2.707,2.707,0,0,0-1.115-2.979s-1.864-1.394-1.3-5.217a2.846,2.846,0,0,0-2.794-2.6s-13.28,5.165-23.715-.887c-.36-.209.417-3.4.474-3.723a14.812,14.812,0,0,1,3.382-6.877,10.1,10.1,0,0,1,3.32-2.371,27.528,27.528,0,0,1,6.246-1.423,29.906,29.906,0,0,1,4.691-.436c4.069-.062,8.314.749,11.634,3.23-.583-.436.949-2.718,1.176-2.988a6.432,6.432,0,0,1,3.254-1.755c1.779-.436,4.458-.749,6.166-.028.138.057.275.128.408.2,3.458,1.935,5.421,5.454,6.4,9.187a30.571,30.571,0,0,1,.949,12.085c-.033.2-.071.408-.123.607,0,0-3.443,14.229-.65,17.5,0,0,5.4,7.442,7.167,7.721,0,0-4.743-2.234-6.422-5.3,0,0,4,7.352,4.838,7.167,0,0-15.818,3.718-20.565-8.471a9.126,9.126,0,0,1-2.419,1.954s.949,1.769,1.859,1.864a3.476,3.476,0,0,1-2.234-1.3s.095,2.234,1.024,2.7a4.191,4.191,0,0,1-1.674-2.609l-.474,1.4-.095-7.352s-.09,1.209.949,1.209,6.977-6.982,6.166-10.05a3.121,3.121,0,0,0-3.538-3.073C105.161,133.289,103.766,133.08,102.182,135.874Z" transform="translate(-41.088 -95.981)"/><path class="j" d="M140.353,260.135s.474-2-2.419-1.115l-8.2,21.96-.185,3.538,2.419-1.859Z" transform="translate(-80.469 -175.578)"/><path class="h" d="M86.043,301.827l-26.8-17.587-3.794-6.052a4.9,4.9,0,0,0-1.3-1.3l-5.307-2.329a4.409,4.409,0,0,0-2.979-.474,1.507,1.507,0,0,0-2.6.474l-.745,4.188c.28,1.3.745.65.745.65l-.474,3.163c.65,1.3,1.769.28,1.769.28L44,284.264c.095,1.579,1.3,1.394,1.3,1.394.275.65.555.65.555.65.56.655,2.329-.65,2.329-.65a10.061,10.061,0,0,0,2.044,4.188c1.214,1.394,5.492,3.164,5.492,3.164l20.736,20.637c4.653,5.118,11.914.37,11.914.37,6.422-3.908,3.164-11.54,3.164-11.54l-1.119-2.6Z" transform="translate(8.83 -183.301)"/><path class="j" d="M167.837,271.44l-38.527.417,24.848,36.431,35.178-.138Z" transform="translate(-129.31 -182.225)"/><path class="h" d="M189.405,288.887s8.1,2.7,9.676,3.168,1.119,2.509,1.119,2.509l3.538,1.489c2.419,3.073-1.959,2.884-1.959,2.884a1.978,1.978,0,0,1-.185,2.424,3.939,3.939,0,0,1,.28.835c-.745,1.394-2.7,1.024-2.7,1.024l8.49,12.4h5.957c.4.73.877,1.423,1.224,2.186.047.1.095.213.133.318a8.707,8.707,0,0,1,.474,1.921,6.925,6.925,0,0,1-.318,3.448,4.909,4.909,0,0,1-1.366,1.926,11.057,11.057,0,0,1-2.158,1.3,6.7,6.7,0,0,1-1.9.631,5.535,5.535,0,0,1-3.178-.384,8.011,8.011,0,0,1-3.382-3,2.46,2.46,0,0,1-.161-.266l-.9-1.608-2.262-4.084-3.017-5.431-3.145-5.677-2.651-4.786-.778-1.4a14.007,14.007,0,0,1-1.015-2.054,3.007,3.007,0,0,0-.849-1.119c-.835-.745-1.489-3.794-1.489-3.794.095-2.888.095-3.443.095-3.443a44.71,44.71,0,0,1,.114-4.895Z" transform="translate(-182.827 -189.569)"/><path class="i" d="M150.38,161.935a12.094,12.094,0,0,0-5.91-.982,5.333,5.333,0,0,1,4-.825S150.323,160.659,150.38,161.935Z" transform="translate(-97.543 -123.63)"/><path class="i" d="M178.669,160.777s-3.386.242-4.269,1.143v-.285a1.366,1.366,0,0,1,.574-.74,3.083,3.083,0,0,1,2.039-.64C177.488,160.261,178.432,160.223,178.669,160.777Z" transform="translate(-140.028 -123.773)"/><path class="k" d="M178.11,171.488s-2.779-2.846-5.62,0C172.49,171.469,174.648,174.187,178.11,171.488Z" transform="translate(-138.564 -129.015)"/><path class="l" d="M178.136,171.468s-2.775-2.846-5.616,0" transform="translate(-138.603 -129.004)"/><path class="k" d="M152.533,170.083s-3.443-2.556-5.943.512C146.59,170.6,149.388,173.233,152.533,170.083Z" transform="translate(-100.702 -128.417)"/><path class="m" d="M146.59,170.56s2.068-2.945,5.929-.474" transform="translate(-100.688 -128.423)"/><path class="n" d="M152.1,171.377a1.342,1.342,0,0,1-.242-1.745,3.524,3.524,0,0,1,1.6-.531,1.352,1.352,0,0,1,.882,1.266,1.337,1.337,0,0,1-.892,1.262A3.923,3.923,0,0,1,152.1,171.377Z" transform="translate(-104.908 -128.424)"/><path class="n" d="M179.372,171.487a1.266,1.266,0,0,1-.92,1.214,3.353,3.353,0,0,1-1.062-.166,1.266,1.266,0,0,1,0-2.1,3.381,3.381,0,0,1,.949-.194,1.271,1.271,0,0,1,1.034,1.247Z" transform="translate(-141.884 -129.024)"/><path class="i" d="M168.391,176.352a4.316,4.316,0,0,1-1.423,2.471,6.062,6.062,0,0,1-.607.427c-.157.109-.1.228,0,.37s.166.232.251.341a6.165,6.165,0,0,0,1.262,1.2c.161.119-.228.076-.3,0a6.451,6.451,0,0,1-1.262-1.176c-.085-.1-.166-.209-.242-.318s-.2-.232-.209-.351c0-.213.308-.318.451-.422a4.269,4.269,0,0,0,1.707-2.666c0-.09.413,0,.389.1Z" transform="translate(-125.714 -132.153)"/><path class="i" d="M164.882,194.82c-.289,1.731-2.21,2.224-3.69,2.371-1.7.185-3.548.3-5.061-.636a3.472,3.472,0,0,1-1.518-1.859c-.066-.223.323-.223.379-.052.621,1.978,2.846,2.452,4.681,2.371,1.67-.076,4.458-.2,4.819-2.315.028-.185.422-.085.389.1Z" transform="translate(-116.855 -141.789)"/><path class="i" d="M164.03,202.879a1.153,1.153,0,0,1-.735.071.261.261,0,0,1-.128-.081.152.152,0,0,1-.033-.119c.033-.095.152-.109.237-.09h.313a.644.644,0,0,0,.133-.052.275.275,0,0,1,.152,0,.28.28,0,0,1,.128.081.133.133,0,0,1,.028.119.137.137,0,0,1-.085.085Z" transform="translate(-120.143 -146.034)"/><path class="i" d="M124.485,172.255a4.61,4.61,0,0,1-2.846,3.249.332.332,0,0,1-.275-.038c-.047-.028-.128-.119-.033-.152a4.468,4.468,0,0,0,2.76-3.164C124.12,172.018,124.514,172.117,124.485,172.255Z" transform="translate(-60.655 -129.995)"/><path class="o" d="M102.39,234.169c-4.221,1-6.251,5.644-7.034,9.486a27.735,27.735,0,0,0,1.276,14.556,44.512,44.512,0,0,0,3.477,7.536c.095.166-.3.142-.365,0a38,38,0,0,1-5.037-14.011,25.507,25.507,0,0,1,.128-7.48,17.487,17.487,0,0,1,2.224-6.28,8.469,8.469,0,0,1,5.1-4.031c.138-.033.474.171.232.228Z" transform="translate(-25.933 -162.512)"/><path class="o" d="M186.638,259.6q-1.565,2.547-2.931,5.217c-.081.161-.474,0-.36-.176q1.366-2.661,2.931-5.217C186.372,259.272,186.751,259.429,186.638,259.6Z" transform="translate(-152.251 -175.877)"/><path class="o" d="M127.337,225.056q-4.743,7.7-9.552,15.381l-2.718,4.354c-.057.09-.417-.062-.389-.109q4.8-7.679,9.567-15.372l2.7-4.344c.057-.095.417.057.389.1Z" transform="translate(-60.372 -157.777)"/><path class="o" d="M140.884,233.086l7.589,12.332,2.177,3.534c.114.19-.285.2-.379.052l-7.589-12.332-2.172-3.534c-.119-.19.285-.2.375-.052Z" transform="translate(-95.944 -162.008)"/><path class="i" d="M146.584,201.489c-1.9,2.846-5.023,4.473-8.148,5.606-.1.038-.474-.119-.318-.166,3.088-1.119,6.2-2.741,8.063-5.549.071-.1.436.043.389.109Z" transform="translate(-90.717 -145.375)"/><path class="j" d="M108.572,117.446s6.64,7.309,6.061,9.486c0,0,4.349-3.292.83-7.707a6.076,6.076,0,0,0-6.892-1.779Z" transform="translate(-46.975 -101.05)"/><g transform="translate(72.759 138.06)"><rect class="p" width="48.601" height="37.972" rx="13.65" transform="translate(0 0)"/><rect class="k" width="40.239" height="30.891" transform="translate(4.183 3.543)"/><path class="q" d="M53.3,406.318h-4.43l-.626-1.134-1.214,2.125-.692-1.062-.692,1.063-.849-8.5L43.908,410l-.8-3.828L42.3,407.2l-.958-2.86-.512,2.21" transform="translate(-8.877 -385.302)"/><path class="q" d="M78.047,406.6H74.219l-.626-1.134-1.214,2.125-.692-1.062L71,407.589l-.849-8.5-.892,11.193-.8-3.828-.811,1.02-.958-2.86-.512,2.21" transform="translate(-45.648 -385.449)"/><path class="q" d="M107.532,406.833H103.7l-.626-1.133-1.214,2.125-.692-1.062-.688,1.062-.854-8.5-.892,11.193-.792-3.823-.811,1.015-.958-2.86-.512,2.215-4.786.014" transform="translate(-86.849 -385.57)"/><path class="b" d="M108.44,382.164a1.821,1.821,0,0,1,3.292-1.081,1.821,1.821,0,0,1,3.292,1.081c0,2.974-3.292,4.373-3.292,4.373S108.44,385.071,108.44,382.164Z" transform="translate(-102.668 -375.59)"/></g></g></svg>