<svg xmlns="http://www.w3.org/2000/svg" xmlns:xlink="http://www.w3.org/1999/xlink" width="190" height="179" viewBox="0 0 190 179"><defs><style>.a,.e{fill:#fff;}.a{stroke:#707070;}.b{clip-path:url(#a);}.c{fill:#e17b5e;}.d{fill:#150a0a;}.f{fill:#49a7b7;}.g,.h,.n,.y,.z{fill:none;stroke-miterlimit:10;}.g,.h,.y,.z{stroke:#130a0b;stroke-linecap:round;}.g,.h{stroke-width:0.468px;}.h,.z{stroke-linejoin:round;}.i,.v{fill:#040506;}.j{fill:#7bc4d6;}.k{fill:#5a89c6;}.l{fill:#51b9c0;}.m{fill:#257f89;}.n{stroke:#150a0a;}.o{fill:#5183c3;}.p{fill:#f5a88d;}.q{fill:#759dd3;}.r{fill:#f5a78d;}.s{fill:#140a0a;}.t{fill:#2b6fb7;}.u{fill:#164475;}.v{opacity:0;}.w{fill:#33699a;}.x{fill:#f8f8f8;}.y,.z{stroke-width:0.5px;}.aa{fill:#e5ecef;}.ab{fill:#132226;}</style><clipPath id="a"><rect class="a" width="190" height="179" transform="translate(84.589 -98.526)"/></clipPath></defs><g class="b" transform="translate(-84.589 98.526)"><g transform="translate(84.401 -98.081)"><g transform="translate(127.71 15.726)"><path class="c" d="M526.2,218.45l-1.036,14.217s-7.682.612-8.54,1.294l-.851,10.111,25.114-.483,1.516-9.628s-5.2-.815-7.74-.888l-.88-14.121Z" transform="translate(-498.901 -188.991)"/><path class="c" d="M531.474,152.3s-9.452-3.078-11.3,8.927a39.775,39.775,0,0,0-.247,7.313,1.99,1.99,0,0,0-.625-.984c-.992-.918-2.174-.184-2.694.822-1.04,2.013,1.047,4.556,2.69,5.511a3.066,3.066,0,0,0,1.131.417,7.515,7.515,0,0,1,.992.037s1.69,5.245,5.075,5.953a11.468,11.468,0,0,0,9.354-.354s3.036-2.927,3.781-5.448c0,0,1.89,2.016,4.079-1.515.713-1.146,1.93-3.505.76-4.7a2.169,2.169,0,0,0-1.421-.612c-.451,0-1.352.284-1.523.77,0,0,2.09-5.853,1.094-9.432C542.62,159.016,541.177,151.1,531.474,152.3Z" transform="translate(-499.259 -147.003)"/><g transform="translate(29.396 20.781)"><path class="d" d="M551.334,195.026c-.207.977-.451,1.943-.738,2.9-.069.229-.138.457-.215.682a1.335,1.335,0,0,0-.145.619c.033.162.174.243.309.31a6.393,6.393,0,0,0,.724.28.293.293,0,0,0,.247-.037c.036-.026.116-.1.033-.133a6.8,6.8,0,0,1-.644-.243c-.233-.1-.36-.2-.294-.472.1-.442.284-.874.411-1.309.254-.87.476-1.755.662-2.643.029-.125-.323-.07-.349.048Z" transform="translate(-550.228 -194.907)"/></g><path class="e" d="M527.44,197.137l2.236,3q2.514-.542,5.031-1.08l1.029-.221a2.953,2.953,0,0,1,1.291-.081c.36.066.72.136,1.08.2,1.029.192,2.058.387,3.087.579q1.331.249,2.665.5c.156.03,1.025.317,1.16.217l2.977-3.151-.12.929-2.185,2.635c.036.652.164,1.29.149,1.943a7.313,7.313,0,0,1-.742,3.133,5.922,5.922,0,0,1-1.836,2.492,11.753,11.753,0,0,1-5.97,2.156s-3.508-.3-5.26-1.7a8.845,8.845,0,0,1-1.189-1.036,7.11,7.11,0,0,1-1.411-3.328,11.108,11.108,0,0,1-.164-3.468l-1.571-2.33Z" transform="translate(-506.328 -175.51)"/><path class="f" d="M528.1,438.99H489.6s-4.428,48.434-4.61,55.6h19.163l5.122-33.428,2.5,33.428h18.683C530.3,488.19,529.055,440.652,528.1,438.99Z" transform="translate(-479.311 -328.24)"/><path class="e" d="M532.46,190.457s3.185-2.4,5.5.479C537.957,190.936,535.368,193.406,532.46,190.457Z" transform="translate(-509.523 -170.725)"/><path class="e" d="M559.66,190.812s2.461-3.1,5.522-.549C565.182,190.262,563.317,193.174,559.66,190.812Z" transform="translate(-526.835 -170.556)"/><path class="g" d="M559.69,190.782s2.461-3.1,5.522-.549" transform="translate(-526.854 -170.537)"/><path class="h" d="M537.946,190.9s-1.916-2.761-5.486-.442" transform="translate(-509.523 -170.734)"/><path class="i" d="M564.988,189.34a3.393,3.393,0,0,0-1.047.206,1.3,1.3,0,0,0,.2,2.215,3.6,3.6,0,0,0,1.025.029,1.3,1.3,0,0,0-.182-2.451Z" transform="translate(-529.221 -170.61)"/><path class="i" d="M539.6,190.774a1.285,1.285,0,0,0-.691-1.143,3.478,3.478,0,0,0-.963-.088,1.287,1.287,0,0,0-.9,1.231,1.3,1.3,0,0,0,.523,1.043,3.374,3.374,0,0,0,1.44.048A1.31,1.31,0,0,0,539.6,190.774Z" transform="translate(-512.438 -170.736)"/><path class="d" d="M529.42,178.021s5.944-1.172,6.1-1.334-.967-.77-1.054-.811C532.536,174.976,530.532,176.477,529.42,178.021Z" transform="translate(-507.588 -161.938)"/><path class="d" d="M559.82,176.865s5.777,1.7,5.784,1.7a9.978,9.978,0,0,1-.527-.969A3.581,3.581,0,0,0,559.82,176.865Z" transform="translate(-526.937 -162.198)"/><path class="d" d="M537.584,148.867s-12.448,1.78-16,.487c0,0-1.6,2.628-1.516,4.088a34.2,34.2,0,0,0,.2,8.5,12.015,12.015,0,0,1-2.512-7.645,18.81,18.81,0,0,1,.72-5.746c.007-.018-1.411-1.224-1.505-1.331a4.7,4.7,0,0,1-1.352-3.424,8.273,8.273,0,0,1,.516-1.946,4.283,4.283,0,0,1,.538-1.032,5.427,5.427,0,0,1,2.959-2.016,6.72,6.72,0,0,1,6.7,1.78,8.844,8.844,0,0,0,1.178-.461,13.568,13.568,0,0,1,1.367-.409,7.987,7.987,0,0,1,2.8-.229c1.145.133,3.337.866,2.374,2.436-.044.07-.091.136-.138.2,0,0,4.988.324,7.3,3.317a9.733,9.733,0,0,1,1.876,8.618s-1.316,5.463-3.352,7.969c0,0,.68-6.351.28-7.283a6.2,6.2,0,0,1-2.116-2.588C537.9,152.144,537.464,151.576,537.584,148.867Z" transform="translate(-498.797 -138.527)"/><path class="j" d="M509.857,259.126l-6.173,7.766-14.6-7.833-9.674,2.448s-6.348,1.386-8.74,7.482c0,0-2.181,2.75-.905,18.017l13.578-2.337-.683,10.542L478.3,318.054s-2.018,7.184-2.018,11.014c0,0,39.107.881,44.531-.955a84.22,84.22,0,0,0,0-13.878s-.9-24.858-.636-30.892l11.07-.177s-1.436-11-5-16.4c0,0-4.413-4.983-7.445-5.957a67.967,67.967,0,0,0-8.943-1.685" transform="translate(-469.368 -214.632)"/><path class="c" d="M571.955,324.68l2.632,17.53s.8,6.229-5.428,6.554c0,0-8.3-.487-14.524-1.537,0,0-17.716-3.155-18.355-3.48l26.633-3.8-.029-2.838s-.356-4.847-.12-12.333Z" transform="translate(-511.954 -256.065)"/><path class="c" d="M511.571,339.4l1.516,5.5L486.912,355.4a5.266,5.266,0,0,1-5.188-.73,10.008,10.008,0,0,1-2.952-3.723s-5.188-17.073-4.308-20.391l12.062-2.024,1.9,14.806S501.356,340.613,511.571,339.4Z" transform="translate(-472.548 -258.496)"/><path class="e" d="M504.217,341.753s-.956-2.912-2.552-3.966l-3.192-2.186a.842.842,0,0,0-1.036,0c-.56.405-.16,1.132-.16,1.132l.956.649-2.4-.73s-1.2-.568-1.436.324a1.127,1.127,0,0,0,.56,1.294s-.4,1.294.08,1.78c0,0,3.272,1.375,3.992,1.861l-2.872-.649a.643.643,0,0,0-.956.243c-.32.649.8,1.213.8,1.213l4.5,1.861.611,3.155,4.948-1.025Z" transform="translate(-485.272 -262.847)"/><path class="e" d="M575.089,355.425l1.116,4.7,11.412-1.537c.026,0-.349-.98-.374-1.032a6.575,6.575,0,0,0-1.632-2.134,6.11,6.11,0,0,0-3.835-1.618,14.715,14.715,0,0,0-3.2.472A20.911,20.911,0,0,0,575.089,355.425Z" transform="translate(-536.654 -274.451)"/><g transform="translate(13.764 62.544)"><g transform="translate(0 0)"><path class="k" d="M507.23,308.327a14.6,14.6,0,0,0,1.134,3.9c.258.619.531,1.231.782,1.85a.575.575,0,0,1,.065.2c-.007.122-.164.177-.251.221-.156.081-.309.166-.465.247-.334.181-.673.358-1.007.538-.073.037-.029.055.018.07a.425.425,0,0,0,.247-.066c.335-.181.673-.358,1.007-.538.182-.1.364-.192.542-.288.087-.048.211-.1.247-.2.044-.129-.073-.317-.12-.431-.062-.151-.127-.3-.189-.453-.145-.339-.291-.678-.433-1.021a15.319,15.319,0,0,1-1.229-4.121c0-.059-.36.007-.349.1Z" transform="translate(-507.229 -308.209)"/></g></g><g transform="translate(45.537 61.167)"><g transform="translate(0 0)"><path class="l" d="M594.936,304.6c-.142,1.865-.269,3.738-.309,5.606a1.684,1.684,0,0,0,.145.866.975.975,0,0,0,.807.428c.931.125,1.861.243,2.792.361a.283.283,0,0,0,.247-.066c.04-.052.051-.122-.036-.133-.872-.114-1.741-.225-2.614-.339-.385-.052-.774-.081-.92-.509a2.812,2.812,0,0,1-.062-.988q.1-2.637.3-5.271c.015-.147-.338-.081-.349.044Z" transform="translate(-594.625 -304.472)"/></g></g><g transform="translate(29.608 122.373)"><path class="m" d="M551.188,480.667q-.011-2.549-.018-5.1a1.868,1.868,0,0,1,.178-1.172,3.859,3.859,0,0,1,.891-.682c.7-.479,1.4-.962,2.1-1.441l2.4-1.648c.065-.044.029-.074-.025-.092a.371.371,0,0,0-.247.066l-4.388,3.011a7.664,7.664,0,0,0-.913.656,1.062,1.062,0,0,0-.349.826c-.018.888,0,1.777.007,2.665q.005,1.5.011,3.008c0,.07.353.015.353-.1Z" transform="translate(-550.81 -470.526)"/></g><g transform="translate(19.643 23.418)"><path class="d" d="M523.408,202.244a2.7,2.7,0,0,0,1.236,1.161.217.217,0,0,0,.251-.018c.055-.044.095-.151.015-.2a2.5,2.5,0,0,1-1.152-1.039.173.173,0,0,0-.211-.085c-.058.015-.175.088-.138.177Z" transform="translate(-523.401 -202.059)"/></g><g transform="translate(41.562 23.519)"><path class="d" d="M584.91,202.435a2.767,2.767,0,0,1-1.181,1.684c-.058.037-.04.077.022.081a.424.424,0,0,0,.247-.066,2.9,2.9,0,0,0,1.258-1.758c.018-.085-.324-.033-.345.059Z" transform="translate(-583.693 -202.333)"/></g><line class="n" y1="0.029" x2="2.618" transform="translate(29.262 19.939)"/></g><g transform="translate(0 19.156)"><path class="o" d="M180.541,446.665s-.32-7.121-3.672-12.783l-35.431-1.132s-1.756,18.935-2.076,24.6l-.3,33.3h17.654l1.8-34.434,5.362,34.434h19.243Z" transform="translate(-131.432 -327.73)"/><path class="d" d="M155.629,179.755s3.937,22.978-6.809,35.71l27.026,1.4s5.213-23.638,3.406-38.205" transform="translate(-137.644 -167.297)"/><path class="p" d="M169.49,220.55l-.425,14.888s-7.336,1.423-8.194,2.1l-1.81,8.629,25.219-1.511,1.382-7.877a44.512,44.512,0,0,0-7.289-1.349l-1.305-14.386Z" transform="translate(-144.161 -193.747)"/><path class="q" d="M137.086,264.044l6.173,7.766,15.8-8.091,7.714,2.86s4.842.649,7.235,6.742c0,0,2.181,2.75.905,18.017L160.6,289.99l1.116,9.6-.055,4.206s6.173,22.061,6.173,25.89c0,0-35.54,1.511-40.964-.324,0,0,1.916-21.146,2.607-26.863a30.472,30.472,0,0,1-2.712-14.239l-8.085.162s1.436-11,5-16.4c0,0,2.341-4.1,5.373-5.072a43.074,43.074,0,0,1,8.031-2.908" transform="translate(-118.461 -221.004)"/><path class="r" d="M174.787,154.414s-9.452-3.078-11.3,8.927a39.774,39.774,0,0,0-.247,7.313,1.989,1.989,0,0,0-.625-.984c-.992-.918-2.174-.184-2.694.822-.789,1.53.3,3.159,1.276,4.3A5.637,5.637,0,0,0,162.612,176a3.583,3.583,0,0,0,.985.4,7.039,7.039,0,0,0,1.138.052s1.69,5.245,5.075,5.953a11.468,11.468,0,0,0,9.354-.354s3.036-2.927,3.781-5.448c0,0,1.89,2.016,4.079-1.515.713-1.146,1.93-3.505.76-4.7a2.169,2.169,0,0,0-1.421-.612c-.451,0-1.352.284-1.523.77,0,0,2.09-5.853,1.094-9.432C185.933,161.123,184.49,153.2,174.787,154.414Z" transform="translate(-144.539 -151.765)"/><g transform="translate(28.482 18.668)"><path class="s" d="M196.432,198.607c-.011.881-.018,1.762.007,2.647a4.285,4.285,0,0,0,.029.612.559.559,0,0,0,.265.361,3.59,3.59,0,0,0,1.087.494c.12.033.414-.147.211-.2a3.3,3.3,0,0,1-1-.453.549.549,0,0,1-.233-.512c-.007-.184-.015-.369-.018-.557-.022-.811-.011-1.622,0-2.433.007-.151-.345-.081-.349.044Z" transform="translate(-196.422 -198.477)"/></g><path class="e" d="M171.29,199.7l2.036,2.853q2.514-.542,5.031-1.08l1.029-.221a2.953,2.953,0,0,1,1.291-.081c.36.066.72.136,1.08.2,1.029.192,2.058.387,3.087.579q1.331.249,2.661.5c.156.029,1.025.317,1.16.217l3.6-2.687-.633,1.209-2.294,1.891c.036.652.164,1.29.149,1.943a7.314,7.314,0,0,1-.742,3.133,5.922,5.922,0,0,1-1.836,2.492,11.753,11.753,0,0,1-5.969,2.156s-3.508-.3-5.261-1.7a8.852,8.852,0,0,1-1.189-1.036,7.11,7.11,0,0,1-1.411-3.328,11.11,11.11,0,0,1-.164-3.468l-1.571-2.33Z" transform="translate(-151.945 -180.582)"/><path class="d" d="M173.169,152.52s-1.276,5.717-5.744,7.446c0,0-.64,5.072.425,8.739a13.038,13.038,0,0,1-2.021-11.113s.32-8.308,10.641-9.6c0,0,8.725-2.049,12.982,8.629h0s1.683,7.564-1.607,11.821h0s.647-4.375.222-6.211c-.291-.781-1.7-2.912-7.874-4.961C180.193,157.267,173.809,155.111,173.169,152.52Z" transform="translate(-148.16 -147.832)"/><path class="e" d="M175.76,192.557s3.185-2.4,5.5.479C181.257,193.036,178.668,195.509,175.76,192.557Z" transform="translate(-154.79 -175.481)"/><path class="e" d="M202.96,192.912s2.461-3.1,5.522-.549C208.482,192.362,206.617,195.278,202.96,192.912Z" transform="translate(-172.101 -175.312)"/><path class="g" d="M202.99,192.892s2.461-3.1,5.522-.549" transform="translate(-172.121 -175.299)"/><path class="h" d="M181.246,193.014s-1.916-2.761-5.486-.442" transform="translate(-154.79 -175.496)"/><path class="i" d="M208.278,191.44a3.393,3.393,0,0,0-1.047.206,1.3,1.3,0,0,0,.2,2.215,3.6,3.6,0,0,0,1.025.029,1.3,1.3,0,0,0-.182-2.451Z" transform="translate(-174.482 -175.366)"/><path class="i" d="M182.886,192.874a1.286,1.286,0,0,0-.691-1.143,3.478,3.478,0,0,0-.963-.088,1.287,1.287,0,0,0-.9,1.231,1.3,1.3,0,0,0,.524,1.043,3.373,3.373,0,0,0,1.44.048A1.291,1.291,0,0,0,182.886,192.874Z" transform="translate(-157.699 -175.492)"/><path class="d" d="M173.99,180.009s5.94-.8,6.009-.807c-.153.022-.4-.291-.505-.369C177.855,177.646,175.212,178.608,173.99,180.009Z" transform="translate(-153.663 -167.068)"/><path class="d" d="M204.87,179.339l2.592.549a25.94,25.94,0,0,0,3.181.66,4.288,4.288,0,0,0-4.283-1.8,4.115,4.115,0,0,0-.807.229C205.43,179.03,204.972,179.358,204.87,179.339Z" transform="translate(-173.317 -167.313)"/><path class="p" d="M120.744,330.472,118.112,348s-.8,6.229,5.428,6.554c0,0,8.3-.487,14.524-1.537,0,0,17.716-3.155,18.355-3.48l-27.771-3.966.451-1.025s-3.7-7.254-2.712-14.239Z" transform="translate(-118.078 -263.049)"/><path class="p" d="M163.366,341.6l-1.516,5.5,25.376,10.439a5.266,5.266,0,0,0,5.188-.73,10.008,10.008,0,0,0,2.952-3.723s5.188-17.073,4.308-20.391L188.5,330.67l-2.792,14.807S173.582,342.808,163.366,341.6Z" transform="translate(-145.937 -263.277)"/><path class="e" d="M215.693,343.753s.956-2.912,2.552-3.966l3.192-2.186a.842.842,0,0,1,1.036,0c.556.405.16,1.132.16,1.132l-.956.649,2.4-.73s1.2-.568,1.436.324a1.127,1.127,0,0,1-.56,1.294s.4,1.294-.08,1.78c0,0-3.272,1.375-3.992,1.861l2.872-.649a.643.643,0,0,1,.956.243c.32.649-.8,1.213-.8,1.213l-4.5,1.861-.611,3.155-4.948-1.025Z" transform="translate(-179.032 -267.539)"/><path class="e" d="M144.088,357.954l-1.116,5.017-11.412-1.537a6.735,6.735,0,0,1,5.188-4.773S139.62,356.093,144.088,357.954Z" transform="translate(-126.659 -279.636)"/><g transform="translate(17.315 20.615)"><path class="s" d="M165.707,203.882a4.287,4.287,0,0,0,2.225,1.74.365.365,0,0,0,.247-.044c.036-.018.116-.07.044-.092a4.2,4.2,0,0,1-2.163-1.7c-.058-.088-.382.048-.353.092Z" transform="translate(-165.705 -203.761)"/></g><g transform="translate(39.738 20.751)"><path class="s" d="M229.383,204.218a3.881,3.881,0,0,1-1.84,1.651c-.04.011-.174.052-.156.114s.16.029.193.022a4.213,4.213,0,0,0,2.127-1.8c.047-.063-.04-.077-.087-.077a.321.321,0,0,0-.236.088Z" transform="translate(-227.385 -204.13)"/></g><g transform="translate(8.037 56.11)"><path class="k" d="M141.339,300.218q.442,1.089.883,2.175c.149.361.294.726.444,1.087a1.309,1.309,0,0,1,.164,1.047,9.228,9.228,0,0,1-.505.855c-.16.276-.313.56-.454.848a15.729,15.729,0,0,0-.734,1.732,16.6,16.6,0,0,0-.836,7.493,15.82,15.82,0,0,0,1.091,4.187c.055.133.4.026.353-.1a16.049,16.049,0,0,1-1.138-7.575,16.378,16.378,0,0,1,.774-3.738,16.733,16.733,0,0,1,1.661-3.476,1.05,1.05,0,0,0,.142-.973c-.142-.405-.324-.8-.484-1.2-.334-.822-.669-1.648-1-2.47-.062-.129-.407-.026-.356.1Z" transform="translate(-140.184 -300.059)"/></g><g transform="translate(39.987 56.79)"><path class="k" d="M229.15,302c-.324,1.85-.585,3.712-.771,5.581q-.142,1.421-.233,2.846c-.029.476-.069.955-.076,1.434-.007.413.371.442.694.516a13.448,13.448,0,0,0,3.047.335.381.381,0,0,0,.247-.066c.033-.037.065-.077-.022-.077a13.043,13.043,0,0,1-2.647-.254c-.2-.041-.4-.085-.593-.136-.225-.055-.374-.125-.382-.383-.011-.439.04-.892.069-1.331q.164-2.715.523-5.411c.138-1.043.3-2.083.484-3.118.022-.077-.324-.018-.342.066Z" transform="translate(-228.07 -301.902)"/></g><g transform="translate(20.711 117.246)"><path class="t" d="M175.092,466.127c1.625.84,3.228,1.732,4.8,2.68.385.232.771.468,1.152.708.185.114.371.232.553.35a1.311,1.311,0,0,1,.276.188.383.383,0,0,1,.047.354c-.182.918-.36,1.828-.473,2.757a28.408,28.408,0,0,0-.2,3.144c0,.17.353.1.353-.037a28.354,28.354,0,0,1,.636-5.728.856.856,0,0,0,.029-.538c-.08-.17-.284-.262-.433-.358-.393-.251-.789-.5-1.185-.741q-1.211-.741-2.443-1.437-1.407-.8-2.839-1.537c-.109-.055-.425.114-.265.2Z" transform="translate(-175.048 -465.921)"/></g></g><g transform="translate(32.312)"><path class="r" d="M356.4,112.982s-10.107-3.292-12.077,9.547a42.759,42.759,0,0,0-.265,7.822,2.132,2.132,0,0,0-.669-1.054c-1.058-.98-2.323-.2-2.879.881-.847,1.637.32,3.376,1.367,4.6a5.973,5.973,0,0,0,1.509,1.29,3.93,3.93,0,0,0,1.054.431,7.235,7.235,0,0,0,1.218.055s1.81,5.61,5.428,6.366a12.264,12.264,0,0,0,10-.376s3.246-3.129,4.043-5.824c0,0,2.021,2.156,4.363-1.618.76-1.227,2.061-3.745.811-5.028a2.308,2.308,0,0,0-1.52-.652c-.483-.007-1.443.306-1.629.826,0,0,2.236-6.259,1.171-10.088C368.318,120.159,366.776,111.688,356.4,112.982Z" transform="translate(-291.772 -106.433)"/><g transform="translate(61.841 23.285)"><path class="s" d="M378.1,159.177q-.349,1.338-.76,2.661a3.1,3.1,0,0,0-.269,1.191.675.675,0,0,0,.582.619c.182.018.353-.247.116-.273-.465-.048-.349-.675-.258-.973.109-.361.229-.719.338-1.076.218-.719.418-1.445.607-2.171.047-.181-.313-.144-.356.022Z" transform="translate(-377.063 -159.035)"/></g><path class="e" d="M357.44,153.776s3.406-2.562,5.879.512C363.319,154.288,360.552,156.931,357.44,153.776Z" transform="translate(-302.733 -131.797)"/><path class="u" d="M357.8,413.93l-42.139.431-4.01,64.4h20.26l4.181-41.1,3.192-.217,5.49,41.32h20.46Z" transform="translate(-273.59 -296.691)"/><path class="e" d="M386.52,154.158s2.632-3.317,5.9-.586C392.428,153.569,390.432,156.687,386.52,154.158Z" transform="translate(-321.241 -131.62)"/><ellipse class="v" cx="1.367" cy="1.386" rx="1.367" ry="1.386" transform="translate(66.737 20.832)"/><ellipse class="v" cx="1.367" cy="1.386" rx="1.367" ry="1.386" transform="translate(56.481 20.913)"/><path class="d" d="M360.2,138.088l-6.824,1.5s1.756-2.267,3.512-2.588C356.892,137,358.448,136.348,360.2,138.088Z" transform="translate(-300.149 -121.76)"/><path class="d" d="M387.62,138.193l6.424,1.943s-1.2-2.547-3.432-2.993A3.4,3.4,0,0,0,387.62,138.193Z" transform="translate(-321.941 -121.906)"/><path class="p" d="M350.686,182.85l-.4,15.577s-6.664.649-7.58,1.375l-1.836,5.179,27.052,2.47,1.116-7.523a54.989,54.989,0,0,0-7.86-1.294l-1.516-14.928Z" transform="translate(-292.187 -150.787)"/><path class="e" d="M351.57,162.16l2.574,2.772q2.688-.581,5.38-1.157c.367-.077.734-.158,1.1-.236A3.13,3.13,0,0,1,362,163.45c.385.074.767.144,1.152.217l3.3.619c.949.177,1.9.358,2.847.534.167.029,1.1.339,1.24.232l3.85-2.871-.68,1.294-2.454,2.024c.04.7.175,1.379.16,2.075a7.817,7.817,0,0,1-.793,3.351,6.3,6.3,0,0,1-1.963,2.665,12.553,12.553,0,0,1-6.384,2.307s-3.752-.324-5.628-1.821a9.8,9.8,0,0,1-1.269-1.106,7.621,7.621,0,0,1-1.509-3.561,11.869,11.869,0,0,1-.174-3.708l-1.89-2.145Z" transform="translate(-298.997 -137.723)"/><path class="w" d="M327.636,231.15s11.492,10.358,26.335.969l9.1,7.766,6.064,61.006s-34.475,3.561-51.871.324l4.792-65.7Z" transform="translate(-277.16 -181.283)"/><path class="x" d="M262.862,225.15s-9.576,13.487-5.639,67.859l1.65,21.5s.4,6.635-2.872,8.983a10.96,10.96,0,0,1-7.42,3.317s-9.256.243-10.216.243c0,0,3.912-45.042,7.5-75.894l-13.648,14.456,13.408,1.08L243.5,280.067l-29.156.649s-3.672.376-6.464-4.641c0,0-2.316-2.993.4-8.415,0,0,21.387-27.025,33.915-36,0,0,3.912-3.966,11.412-4.128A47.289,47.289,0,0,1,262.862,225.15Z" transform="translate(-206.959 -177.495)"/><path class="x" d="M402.88,225.44s9.256,36.086,6.384,54.372c0,0-.48,31.88-1.116,36.734,0,0-.8,6.959,7.5,10.2,0,0,3.512,1.456,11.972.649l-7.66-75.732,13.408,13.756-15.64,1.294,3.032,14.08,30.483.487s4.468-.324,6.224-5.986-1.6-8.9-1.6-8.9-24.1-29.289-28.887-31.718c0,0-5.744-4.854-9.9-5.824C417.084,228.839,406.708,225.6,402.88,225.44Z" transform="translate(-331.653 -177.678)"/><path class="r" d="M310.456,335.638l2.981-4.423s.214-.649,1.7-1.294l7.024-.431a1.757,1.757,0,0,1,1.436,1.673c0,1.4-.64,1.836-.64,1.836s.64.055.64,1.187-.585,1.242-.585,1.242a1.435,1.435,0,0,1,.691,1.349,1.321,1.321,0,0,1-.851,1.294s.425,0,.425.918-1.065,1.4-1.065,1.4.265-.269.214.593a1.57,1.57,0,0,1-.8,1.242s-2.927,1.187-3.457,1.294c0,0-6.329.649-8.194.593l-3.246-.107,1.541-8.36h2.185Z" transform="translate(-270.458 -243.376)"/><path class="r" d="M421.178,335.568l-2.981-4.423s-.215-.649-1.7-1.294l-7.024-.431a1.757,1.757,0,0,0-1.436,1.673c0,1.4.64,1.836.64,1.836s-.64.055-.64,1.187.585,1.242.585,1.242a1.435,1.435,0,0,0-.691,1.349,1.321,1.321,0,0,0,.851,1.294s-.425,0-.425.918,1.065,1.4,1.065,1.4-.265-.269-.214.593a1.57,1.57,0,0,0,.8,1.242s2.927,1.187,3.457,1.294c0,0,6.329.649,8.194.593l3.246-.107-1.541-8.36h-2.185Z" transform="translate(-334.867 -243.331)"/><path class="y" d="M386.56,154.128s2.632-3.317,5.9-.586" transform="translate(-321.267 -131.601)"/><path class="s" d="M361.863,106.458s-10.692,2.049-11.917,1.349c0,0,2.661-1.456,2.872-2.267l-6.809.324s-3.672,3.4-3.406,8.035c0,0-.105,6.2.425,7.984a15.769,15.769,0,0,1-3.087-10.088c.48-5.61,0-.217,0-.217s.371-5.017,1.116-6.1c0,0-2.981-.107-3.457-2.374,0,0,2.607.431,6.649-3.668,0,0-1.65-.324-1.861-1.08a14.033,14.033,0,0,0,3.832-1.994,5.042,5.042,0,0,1,3.352-.376s10.056-.055,15.8,6.417a2.827,2.827,0,0,1,.64,1.08s2.607.649,2.767,3.074a15.412,15.412,0,0,1-.745,7.2s-1.781,6.579-3.432,8.116c0,0,.876-6.93.4-8.441A7.966,7.966,0,0,1,361.863,106.458Z" transform="translate(-290.106 -95.862)"/><path class="z" d="M363.3,154.262s-2.047-2.952-5.864-.472" transform="translate(-302.733 -131.812)"/><path class="i" d="M392.217,152.58a3.735,3.735,0,0,0-1.12.221,1.388,1.388,0,0,0,.218,2.37,3.843,3.843,0,0,0,1.1.033,1.387,1.387,0,0,0-.2-2.624Z" transform="translate(-323.793 -131.674)"/><path class="i" d="M365.064,154.113a1.384,1.384,0,0,0-.738-1.224,3.7,3.7,0,0,0-1.032-.1,1.383,1.383,0,0,0-.4,2.429,3.6,3.6,0,0,0,1.538.052A1.373,1.373,0,0,0,365.064,154.113Z" transform="translate(-305.845 -131.806)"/><g transform="translate(19.772 88.058)"><path class="aa" d="M261.54,335.381a22.941,22.941,0,0,1,4.682-.369c.073,0,.2-.022.229-.107s-.025-.133-.1-.136a23.954,23.954,0,0,0-4.868.387c-.218.041-.156.265.058.225Z" transform="translate(-261.345 -334.763)"/></g><g transform="translate(33.336 89.533)"><path class="aa" d="M300.614,338.892a41.079,41.079,0,0,0-.894,4.5c-.233,1.526-.451,3.052-.673,4.578q-.2,1.333-.389,2.665c-.025.166.335.111.353-.033q.344-2.322.68-4.648c.222-1.511.425-3.026.7-4.53.16-.863.345-1.718.571-2.565.047-.155-.313-.111-.349.029Z" transform="translate(-298.656 -338.765)"/></g><g transform="translate(90.758 89.541)"><path class="aa" d="M456.606,338.935q1.429,4.738,2.854,9.48l.818,2.72c.036.118.385.022.353-.1q-1.429-4.738-2.854-9.48l-.818-2.72c-.036-.118-.385-.018-.353.1Z" transform="translate(-456.604 -338.786)"/></g><g transform="translate(42.365 48.606)"><path class="aa" d="M335.858,227.734c-1.254.184-2.058,1.375-2.825,2.282q-1.467,1.736-2.883,3.516-1.4,1.764-2.748,3.572c-.454.608-.9,1.22-1.349,1.836-.222.306-.444.616-.662.925a5.991,5.991,0,0,0-.6.9,1.1,1.1,0,0,0,.036.9c.135.35.276.7.418,1.047q.431,1.045.9,2.075t.978,2.042c.331.656.705,1.294,1.014,1.961a1.935,1.935,0,0,1,.218,1.025,2.832,2.832,0,0,1-.36,1q-.507.957-1.087,1.869a30.516,30.516,0,0,1-2.534,3.457,2.633,2.633,0,0,0-.883,1.6,2.234,2.234,0,0,0,.313.929c.167.346.338.689.509,1.032q1.02,2.029,2.138,4.007c.189.335.378.667.571,1,.062.1.4-.011.327-.14q-1.14-1.963-2.181-3.974-.507-.984-.992-1.979a2.2,2.2,0,0,1-.331-.988,1.591,1.591,0,0,1,.349-.851c.4-.553.876-1.051,1.3-1.589s.833-1.109,1.222-1.684.756-1.165,1.105-1.766a6.286,6.286,0,0,0,.862-1.806,2.705,2.705,0,0,0-.491-1.8c-.342-.638-.673-1.286-.989-1.935q-.965-1.974-1.785-4.014a4.107,4.107,0,0,1-.353-.988,1.482,1.482,0,0,1,.429-.988c.429-.608.865-1.213,1.3-1.813q1.292-1.769,2.632-3.494c.9-1.165,1.825-2.315,2.759-3.45.465-.564.931-1.121,1.4-1.677a8.723,8.723,0,0,1,1.389-1.456,1.858,1.858,0,0,1,.836-.365c.174-.033.291-.247.047-.214Z" transform="translate(-323.49 -227.731)"/></g><g transform="translate(47.32 101.057)"><path class="aa" d="M337.12,370.177a42.21,42.21,0,0,0,1.956,10.98c.04.122.389.022.353-.1a42.515,42.515,0,0,1-1.956-10.98c-.007-.107-.36-.037-.353.1Z" transform="translate(-337.12 -370.028)"/></g><g transform="translate(71.853 47.776)"><path class="aa" d="M404.605,225.609a40.44,40.44,0,0,0,4.581,6.229c.836,1,1.669,2.005,2.443,3.052.4.538.785,1.087,1.138,1.659a.864.864,0,0,1,.127.9c-.153.332-.36.645-.534.966q-1.047,1.913-1.93,3.918c-.142.321-.28.641-.411.966a3.586,3.586,0,0,0-.331,1.036,2.863,2.863,0,0,0,.745,1.736q1.172,1.769,2.487,3.435.665.846,1.367,1.662a3.484,3.484,0,0,1,.574.792,2.074,2.074,0,0,1,.124,1.021,37.916,37.916,0,0,1-2,9.654c-.029.085.313.044.349-.055a39.922,39.922,0,0,0,1.9-8.592c.036-.339.069-.678.095-1.017a2.358,2.358,0,0,0-.076-1,2.463,2.463,0,0,0-.483-.748c-.229-.269-.458-.534-.684-.807q-1.374-1.659-2.61-3.424a21.33,21.33,0,0,1-1.2-1.814,1.592,1.592,0,0,1-.233-.984,4.227,4.227,0,0,1,.338-1q.851-2.04,1.872-4c.167-.321.342-.641.516-.962a8.394,8.394,0,0,0,.505-.921.873.873,0,0,0-.135-.833c-.171-.276-.353-.549-.534-.815-.723-1.062-1.52-2.068-2.338-3.056a56.655,56.655,0,0,1-4.821-6.259c-.171-.276-.335-.56-.491-.844-.054-.1-.389.026-.353.092Z" transform="translate(-404.602 -225.479)"/></g><g transform="translate(77.697 100.785)"><path class="aa" d="M422.908,369.435q-1.156,7.083-1.865,14.235-.2,2.018-.364,4.04c-.015.188.342.14.356-.026q.583-7.154,1.61-14.265.289-2.007.618-4.01c.029-.181-.331-.136-.356.026Z" transform="translate(-420.679 -369.293)"/></g><g transform="translate(61.759 140.638)"><path class="ab" d="M376.988,477.925a36.192,36.192,0,0,0,4.144-.258c.193-.022.273-.28.033-.251a37.118,37.118,0,0,1-4.144.258c-.2,0-.273.251-.033.251Z" transform="translate(-376.838 -477.414)"/></g><g transform="translate(50.352 25.369)"><path class="s" d="M345.46,164.807a1.869,1.869,0,0,0,.713,1.275,3.782,3.782,0,0,0,1.436.781.377.377,0,0,0,.244-.044c.033-.015.12-.07.044-.092a3.694,3.694,0,0,1-1.392-.763,1.831,1.831,0,0,1-.691-1.25c0-.063-.356-.007-.353.092Z" transform="translate(-345.46 -164.688)"/></g><g transform="translate(74.65 26.198)"><path class="s" d="M414.135,167.042a5.026,5.026,0,0,1-1.774,1.563c-.062.037-.091.118-.025.162a.247.247,0,0,0,.251-.026,5.332,5.332,0,0,0,1.88-1.673c.044-.074-.04-.125-.1-.129a.253.253,0,0,0-.229.1Z" transform="translate(-412.298 -166.937)"/></g><ellipse class="n" cx="3.585" cy="3.634" rx="3.585" ry="3.634" transform="translate(117.492 32.06)"/><ellipse class="n" cx="3.585" cy="3.634" rx="3.585" ry="3.634" transform="translate(127.278 32.03)"/></g></g></g></svg>