<svg xmlns="http://www.w3.org/2000/svg" width="38" height="38" viewBox="0 0 38 38"><defs><style>.a,.b{fill:none;}.b{stroke:#fff;stroke-linecap:round;stroke-linejoin:round;stroke-miterlimit:10;stroke-width:2px;}</style></defs><g transform="translate(-2573 12763)"><rect class="a" width="38" height="38" transform="translate(2573 -12763)"/><g transform="translate(2580 -12760)"><g transform="translate(0 0.379)"><path class="b" d="M24.561,5.33c0-8.625-9.824-4.189-12.28-4.189S0-3.172,0,5.33A18.968,18.968,0,0,0,2.21,14.2a10.082,10.082,0,0,1,.982,6.777c-.491,2.341-2.088,11.09.491,11.09,3.684,0,3.684-11.09,8.6-11.09s6.14,11.09,8.6,11.09c2.7,0,.982-8.749.491-11.09A9.98,9.98,0,0,1,22.35,14.2,18.594,18.594,0,0,0,24.561,5.33Z" transform="translate(0 0)"/></g></g></g></svg>