<svg xmlns="http://www.w3.org/2000/svg" width="38" height="38" viewBox="0 0 38 38"><defs><style>.a,.b{fill:none;}.b{stroke:#fff;stroke-linecap:round;stroke-linejoin:round;stroke-miterlimit:10;stroke-width:2px;}</style></defs><g transform="translate(-2081 12780)"><rect class="a" width="38" height="38" transform="translate(2081 -12780)"/><g transform="translate(2084 -12777)"><circle class="b" cx="2.536" cy="2.536" r="2.536" transform="translate(13.948)"/><path class="b" d="M.75,0V7.608" transform="translate(15.734 21.556)"/><path class="b" d="M.75,0V11.412" transform="translate(15.734 10.144)"/><path class="b" d="M24.092,0V.634a7.608,7.608,0,1,1-15.216,0V0L0,8.242l16.484,5.072L32.968,8.242Z" transform="translate(0 1.902)"/><path class="b" d="M.888,4.692A1.96,1.96,0,0,1,0,3.17C0,1.395,3.424,0,7.608,0s7.608,1.395,7.608,3.17S11.792,6.34,7.608,6.34" transform="translate(8.876 15.216)"/><path class="b" d="M1.648,4.438C.634,3.931,0,3.3,0,2.536,0,1.141,2.282,0,5.072,0" transform="translate(11.412 21.556)"/><path class="b" d="M3.8,0c2.156,0,3.8,1.141,3.8,2.536S5.96,5.072,3.8,5.072,0,3.931,0,2.536" transform="translate(12.68 26.628)"/></g></g></svg>