<svg xmlns="http://www.w3.org/2000/svg" width="38" height="38" viewBox="0 0 38 38"><defs><style>.a,.b{fill:none;}.b{stroke:#fff;stroke-width:2px;}</style></defs><g transform="translate(-2177 12763)"><rect class="a" width="38" height="38" transform="translate(2177 -12763)"/><g transform="translate(2180 -12760)"><g transform="translate(33 31.928) rotate(180)"><path class="b" d="M10.907,0H0A16.2,16.2,0,0,0,7.894,13.982l5.454-9.663A5.007,5.007,0,0,1,10.907,0Z" transform="translate(0 17.946)"/><path class="b" d="M9.456,11.156a6.594,6.594,0,0,1,2.922.672l6.535-9.663A21.346,21.346,0,0,0,9.456,0,21.342,21.342,0,0,0,0,2.165l6.535,9.663A6.594,6.594,0,0,1,9.456,11.156Z" transform="translate(7.043)"/><path class="b" d="M0,4.319l5.454,9.663A16.2,16.2,0,0,0,13.348,0H2.441A5.007,5.007,0,0,1,0,4.319Z" transform="translate(19.652 17.946)"/><circle class="b" cx="2.755" cy="2.755" r="2.755" transform="translate(13.685 14.295)"/></g></g></g></svg>