<svg xmlns="http://www.w3.org/2000/svg" width="38" height="38" viewBox="0 0 38 38"><defs><style>.a,.b{fill:none;}.b{stroke:#fff;stroke-linecap:round;stroke-linejoin:round;stroke-miterlimit:10;stroke-width:2px;}</style></defs><g transform="translate(-2413 12747)"><rect class="a" width="38" height="38" transform="translate(2413 -12747)"/><g transform="translate(2416 -12744)"><g transform="translate(0 0)"><path class="b" d="M4.825,13.268V3.618A1.14,1.14,0,0,0,3.618,2.412H2.412A2.419,2.419,0,0,1,0,0H0" transform="translate(12.061 0)"/><path class="b" d="M0,0A8.391,8.391,0,0,0,8.443,8.443h0A8.391,8.391,0,0,0,16.886,0" transform="translate(0 13.268)"/><path class="b" d="M4.825,0h0A2.419,2.419,0,0,1,2.412,2.412H1.206A1.14,1.14,0,0,0,0,3.618v9.649" transform="translate(0 0)"/><ellipse class="b" cx="4.825" cy="4.825" rx="4.825" ry="4.825" transform="translate(21.711 3.618)"/><path class="b" d="M.75.75h0" transform="translate(25.785 7.693)"/><path class="b" d="M0,8.443v1.809A9.112,9.112,0,0,0,9.046,19.3h0a9.112,9.112,0,0,0,9.046-9.046V0" transform="translate(8.443 13.268)"/></g></g></g></svg>