<svg xmlns="http://www.w3.org/2000/svg" width="38" height="38" viewBox="0 0 38 38"><defs><style>.a,.b{fill:none;}.b{stroke:#fff;stroke-linecap:round;stroke-linejoin:round;stroke-miterlimit:10;stroke-width:2px;}</style></defs><g transform="translate(-2304 12763)"><rect class="a" width="38" height="38" transform="translate(2304 -12763)"/><g transform="translate(2307 -12759)"><path class="b" d="M2.536,21.556h0A2.543,2.543,0,0,1,0,19.02V0H5.072V19.02A2.543,2.543,0,0,1,2.536,21.556Z" transform="translate(13.948)"/><path class="b" d="M2.536,21.556h0A2.543,2.543,0,0,1,0,19.02V0H5.072V19.02A2.543,2.543,0,0,1,2.536,21.556Z" transform="translate(5.072)"/><path class="b" d="M2.536,21.556h0A2.543,2.543,0,0,1,0,19.02V0H5.072V19.02A2.543,2.543,0,0,1,2.536,21.556Z" transform="translate(22.824)"/><path class="b" d="M27.9,0h5.072V24.092H0V0H5.072" transform="translate(0 5.072)"/><path class="b" d="M0,.75H5.072" transform="translate(5.072 9.394)"/><path class="b" d="M0,.75H5.072" transform="translate(22.824 9.394)"/><path class="b" d="M0,.75H5.072" transform="translate(13.948 6.858)"/></g></g></svg>