<svg xmlns="http://www.w3.org/2000/svg" width="38" height="38" viewBox="0 0 38 38"><defs><style>.a,.b{fill:none;}.b{stroke:#fff;stroke-linecap:round;stroke-linejoin:round;stroke-miterlimit:10;stroke-width:2px;}</style></defs><g transform="translate(-1970 12781)"><rect class="a" width="38" height="38" transform="translate(1970 -12781)"/><g transform="translate(1980 -12778)"><path class="b" d="M8.876,21.556h0A8.821,8.821,0,0,1,0,12.68V2.536A2.543,2.543,0,0,1,2.536,0h12.68a2.543,2.543,0,0,1,2.536,2.536V12.68A8.821,8.821,0,0,1,8.876,21.556Z" transform="translate(0 3.804)"/><path class="b" d="M0,3.8V2.536A2.543,2.543,0,0,1,2.536,0h0A2.543,2.543,0,0,1,5.072,2.536V3.8" transform="translate(6.34)"/><path class="b" d="M8.876,0h0A7.63,7.63,0,0,1,1.268,7.608H0" transform="translate(0 25.36)"/><path class="b" d="M0,2.536H3.55A11.005,11.005,0,0,0,8.876,1.268h0A11.355,11.355,0,0,1,14.2,0h3.55" transform="translate(0 15.216)"/></g></g></svg>