<svg xmlns="http://www.w3.org/2000/svg" width="525" height="502.477" viewBox="0 0 525 502.477"><defs><style>.a{fill:#a7e1ff;}.b{fill:#1d1d1b;}.c{fill:#e8e8e8;opacity:0.5;}.d{fill:#727272;}.aa,.ad,.e,.h,.m,.o,.u,.z{fill:none;}.e{stroke:#b7b7b7;stroke-width:3.25px;}.aa,.e,.h,.m,.o,.z{stroke-linecap:round;}.aa,.e,.h,.o{stroke-linejoin:round;}.f{fill:#4a494a;}.g{fill:#b9b9ba;}.h{stroke:#868687;stroke-width:1.24px;}.i{fill:#474747;}.j,.s{fill:#fff;}.k{fill:#f8b99f;}.l{fill:#599ac1;}.aa,.m,.o,.z{stroke:#130a0b;}.ad,.m,.s,.u,.z{stroke-miterlimit:10;}.m{stroke-width:0.34px;}.n{fill:#040506;}.o{stroke-width:0.36px;}.p{fill:#e2dde2;}.q{fill:#e2e2e1;}.r{fill:#5282c2;}.s,.u{stroke:#3f3f3f;stroke-width:0.75px;}.t{fill:#3f3f3f;}.v{fill:#589997;}.w{fill:#adabce;}.x{fill:#1d1e1b;}.y{fill:#2b4359;}.aa,.z{stroke-width:0.46px;}.ab{fill:#7c7cb6;}.ac{fill:#2b2b2b;}.ad{stroke:#1d1d1b;stroke-width:0.8px;}</style></defs><g transform="translate(-1055 -1218.674)"><g transform="translate(1055 1244.674)"><circle class="a" cx="238" cy="238" r="238" transform="translate(49 -11.172)"/><g transform="translate(202.926 -26)"><rect class="b" width="93.333" height="120.524" transform="translate(0)"/><path class="c" d="M173.646,52.541c0-2.166-.1-4.4-.162-6.595l-3.573.855V11.208c7.97-1.9,26.1-5.88,33.45-4.613,0,0,3.53.52,3.563-6.595h20.391a6.671,6.671,0,0,0,3.444,7.006s24.321,4.039,32.486,9.518v35.8l-3.433-1.765c-1.083,16.655-2.014,33.353-2.242,50.029a79.044,79.044,0,0,0,.162,10.948c.347,2.837,1.375,5.523,1.884,8.338a4.06,4.06,0,0,0,.1.617H172.184c.065-.855.141-1.722.217-2.577.628-6.616,1.863-12.821,1.9-19.492,0-5.23,0-10.45-.1-15.68Q174,67.658,173.646,52.541Z" transform="translate(-169.91)"/><path class="d" d="M183.545,18.377a6.616,6.616,0,0,1,3.119-.7c10.98-.487,27.516,3.487,27.732,19.492.206,15.561.855,32.345-2,47.646-1.018,5.479.282,12.67,2.036,17.878,1.083,3.1-21.972-20.391-34.814-14.835-1.808-16.243-2.61-33.266-1.083-49.639a106.123,106.123,0,0,1,2.686-15.907,6.5,6.5,0,0,1,1.982-3.617,2.814,2.814,0,0,1,.347-.314Z" transform="translate(-129.737 1.461)"/><path class="d" d="M245.28,17.818a6.638,6.638,0,0,0-3.129-.715c-10.97-.476-27.505,3.5-27.722,19.492-.206,15.572-.855,32.356,2,47.646,1.018,5.469-.292,12.67-2.036,17.878-1.083,3.086,21.972-20.391,34.814-14.835,1.8-16.308,2.61-33.277,1.083-49.639a107.454,107.454,0,0,0-2.675-15.907,6.605,6.605,0,0,0-1.949-3.66A4.06,4.06,0,0,0,245.28,17.818Z" transform="translate(-205.744 1.414)"/><path class="e" d="M205.856,29.87s-18.961,16.243-23.076,2.761" transform="translate(-126.46 2.475)"/><path class="e" d="M205.076,37.33S186.126,53.573,182,40.091" transform="translate(-124.835 3.094)"/><path class="e" d="M205.076,46.13S186.126,62.373,182,48.891" transform="translate(-124.835 3.823)"/><path class="e" d="M205.076,54.93S186.126,71.173,182,57.68" transform="translate(-124.835 4.552)"/><path class="e" d="M205.076,62.39S186.126,78.633,182,65.151" transform="translate(-124.835 5.171)"/><path class="e" d="M204.8,70.51s-15.734,13.525-19.156,2.3" transform="translate(-128.497 5.843)"/><path class="e" d="M220.21,29.34s18.961,16.243,23.076,2.761" transform="translate(-204.422 2.432)"/><path class="e" d="M220.97,36.8s18.95,16.243,23.076,2.761" transform="translate(-206.005 3.05)"/><path class="e" d="M220.97,45.6s18.95,16.243,23.076,2.761" transform="translate(-206.005 3.779)"/><path class="e" d="M221,54.4s18.95,16.232,23.044,2.815" transform="translate(-206.035 4.508)"/><path class="e" d="M220.97,61.86s18.95,16.243,23.076,2.761" transform="translate(-206.005 5.127)"/><path class="e" d="M221,70s15.734,13.46,19.124,2.274" transform="translate(-202.115 5.801)"/></g><g transform="translate(0 143.448)"><rect class="f" width="63.337" height="88.384" rx="11.16" transform="translate(31.287)"/><rect class="g" width="40.294" height="24.809" transform="translate(42.809 15.095)"/><ellipse class="h" cx="5.988" cy="5.988" rx="5.988" ry="5.988" transform="translate(65.939 64.799)"/><ellipse class="h" cx="3.303" cy="3.303" rx="3.303" ry="3.303" transform="translate(47.996 68.838)"/><path class="i" d="M450.907,206.525q-1.83,2.945-3.4,6.042a18.768,18.768,0,0,1-1.624,3.01,1.624,1.624,0,0,1-1.7.617,5.078,5.078,0,0,1-1.289-.455,9.68,9.68,0,0,0-3.812-.931,22.74,22.74,0,0,0-7.71,1.159,8.327,8.327,0,0,0-5.469,4.2,10.038,10.038,0,0,0,0,6.952,30.886,30.886,0,0,0,1.343,3.487c.422.942,1.083,2.891,2.307,2.945a3.01,3.01,0,0,0,2.5-1.754,3.346,3.346,0,0,0-.206-3.065,6.032,6.032,0,0,0-6.2-2.7,8.565,8.565,0,0,0-7.093,10.114c.347,1.949,1.928,5.772,4.516,4.927s1.462-4.007-.444-4.938a4.732,4.732,0,0,0-5.512,1.332,7.873,7.873,0,0,0-1.646,6.346,15.084,15.084,0,0,0,3.519,6.909,31.567,31.567,0,0,0,2.794,2.978,18.868,18.868,0,0,0,1.559,1.375c.347.271.563.455.953.173a1.82,1.82,0,0,0,.531-.736c.78-1.906-.975-3.812-2.74-4.234a4.905,4.905,0,0,0-5.241,2.729c-2.61,4.656.3,10.1,3.043,13.98,1.256,1.787,3.162,3.952,5.577,3.671,1.9-.227,3.974-1.808,3.519-3.92a3.552,3.552,0,0,0-2.415-2.556,7.32,7.32,0,0,0-4.451.455,9.747,9.747,0,0,0-3.379,1.841,6.931,6.931,0,0,0-1.992,3.357c-1.083,4.017.108,9.995,4.537,11.533a6.5,6.5,0,0,0,5.663-.823c.552-.39,1.992-1.57,1.635-2.339a3.768,3.768,0,0,0-2.534-1.657,5.544,5.544,0,0,0-5.653,2.675,8.934,8.934,0,0,0-1,6.855,17.381,17.381,0,0,0,3.682,6.93,12.107,12.107,0,0,0,6.151,4.245,7.58,7.58,0,0,0,6.779-1.592,3.5,3.5,0,0,0,1.321-3.054,2.956,2.956,0,0,0-1.635-2.036c-2.047-1.083-4.137.336-5.1,2.166a9.811,9.811,0,0,0-.639,6.638,9.075,9.075,0,0,0,4.007,6.01,5.707,5.707,0,0,0,6.692-.585,5.111,5.111,0,0,0,1.375-5.685l.855.336a6.855,6.855,0,0,0-4.927,3.4,4.093,4.093,0,0,0,.736,5.09c3.379,3.173,8.057.314,11.2-1.711.282-.173,1.191.249.985.39-3.075,1.982-6.66,4.1-10.428,2.87a6.4,6.4,0,0,1-3.5-2.545,4.386,4.386,0,0,1,.217-4.8,7.331,7.331,0,0,1,5.057-3.194c.238,0,.736.065.845.325a5.414,5.414,0,0,1-2.09,6.5,7.385,7.385,0,0,1-7.32,0,10.428,10.428,0,0,1-3.584-14.077,4.721,4.721,0,0,1,5.9-1.559,4.234,4.234,0,0,1,2.166,1.928,3.065,3.065,0,0,1-.487,3.249c-1.613,2.166-4.537,2.848-7.082,2.588a12.345,12.345,0,0,1-7.342-3.747c-3.877-3.855-7.32-10.742-3.5-15.756a6.194,6.194,0,0,1,6.4-2.285,5.794,5.794,0,0,1,2.87,1.473c.314.3.823.769.7,1.213a3.823,3.823,0,0,1-.931,1.386,7.147,7.147,0,0,1-6.042,1.917,8,8,0,0,1-5.815-3.682,11.132,11.132,0,0,1-1.484-7.58,8.273,8.273,0,0,1,1.657-4.072,8.663,8.663,0,0,1,3.563-2.393c2.6-1.018,5.891-1.516,8.154.509a3.454,3.454,0,0,1,1.245,3.13,3.639,3.639,0,0,1-1.852,2.415,6.042,6.042,0,0,1-6.606-.661c-2.307-1.7-3.888-4.494-5.155-7s-2.166-5.674-1.267-8.6a6.064,6.064,0,0,1,5.035-4.526,5.793,5.793,0,0,1,5.414,2.556,2.815,2.815,0,0,1,0,3.043c-.736,1.007-2.036.671-2.891,0a26.227,26.227,0,0,1-6.411-7.017,10.677,10.677,0,0,1-1.722-8.154,6.183,6.183,0,0,1,4.689-4.819,5.923,5.923,0,0,1,5.815,2.166,2.664,2.664,0,0,1,0,3.249,3.346,3.346,0,0,1-3,.855c-2.718-.5-4.256-3.346-4.646-5.858a8.663,8.663,0,0,1,9.053-10.32c2.48.087,5.209,1.224,6.4,3.519a3.411,3.411,0,0,1,0,3.433,3.5,3.5,0,0,1-2.6,1.668c-2.924.249-4-3.14-4.84-5.317-1-2.566-1.819-5.577-.9-8.284s3.454-4.2,6.086-4.992a22.805,22.805,0,0,1,8.858-1.083,12.593,12.593,0,0,1,3.942,1.148,2.383,2.383,0,0,0,.52.195.3.3,0,0,0,.26,0,1.819,1.819,0,0,0,.8-.812,20.579,20.579,0,0,0,.985-1.873c1.159-2.317,2.393-4.581,3.779-6.779.184-.3,1.169.087,1.083.282Z" transform="translate(-414.4 -126.371)"/></g><g transform="translate(15.909 61.867)"><path class="j" d="M419.57,184.41s-50.256,84.583-56.136,88.1a22.892,22.892,0,0,1-11.912,2.956,23.09,23.09,0,0,0-4.483.4l-47.971,2.35L294,317.2s64.648,3.487,76.061-2.848S410.951,287.1,410.951,287.1Z" transform="translate(-268.594 -46.584)"/><path class="k" d="M243.76,74.128s35.811-8.241,38.052,25.361c0,0,6.974-7.3,11.413-2.534,0,0,8.955,3.714-.552,16.709,0,0,20.835,49.531,21.473,69.488,0,0-34.078,33.168-49.607,10.98l.162-32.486s-7.288,5.079-16.481-5.707C248.243,155.9,199.395,88.076,243.76,74.128Z" transform="translate(-88.604 -55.797)"/><path class="b" d="M292.867,82.437,263.716,99.221a22.232,22.232,0,0,1-4.591,1.689,31.4,31.4,0,0,1-10.06,1.559,14.435,14.435,0,0,1-7.255-1.96,10.677,10.677,0,0,1-2.935-2.686c-1.137-1.527-1.906-3.357-2.945-4.97a22.893,22.893,0,0,1-2.166-4.331,15.539,15.539,0,0,1-1.029-6.876c.162-1.624.975-5.219,2.978-5.566a21.019,21.019,0,0,1,3.444.325,38.724,38.724,0,0,0,5.133-.162c3.952-.4,8.057-1.462,11.219-3.985a13.612,13.612,0,0,0,2.166-2.166,28.783,28.783,0,0,1,5.176-4.895,38.723,38.723,0,0,1,14.922-7.179,40.705,40.705,0,0,1,23.563,2.025,58.554,58.554,0,0,1,9.334,4.548c3.541,2.1,7.136,4.331,9.378,7.992a49.731,49.731,0,0,1,3.693,7.212,52.042,52.042,0,0,1,3.812,24.549,54.469,54.469,0,0,1-1.917,10.114,48.253,48.253,0,0,1-1.83,5.414c-.747,1.8-1.776,3.563-2.426,5.414,0,0-1.592,4.44-.639,5.707s-6.66-16.481-6.66-16.481,8.88-8.869.953-16.481c0,0-3.487-5.068-11.4,2.534C303.652,100.5,289.391,91.641,292.867,82.437Z" transform="translate(-110.379 -57.132)"/><path class="l" d="M189.856,184.6,212.91,162.94l.238,21.657s22.351,20.921,56.1-15.691l38.983,18.073s13.817,250.534,13.817,252.44c0,.715-11.478,7.2-29.595,13.731a281.753,281.753,0,0,1-69.542,7.028,267.29,267.29,0,0,1-53-6.67Z" transform="translate(-36.714 -48.363)"/><path class="j" d="M178.036,191.446l9.508-34.706,19.968-7.58,16.156,14.261-3.324,6.172L265.51,193.6,255.05,228.546l17.51,212.6c-35.529,13.882-73.949,22.213-112.3,21.217-.834,0-3.332-1.011-4.166-1.043Z" transform="translate(26.002 -49.505)"/><path class="j" d="M271,450.218c0-.422.076-.845.119-1.278l.52-5.663.552-5.88c.184-2.025.379-4.05.563-6.086s.39-4.18.6-6.27.4-4.331.606-6.443l.617-6.595c.217-2.252.433-4.494.639-6.746s.444-4.581.661-6.865.444-4.656.671-6.985l.682-7.082c.227-2.393.466-4.786.693-7.169s.476-4.83.7-7.244.476-4.862.726-7.288l.715-7.331c.249-2.458.487-4.905.736-7.363s.487-4.916.736-7.374l.747-7.364.747-7.353.747-7.309.758-7.277.747-7.212c.249-2.371.509-4.754.758-7.125l.747-7.05.747-6.93.747-6.822c.249-2.231.5-4.451.736-6.681s.487-4.332.736-6.5.487-4.256.726-6.378.476-4.126.726-6.183.466-4.007.7-6,.466-3.866.7-5.793l.682-5.566.682-5.339c.217-1.689.433-3.389.661-5.079s.422-3.249.639-4.819.422-3.021.628-4.526l.617-4.245c.195-1.31.39-2.621.6-3.931s.379-2.4.574-3.606.357-2.166.552-3.249.347-1.949.531-2.913.336-1.7.509-2.545.314-1.451.487-2.166.292-1.18.466-1.765.271-.91.433-1.354a7.092,7.092,0,0,1,.4-.931c.347-.6,1.029-.845,1.538-1.267s1.245-1.137,1.863-1.7l4.656-4.332,5.663-5.23,5.523-5.1L324.57,165l1.841-1.7L308.457,275.377l2.019,183.709c-13.186-1.659-26.688-5.25-39.476-8.869Z" transform="translate(-150.528 -48.333)"/><path class="k" d="M340.028,327.518s-19.492-1.9-29.476-12.356c0,0-12.843-17.6-27.581-10.937a7.375,7.375,0,0,0-.942,3.8c0,2.382,11.912,6.183,14.262,6.66,0,0-24.246-7.136-27.072-7.136,0,0-3.8-.476-4.277,1.429a5.274,5.274,0,0,0,1.906,5.23c1.419.953-.953-.476-2.859,2.382s-.942,6.649,1.906,6.649c0,0-1.906.953-.476,4.277,0,0,0,2.859,3.8,3.812,0,0-2.848,1.419.476,3.8l60.381,18.539Z" transform="translate(-155.483 -36.779)"/><path class="j" d="M244.025,181.07,238.319,330l-94.134,2.371-3.324,35.183s96.506,11.912,123.61,16.644,24.246-19.015,24.246-19.015l-14.261-143.1c.5-9.67-.13-22.74-8.273-29.487-3.53-2.935-8.815-4.765-12.908-6.833Z" transform="translate(28.006 -46.86)"/><path class="i" d="M414.5,270.25s6.5-.227,6.5,5.739l-2.317,25.068s-5.209,2.393-9.269,0l-1.484-25.068S407.93,270.207,414.5,270.25Z" transform="translate(-393.396 -39.47)"/><ellipse class="i" cx="3.184" cy="2.079" rx="3.184" ry="2.079" transform="translate(17.924 227.921)"/><rect class="i" width="6.378" height="4.072" transform="translate(17.924 230.001)"/><path class="k" d="M418.822,272.107s4.743-2.5,3.335-4.895c-.855-1.473-2.3-2.826-4-1.722a19,19,0,0,1-2.252.769,10.829,10.829,0,0,0-2.242,1.419,20.089,20.089,0,0,0-4.331,5.057,34.5,34.5,0,0,0-2.274,4.245,28.157,28.157,0,0,0-1.083,2.642,11.628,11.628,0,0,0-.5,2.653,7.818,7.818,0,0,0,1.278,4.461,14.987,14.987,0,0,0,3.92,4.115,21.765,21.765,0,0,0,5.62,2.88,23.523,23.523,0,0,0,2.913.855c2.274.477,4.2,2.025,6.432,2.74,2.014.65,4.916.726,5.826-1.711.823-2.242-1.873-3.314-3.314-3.638a5.266,5.266,0,0,1,.671.379,5.641,5.641,0,0,0,1.743.552,2.686,2.686,0,0,0,3.13-3.357c-.39-2.231-2.274-2.761-3.92-2.6a4.327,4.327,0,0,1,.823.325,5.955,5.955,0,0,0,1.863.347c1.776,0,2.837-1.982,2.339-4.007s-2.664-2.3-4-2.436a9.751,9.751,0,0,1,1.386.552,6.281,6.281,0,0,0,1.841.336c1.624,0,1.884-1.343,1.6-2.729a4.115,4.115,0,0,0-4.591-3.379,10.276,10.276,0,0,1-4.017-1.419,24.158,24.158,0,0,0-8.208-2.437Z" transform="translate(-405.479 -39.898)"/><path class="j" d="M299.443,119.627s-7-4.7-11.663,2.393C287.78,122.02,293.422,126.72,299.443,119.627Z" transform="translate(-141.731 -52.079)"/><path class="m" d="M299.473,119.617s-6.985-4.711-11.663,2.393" transform="translate(-141.793 -52.08)"/><path class="n" d="M292.842,118.63a7.191,7.191,0,0,1,2.263-.249,2.729,2.729,0,0,1,.975,4.613,7.861,7.861,0,0,1-2.079.7,2.729,2.729,0,0,1-1.159-5.068Z" transform="translate(-143.295 -52.057)"/><path class="j" d="M280.885,110.735s-8.566-2.729-11.435,5.057C269.461,115.792,276.781,119.117,280.885,110.735Z" transform="translate(-103.324 -52.728)"/><path class="o" d="M269.44,115.7s2.1-7.255,11.435-4.97" transform="translate(-103.303 -52.726)"/><path class="n" d="M273.315,115a2.9,2.9,0,0,1,.65-2.924,8.208,8.208,0,0,1,2-.9,2.88,2.88,0,0,1,2.458,4.537,7.807,7.807,0,0,1-3.043,1.159A2.9,2.9,0,0,1,273.315,115Z" transform="translate(-105.414 -52.653)"/><path class="b" d="M286.873,103.6l-16.633,2.252s2.014-5.588,9.269-5.23S286.873,103.6,286.873,103.6Z" transform="translate(-110.167 -53.529)"/><path class="b" d="M302.985,109.122l-3.606,2.382-2.686,1.787a9.272,9.272,0,0,1-1.743,1.083c-.617-1.863,1.083-4.331,2.61-5.187a5.49,5.49,0,0,1,2.729-.747,6.01,6.01,0,0,1,1.462.184A11.787,11.787,0,0,0,302.985,109.122Z" transform="translate(-152.896 -52.88)"/><path class="p" d="M247.764,178.762q1.646,18.192,1.9,36.46.065,4.548,0,9.1c0,1.538,0,3.075-.054,4.613a6.627,6.627,0,0,1-.509,3.01,3.519,3.519,0,0,1-2.491,1.689c-1.332.314-2.729.444-4.072.639l-9.118,1.354a21.043,21.043,0,0,0-4.028.693,2.285,2.285,0,0,0-1.3,3.173,12.529,12.529,0,0,0,2,3.249c.823,1.083,1.7,2.166,2.61,3.173a52.5,52.5,0,0,0,5.923,5.588,8.857,8.857,0,0,1,2.231,2.393,4.57,4.57,0,0,1,.379,3.314,24.04,24.04,0,0,1-1.516,4.05l-1.776,4.331-3.487,8.436-6.974,16.893L213.47,324.831l-1.722,4.158c-.195.466-1.234.162-1.083-.282L224.7,294.922l13.958-33.775c1.007-2.436,2.772-5.414.726-7.818a24.54,24.54,0,0,0-2.87-2.523c-.975-.834-1.906-1.711-2.815-2.621a48.435,48.435,0,0,1-5.23-6.183c-1.083-1.516-2.556-4.05-.845-5.663a5.046,5.046,0,0,1,2.837-1.083l4.548-.671,8.966-1.332c1.224-.184,2.87-.195,3.79-1.159s.812-2.361.834-3.53q.065-4.548,0-9.1c0-12.117-.574-24.246-1.548-36.32-.13-1.494-.249-2.978-.39-4.461,0-.541,1.018-.4,1.083.076Z" transform="translate(-8.458 -47.087)"/><path class="p" d="M298.619,172.866,287.79,203.533c-1.668,4.689-3.476,9.627-3.184,14.684a16.027,16.027,0,0,0,.617,3.584c.347,1.148.91,2.166,1.289,3.335a5.945,5.945,0,0,1-.39,4.743c-1.505,2.88-4.332,4.786-6.259,7.374a9.487,9.487,0,0,0-1.83,5.826c0,2.686.173,5.414.271,8.089l1.191,32.562,1.2,32.573.141,4.126c0,.433-1.083.227-1.083-.13l-1.2-32.714-1.191-32.714-.3-8.251c-.087-2.382-.433-4.981.4-7.266,1.137-3.14,4.017-5.23,6.118-7.688a8.208,8.208,0,0,0,2.166-4.1c.3-2.242-1.083-4.191-1.678-6.27-1.289-4.732-.1-9.746,1.375-14.283,1.646-5.09,3.541-10.092,5.328-15.16l5.414-15.4,1.375-3.888c.141-.368,1.18-.065,1.083.282Z" transform="translate(-129.169 -47.579)"/><path class="p" d="M291.343,350.561V378.6c0,.5-1.083.314-1.083-.108V350.464C290.26,349.955,291.343,350.139,291.343,350.561Z" transform="translate(-136.317 -32.848)"/><path class="p" d="M196.415,247.88c.79,10.006.769,20.044.65,30.071s-.357,20.066,0,30.093c.206,5.663.628,11.327,1.354,16.947,0,.466-1,.3-1.083-.108a231.117,231.117,0,0,1-1.57-29.985c0-10.038.336-20.077.238-30.115,0-5.674-.249-11.349-.693-17.012,0-.476,1.029-.3,1.083.108Z" transform="translate(59.427 -41.356)"/><path class="p" d="M197.364,319.975a25.513,25.513,0,0,0-13.059,1.083c-.412.152-1.224-.444-.617-.661a26.53,26.53,0,0,1,13.558-1.126c.195,0,.563.141.574.4s-.26.336-.466.3Z" transform="translate(72.848 -35.441)"/><path class="p" d="M195.108,327.639a109.463,109.463,0,0,0-13.623-4.721c-.087,0-.52-.141-.476-.292s.487,0,.563,0a113.008,113.008,0,0,1,14.132,4.905c.162.065.282.141.13.26s-.6-.087-.726-.141Z" transform="translate(77.432 -35.135)"/><path class="p" d="M262.55,322.415c-3.768-1.4-7.84-1.386-11.8-1.386H198.075c-.6,0-.8-.769-.087-.769h52.13c4.332,0,8.75,0,12.9,1.538a.39.39,0,0,1,.238.541c-.141.227-.509.152-.7.076Z" transform="translate(-7.856 -35.325)"/><path class="p" d="M260.822,367.131q-15.485-2.621-31.024-4.873t-31.122-4.147q-8.869-1.083-17.737-2.036c-.173,0-.617-.065-.7-.249s.065-.217.26-.206q15.669,1.711,31.306,3.747t31.208,4.483q8.825,1.364,17.618,2.859c.433.076.92.552.184.422Z" transform="translate(13.007 -32.395)"/><path class="b" d="M249.2,100.664a17.576,17.576,0,0,1-.455,6.194c-.087.347-.877.141-.78-.217a16.71,16.71,0,0,0,.433-6.042C248.4,100.209,249.161,100.317,249.2,100.664Z" transform="translate(-48.47 -53.55)"/><path class="b" d="M269.452,129.607c.3,4.83-2.307,9.28-4.96,13.1a35.5,35.5,0,0,1-9.226,9.627,18.019,18.019,0,0,1-6.822,2.826c-.26,0-.92-.357-.476-.433,4.332-.769,8.1-3.422,11.143-6.5a48.014,48.014,0,0,0,7.786-11,15.778,15.778,0,0,0,1.776-7.667c0-.325.769-.173.78.1Z" transform="translate(-68.49 -51.144)"/><path class="q" d="M243.155,175.328a95.553,95.553,0,0,0-17.185,12.583c-.217.206-1.17-.195-.975-.368A95.479,95.479,0,0,1,242.181,175c.271-.162,1.159.271.985.368Z" transform="translate(-17.461 -47.366)"/><path class="b" d="M281.68,123.13a12.832,12.832,0,0,1-.379,4.97,9.086,9.086,0,0,0-.325,1.18c0,.26,0,.769.238.942a3.249,3.249,0,0,0,1.083.152,11.648,11.648,0,0,0,1.375,0,.747.747,0,0,1,.682.3c.119.217-.1.336-.292.347-1.429.065-4.407.195-4.137-1.971a10.291,10.291,0,0,1,.39-1.451c.119-.476.217-.975.292-1.473a12.532,12.532,0,0,0,0-3.119c-.054-.455,1.007-.282,1.083.108Z" transform="translate(-118.153 -51.695)"/><path class="b" d="M283.578,134.085c.39,3.379-2.436,6.194-5.111,7.818a6.616,6.616,0,0,1-4.331.985,12.517,12.517,0,0,1-4.689-1.83c-.606-.347.336-.357.617-.195a9.572,9.572,0,0,0,4.234,1.592,6.5,6.5,0,0,0,4.093-1.57c2.166-1.635,4.461-4.007,4.115-6.974,0-.314,1.007-.108,1.083.173Z" transform="translate(-105.833 -50.782)"/><path class="q" d="M231.232,162.1c0,1.31-.91,2.339-1.657,3.335l-2.74,3.638-5.49,7.3-2.75,3.649c-.6.79-1.278,2.274-2.436,2.274s-2.09-.964-2.924-1.657c-1.083-.877-2.1-1.776-3.13-2.7q-3.606-3.249-6.909-6.822c-.238-.26.769-.152.953,0q2.621,2.826,5.414,5.414c.92.866,1.852,1.711,2.815,2.534l1.451,1.364.8.661a3.5,3.5,0,0,0,.866.682c.6.184,1.029-.65,1.31-1.018l1.289-1.722,2.426-3.249,4.927-6.5,2.783-3.693c.834-1.083,2.036-2.3,1.992-3.779,0-.206,1.083-.054,1.083.282Z" transform="translate(18.037 -48.464)"/><path class="p" d="M344.9,267.028a17.5,17.5,0,0,0,3.888,8.955c.162.195-.141.292-.292.3a.866.866,0,0,1-.682-.292,17.727,17.727,0,0,1-3.952-9.1c-.054-.411,1-.227,1.083.13Z" transform="translate(-251.845 -39.767)"/><path class="p" d="M351.533,268.031v5.707c0,.271-1.083.1-1.083-.282V267.75C350.45,267.479,351.533,267.663,351.533,268.031Z" transform="translate(-261.685 -39.688)"/></g></g><g transform="translate(1267.129 1340.754)"><g transform="matrix(0.998, 0.07, -0.07, 0.998, 2.609, -17.263)"><path class="d" d="M48.433,79.7,60.3,98.034,58.335,99.3,45.22,79.04Z" transform="translate(145.409 -79.04)"/><rect class="r" width="20.82" height="8.105" transform="matrix(-0.543, -0.839, 0.839, -0.543, 237.178, 77.213)"/><rect class="r" width="10.058" height="4.678" transform="matrix(-0.543, -0.839, 0.839, -0.543, 202.765, 20.902)"/><path class="s" d="M14.237,103.562l24.794,38.3a2.568,2.568,0,0,0,3.555.762l7.812-5.088a2.568,2.568,0,0,0,.762-3.555L26.414,95.672a2.568,2.568,0,0,0-3.555-.762h0L15.047,100a2.578,2.578,0,0,0-.811,3.564Z" transform="translate(184.781 -79.402)"/><rect class="t" width="4.599" height="25.029" transform="matrix(-0.543, -0.839, 0.839, -0.543, 222.044, 69.41)"/><rect class="t" width="7.49" height="16.884" transform="matrix(-0.543, -0.839, 0.839, -0.543, 235.697, 83.002)"/><line class="u" x1="4.121" y2="2.666" transform="translate(224.593 43.554)"/><line class="u" x1="4.121" y2="2.676" transform="translate(222.181 39.608)"/><line class="u" x1="4.121" y2="2.666" transform="translate(229.788 51.473)"/><line class="u" x1="4.121" y2="2.676" transform="translate(227.376 47.527)"/><line class="u" x1="6.435" y2="4.16" transform="translate(217.162 35.858)"/><line class="u" x1="4.121" y2="2.676" transform="translate(217.191 32.108)"/><line class="u" x1="4.219" y2="2.734" transform="translate(214.681 28.173)"/><line class="u" x1="3.935" y2="2.539" transform="translate(212.259 24.423)"/><line class="u" x1="3.926" y2="2.539" transform="translate(209.789 20.595)"/></g><path class="v" d="M62.107,316.55a155.457,155.457,0,0,0-20.6,11.025c-.225.137-.977-.186-.644-.391A154.3,154.3,0,0,1,61.5,316.17c.234-.107.977.234.645.381Z" transform="translate(147.809 -84.604)"/><path class="w" d="M195.07,448.97c-27.519,9.707-69.1,17.659-108.748,11.722-1.162-.176-18.007-4.483-19.16-4.688,1.423-10.908,7.73-35.773,10.251-51.663.469-2.955-.218-20.137,0-20.809,0,0-4.695-53.408-10.251-68.74,0,0-5.556-8.427-5.556-10.156l-4.785,12.646L32.29,301.188l38.71-65s3.828-8.047,15.322-11.113l16.865-2.685,18.007-1.953s21.074-2.109,30.468.2c0,0,22.031,4.4,28.739,22.792l41.385,74.763-39.852,21.65-17.246-30.273,4.98,70.9S191.613,431.353,195.07,448.97Z" transform="translate(-3.453 -82.337)"/><path class="k" d="M136.339,222.646l6.836-1.318.088-8.789s-10.146,4.795-18.007-7.275a51.756,51.756,0,0,1-10.42-25.859c-.645-5.937-1.152-11.884-1.445-17.841-.244-4.883-.361-9.843-.127-14.755.166-3.232,0-8.437,1.836-11.289,0,0,9.131-14.15,28.612-10.136,0,0,35.351-1.309,29.462,39.93,0,0,5.439-8.047,11.191-3.447,0,0,6.513,4.883-2.207,17.91,0,0-6.123,11.025-9.385,8.144l1.475,30.273,8.73.146L159.493,257.8Z" transform="translate(-47.319 -80.111)"/><path class="x" d="M132.914,166.04s1.152-4.023-2.295-6.133c0,0-3.838-2.871-2.685-10.742a5.859,5.859,0,0,0-5.752-5.361s-27.343,10.634-48.827-1.826c-.742-.43.859-6.992.977-7.666a30.5,30.5,0,0,1,6.963-14.16,20.79,20.79,0,0,1,6.836-4.883c3.906-1.728,8.662-2.187,12.861-2.93a61.57,61.57,0,0,1,9.658-.9c8.379-.127,17.119,1.543,23.954,6.65-1.2-.9,1.953-5.6,2.422-6.152a13.242,13.242,0,0,1,6.7-3.613c3.662-.9,9.179-1.543,12.695-.059.283.117.566.264.84.41,7.119,3.984,11.162,11.23,13.173,18.915s3.271,17.041,1.953,24.882c-.068.42-.146.84-.254,1.25,0,0-7.09,29.3-1.338,36.024,0,0,11.113,15.322,14.755,15.9,0,0-9.765-4.6-13.222-10.918,0,0,8.242,15.136,9.961,14.755,0,0-32.567,7.656-42.343-17.441a18.79,18.79,0,0,1-4.98,4.023s1.953,3.642,3.828,3.838a7.158,7.158,0,0,1-4.6-2.686s.2,4.6,2.109,5.557c0,0-3.066-2.109-3.447-5.371l-.977,2.881-.2-15.136s-.186,2.49,1.953,2.49S148,173.267,146.332,166.949c0,0-.2-6.894-7.285-6.328C139.047,160.718,136.176,160.289,132.914,166.04Z" transform="translate(-7.127 -79.705)"/><path class="y" d="M151.794,261.554s.977-4.111-4.98-2.295L129.93,304.472l-.381,7.285,4.98-3.828Z" transform="translate(-28.497 -83.258)"/><path class="k" d="M132.134,331.838,76.96,295.628l-7.812-12.461a10.087,10.087,0,0,0-2.676-2.676L55.544,275.7c-2.49-1.719-6.133-.977-6.133-.977-3.447-3.262-5.361.977-5.361.977l-1.533,8.623c.576,2.685,1.533,1.338,1.533,1.338l-.977,6.513c1.338,2.685,3.642.576,3.642.576l-1.152,2.93c.2,3.252,2.685,2.871,2.685,2.871.566,1.338,1.143,1.338,1.143,1.338,1.152,1.348,4.795-1.338,4.795-1.338,1.719,6.133,4.209,8.623,4.209,8.623,2.5,2.871,11.308,6.513,11.308,6.513L112.4,356.173c9.58,10.537,24.531.762,24.531.762,13.222-8.047,6.513-23.759,6.513-23.759l-2.3-5.361Z" transform="translate(63.202 -83.603)"/><path class="y" d="M208.634,271.44l-79.324.859,51.161,75.008,72.43-.283Z" transform="translate(-129.31 -83.555)"/><path class="k" d="M192.067,292.568s16.669,5.556,19.921,6.523,2.3,5.166,2.3,5.166l7.285,3.066c4.98,6.328-4.033,5.937-4.033,5.937a4.072,4.072,0,0,1-.381,4.99,8.12,8.12,0,0,1,.576,1.719c-1.533,2.871-5.556,2.109-5.556,2.109l17.48,25.527h12.265c.83,1.5,1.807,2.93,2.519,4.5.1.215.2.439.273.654a17.929,17.929,0,0,1,.977,3.955,14.258,14.258,0,0,1-.654,7.1,10.107,10.107,0,0,1-2.812,3.965,22.768,22.768,0,0,1-4.443,2.676,13.789,13.789,0,0,1-3.906,1.3,11.4,11.4,0,0,1-6.543-.791,16.494,16.494,0,0,1-6.963-6.172,5.089,5.089,0,0,1-.332-.547l-1.846-3.31-4.658-8.408-6.211-11.181-6.474-11.689L195.4,319.8l-1.6-2.881a28.827,28.827,0,0,1-2.09-4.228,6.191,6.191,0,0,0-1.748-2.3c-1.719-1.533-3.066-7.812-3.066-7.812.2-5.947.2-7.09.2-7.09s-.146-9.511.234-10.078Z" transform="translate(-178.523 -83.883)"/><path class="x" d="M156.638,164s-6.035-2.832-12.168-2.021c0,0,4.267-2.93,8.242-1.7C152.712,160.283,156.52,161.376,156.638,164Z" transform="translate(-47.852 -80.939)"/><path class="x" d="M183.189,161.334s-6.972.5-8.789,2.353V163.1a2.812,2.812,0,0,1,1.182-1.523,6.348,6.348,0,0,1,4.2-1.318C180.757,160.27,182.7,160.191,183.189,161.334Z" transform="translate(-103.631 -80.946)"/><path class="j" d="M184.062,172.827s-5.722-5.859-11.572,0C172.49,172.788,176.933,178.384,184.062,172.827Z" transform="translate(-102.639 -81.18)"/><path class="z" d="M184.082,172.807s-5.713-5.859-11.562,0" transform="translate(-102.688 -81.179)"/><path class="j" d="M158.826,171.141s-7.09-5.264-12.236,1.055C146.59,172.2,152.352,177.625,158.826,171.141Z" transform="translate(-52.11 -81.153)"/><path class="aa" d="M146.59,172.108s4.258-6.064,12.207-.977" transform="translate(-52.081 -81.153)"/><path class="n" d="M152.587,173.787a2.764,2.764,0,0,1-.5-3.594,7.256,7.256,0,0,1,3.3-1.094,2.783,2.783,0,0,1,1.816,2.607,2.754,2.754,0,0,1-1.836,2.6A8.076,8.076,0,0,1,152.587,173.787Z" transform="translate(-55.422 -81.153)"/><path class="n" d="M182.063,172.808a2.607,2.607,0,0,1-1.894,2.5,6.9,6.9,0,0,1-2.187-.342,2.607,2.607,0,0,1,0-4.326,6.964,6.964,0,0,1,1.953-.4,2.617,2.617,0,0,1,2.129,2.568Z" transform="translate(-104.878 -81.18)"/><path class="x" d="M171.073,176.522a8.886,8.886,0,0,1-2.93,5.088,12.476,12.476,0,0,1-1.25.879c-.322.225-.205.469,0,.762s.342.479.518.7a12.694,12.694,0,0,0,2.6,2.471c.332.244-.469.156-.625,0a13.282,13.282,0,0,1-2.6-2.422c-.176-.215-.342-.43-.5-.654s-.41-.479-.43-.723c0-.439.635-.654.928-.869a8.789,8.789,0,0,0,3.516-5.488c0-.186.85,0,.8.215Z" transform="translate(-83.204 -81.32)"/><path class="x" d="M175.763,195.135c-.6,3.564-4.551,4.58-7.6,4.883-3.5.381-7.3.625-10.42-1.309a7.148,7.148,0,0,1-3.125-3.828c-.137-.459.664-.459.781-.107,1.279,4.072,5.859,5.049,9.638,4.883,3.437-.156,9.179-.41,9.922-4.766.059-.381.869-.176.8.215Z" transform="translate(-76.88 -81.75)"/><path class="x" d="M164.981,203.176a2.373,2.373,0,0,1-1.514.146.537.537,0,0,1-.264-.166.313.313,0,0,1-.068-.244c.068-.2.313-.225.488-.186h.645a1.327,1.327,0,0,0,.273-.107.566.566,0,0,1,.313,0,.576.576,0,0,1,.264.166.273.273,0,0,1,.059.244.283.283,0,0,1-.176.176Z" transform="translate(-74.622 -81.939)"/><path class="x" d="M127.872,172.432a9.492,9.492,0,0,1-5.859,6.689.684.684,0,0,1-.566-.078c-.1-.059-.264-.244-.068-.313a9.2,9.2,0,0,0,5.683-6.513C127.12,171.943,127.93,172.149,127.872,172.432Z" transform="translate(3.55 -81.223)"/><path class="ab" d="M110.754,234.409c-8.691,2.061-12.871,11.621-14.482,19.531-2.041,10-.693,20.4,2.627,29.97a91.647,91.647,0,0,0,7.158,15.517c.2.342-.615.293-.752,0-5.1-8.906-9.092-18.613-10.371-28.847a52.518,52.518,0,0,1,.264-15.4,36.005,36.005,0,0,1,4.58-12.929c2.4-3.906,5.937-7.226,10.5-8.3.283-.068.977.352.479.469Z" transform="translate(46.663 -82.675)"/><path class="ab" d="M190.145,259.858q-3.223,5.244-6.035,10.742c-.166.332-.977,0-.742-.361q2.812-5.478,6.035-10.742C189.6,259.175,190.379,259.5,190.145,259.858Z" transform="translate(-119.346 -83.272)"/><path class="ab" d="M140.744,225.184q-9.765,15.849-19.667,31.669l-5.6,8.965c-.117.186-.859-.127-.8-.225q9.873-15.81,19.7-31.649L139.943,225c.117-.2.859.117.8.215Z" transform="translate(-2.867 -82.464)"/><path class="ab" d="M141.3,233.195l15.625,25.39,4.482,7.275c.234.391-.586.42-.781.107L145,240.577l-4.473-7.275c-.244-.391.586-.42.771-.107Z" transform="translate(-48.777 -82.652)"/><path class="x" d="M155.589,201.643c-3.906,5.859-10.342,9.209-16.777,11.543-.205.078-.977-.244-.654-.342,6.357-2.3,12.763-5.644,16.6-11.425.146-.215.9.088.8.225Z" transform="translate(-40.563 -81.91)"/><path class="y" d="M108.572,117.889s13.671,15.048,12.48,19.531c0,0,8.955-6.777,1.709-15.869a12.509,12.509,0,0,0-14.189-3.662Z" transform="translate(18.251 -79.931)"/><g transform="translate(31.273 4)"><rect class="ac" width="100.065" height="78.181" rx="13.65" transform="translate(118.532 284.454)"/><rect class="j" width="82.849" height="63.602" transform="translate(127.145 291.749)"/><path class="ad" d="M66.5,414.269H57.382l-1.289-2.334-2.5,4.375-1.426-2.187-1.426,2.187-1.748-17.5-1.826,23.046-1.65-7.881-1.66,2.1-1.973-5.889-1.055,4.551" transform="translate(143.491 -86.544)"/><path class="ad" d="M90.613,414.549H82.732l-1.289-2.334-2.5,4.375L77.518,414.4,76.1,416.589l-1.748-17.5-1.836,23.046-1.641-7.881-1.67,2.1-1.973-5.888-1.055,4.551" transform="translate(94.626 -86.551)"/><path class="ad" d="M125.166,414.788h-7.881L116,412.454l-2.5,4.375-1.426-2.187-1.416,2.187L108.9,399.32l-1.836,23.046L105.43,414.5l-1.67,2.09-1.973-5.888-1.055,4.56-9.853.029" transform="translate(35.952 -86.556)"/><path class="r" d="M108.44,384.1a3.75,3.75,0,0,1,6.777-2.227,3.75,3.75,0,0,1,6.777,2.227c0,6.123-6.777,9-6.777,9S108.44,390.086,108.44,384.1Z" transform="translate(21.976 -86.11)"/></g></g></g></svg>