<svg xmlns="http://www.w3.org/2000/svg" width="32" height="32" viewBox="0 0 32 32"><defs><style>.a,.d{fill:none;}.a{stroke:#fff;stroke-width:2px;}.b{fill:#fff;}.c{stroke:none;}</style></defs><g transform="translate(19608 -2095)"><g class="a" transform="translate(-19608 2095)"><circle class="c" cx="16" cy="16" r="16"/><circle class="d" cx="16" cy="16" r="15"/></g><path class="b" d="M6.927,35.235a3.589,3.589,0,1,0,3.589,3.589A3.583,3.583,0,0,0,6.927,35.235Zm0,5.922A2.333,2.333,0,1,1,9.26,38.823a2.337,2.337,0,0,1-2.333,2.333ZM11.5,35.088a.837.837,0,1,1-.837-.837A.835.835,0,0,1,11.5,35.088Zm2.377.85A4.142,4.142,0,0,0,12.745,33a4.169,4.169,0,0,0-2.933-1.131c-1.156-.066-4.619-.066-5.775,0A4.164,4.164,0,0,0,1.1,33,4.156,4.156,0,0,0-.026,35.934c-.066,1.156-.066,4.619,0,5.775A4.142,4.142,0,0,0,1.1,44.642a4.175,4.175,0,0,0,2.933,1.131c1.156.066,4.619.066,5.775,0a4.142,4.142,0,0,0,2.933-1.131,4.169,4.169,0,0,0,1.131-2.933c.066-1.156.066-4.616,0-5.772Zm-1.493,7.012a2.362,2.362,0,0,1-1.331,1.331,15.426,15.426,0,0,1-4.126.281A15.546,15.546,0,0,1,2.8,44.28,2.362,2.362,0,0,1,1.47,42.949a15.426,15.426,0,0,1-.281-4.126A15.546,15.546,0,0,1,1.47,34.7,2.362,2.362,0,0,1,2.8,33.367a15.426,15.426,0,0,1,4.126-.281,15.546,15.546,0,0,1,4.126.281A2.362,2.362,0,0,1,12.383,34.7a15.426,15.426,0,0,1,.281,4.126A15.417,15.417,0,0,1,12.383,42.949Z" transform="translate(-19598.926 2072.175)"/></g></svg>