<svg xmlns="http://www.w3.org/2000/svg" width="32" height="32" viewBox="0 0 32 32"><defs><style>.a,.d{fill:none;}.a{stroke:#fff;stroke-width:2px;}.b{fill:#fff;}.c{stroke:none;}</style></defs><g transform="translate(19561 -2095)"><g class="a" transform="translate(-19561 2095)"><circle class="c" cx="16" cy="16" r="16"/><circle class="d" cx="16" cy="16" r="15"/></g><path class="b" d="M15.253,51.571c.011.153.011.306.011.459A9.919,9.919,0,0,1,5.35,62.082,9.748,9.748,0,0,1,0,60.5a7.11,7.11,0,0,0,.841.044A6.917,6.917,0,0,0,5.167,59.03a3.5,3.5,0,0,1-3.258-2.45,4.335,4.335,0,0,0,.658.055,3.637,3.637,0,0,0,.917-.12A3.521,3.521,0,0,1,.69,53.048V53a3.472,3.472,0,0,0,1.575.448,3.571,3.571,0,0,1-1.079-4.725,9.859,9.859,0,0,0,7.184,3.7,4.042,4.042,0,0,1-.086-.809,3.507,3.507,0,0,1,3.484-3.533A3.454,3.454,0,0,1,14.314,49.2a6.8,6.8,0,0,0,2.211-.853,3.515,3.515,0,0,1-1.532,1.947A6.909,6.909,0,0,0,17,49.745,7.548,7.548,0,0,1,15.253,51.571Z" transform="translate(-19553 2055.918)"/></g></svg>