<svg xmlns="http://www.w3.org/2000/svg" width="32" height="32" viewBox="0 0 32 32"><defs><style>.a,.d{fill:none;}.a{stroke:#fff;stroke-width:2px;}.b{fill:#fff;}.c{stroke:none;}</style></defs><g transform="translate(19467 -2095)"><g class="a" transform="translate(-19467 2095)"><circle class="c" cx="16" cy="16" r="16"/><circle class="d" cx="16" cy="16" r="15"/></g><path class="b" d="M14,15a7,7,0,0,1-9.072,6.687A7.869,7.869,0,0,0,5.8,19.852c.085-.327.435-1.665.435-1.665a1.875,1.875,0,0,0,1.6.8c2.111,0,3.633-1.942,3.633-4.355a4.108,4.108,0,0,0-4.316-4.042c-3.02,0-4.626,2.027-4.626,4.237a3.141,3.141,0,0,0,1.42,2.713c.133.062.2.034.234-.093.023-.1.141-.573.195-.793a.21.21,0,0,0-.048-.2,2.757,2.757,0,0,1-.517-1.6,3.029,3.029,0,0,1,3.161-3.037A2.764,2.764,0,0,1,9.9,14.67c0,1.894-.957,3.206-2.2,3.206a1.015,1.015,0,0,1-1.036-1.265,14.066,14.066,0,0,0,.579-2.331.879.879,0,0,0-.886-.985c-.7,0-1.267.725-1.267,1.7a2.522,2.522,0,0,0,.209,1.039s-.692,2.93-.819,3.477a6.776,6.776,0,0,0-.025,2.01A7,7,0,1,1,14,15Z" transform="translate(-19458 2096)"/></g></svg>