<svg xmlns="http://www.w3.org/2000/svg" width="32" height="32" viewBox="0 0 32 32"><defs><style>.a,.d{fill:none;}.a{stroke:#fff;stroke-width:2px;}.b{fill:#fff;}.c{stroke:none;}</style></defs><g transform="translate(19514 -2095)"><g class="a" transform="translate(-19514 2095)"><circle class="c" cx="16" cy="16" r="16"/><circle class="d" cx="16" cy="16" r="15"/></g><path class="b" d="M28.64,65.565A1.774,1.774,0,0,0,27.4,64.3a40.929,40.929,0,0,0-5.47-.3,40.929,40.929,0,0,0-5.47.3,1.774,1.774,0,0,0-1.238,1.266,20.436,20.436,0,0,0,0,6.891A1.747,1.747,0,0,0,16.463,73.7a40.928,40.928,0,0,0,5.47.3,40.928,40.928,0,0,0,5.47-.3,1.747,1.747,0,0,0,1.238-1.245,20.436,20.436,0,0,0,0-6.891ZM20.5,71.125V66.9L24.16,69.01Z" transform="translate(-19519.934 2042)"/></g></svg>